<?xml version="1.0" encoding="UTF-8" standalone="no"?>
<svg
   xmlns:dc="http://purl.org/dc/elements/1.1/"
   xmlns:cc="http://creativecommons.org/ns#"
   xmlns:rdf="http://www.w3.org/1999/02/22-rdf-syntax-ns#"
   xmlns:svg="http://www.w3.org/2000/svg"
   xmlns="http://www.w3.org/2000/svg"
   version="1.1"
   class="svg2"
   viewBox="0 0 600.00001 600.00001"
   height="600"
   width="600">
  <defs
     id="defs4">
    <filter
       id="filter4551"
       style="color-interpolation-filters:sRGB">
      <feFlood
         id="feFlood4553"
         result="flood"
         flood-color="rgb(0,0,0)"
         flood-opacity="0.498039" />
      <feComposite
         id="feComposite4555"
         result="composite1"
         operator="in"
         in2="SourceGraphic"
         in="flood" />
      <feGaussianBlur
         id="feGaussianBlur4557"
         result="blur"
         stdDeviation="3"
         in="composite1" />
      <feOffset
         id="feOffset4559"
         result="offset"
         dy="6"
         dx="6" />
      <feComposite
         id="feComposite4561"
         result="composite2"
         operator="over"
         in2="offset"
         in="SourceGraphic" />
    </filter>
  </defs>
  <metadata
     id="metadata7">
    <rdf:RDF>
      <cc:Work
         rdf:about="">
        <dc:format>image/svg+xml</dc:format>
        <dc:type
           rdf:resource="http://purl.org/dc/dcmitype/StillImage" />
        <dc:title></dc:title>
      </cc:Work>
    </rdf:RDF>
  </metadata>
  <g
     transform="translate(0,-452.36216)"
     id="layer1">
    <g
       style="filter:url(#filter4551)"
       transform="translate(-64.285715,291.42856)"
       id="g4165">
      <path
         id="path4175"
         d="m 115.71428,463.7908 0,-250 250,0 250,0 0,250 0,250 -250,0 -250,0 0,-250 z"
         style="fill:#fbfbfb" />
      <path
         id="path4173"
         d="m 296.71428,657.71674 c -37.125,-20.93331 -68.01017,-38.59277 -68.63372,-39.24325 -0.62355,-0.65048 -2.30743,-10.85769 -3.74195,-22.68269 -1.43453,-11.825 -4.4099,-36.35 -6.61193,-54.5 -16.53963,-136.3257 -16.94815,-139.993 -15.72705,-141.1801 0.66806,-0.64946 18.53965,-7.2409 39.71465,-14.64766 21.175,-7.40675 57.87453,-20.26304 81.55451,-28.56953 23.67998,-8.30649 43.99222,-15.10271 45.13831,-15.10271 1.14609,0 34.19656,11.07251 73.44549,24.60558 39.24893,13.53306 76.31169,26.28526 82.36169,28.33821 6.82819,2.31701 11.11121,4.3036 11.29323,5.23813 0.16127,0.82803 -3.80801,35.43833 -8.82062,76.91179 -5.01261,41.47346 -10.83031,89.73847 -12.92822,107.25558 -2.53976,21.2064 -4.27052,32.29998 -5.17939,33.19802 -0.75075,0.74181 -8.34,5.12706 -16.865,9.74499 -80.32357,43.51074 -126.97962,68.70657 -127.21607,68.70095 -0.15616,-0.004 -30.65893,-17.134 -67.78393,-38.06731 z m 2.16888,-59.77608 c 0.36789,-0.35742 5.02731,-11.5648 10.35427,-24.90528 5.32696,-13.34049 10.20097,-24.59049 10.83112,-25 0.63015,-0.40952 10.82073,-0.96958 22.64573,-1.24458 l 21.5,-0.5 0,-13.5 0,-13.5 -14.79173,-0.27697 c -11.76092,-0.22022 -14.90487,-0.5718 -15.34389,-1.71585 -0.30368,-0.79138 6.4651,-18.0056 15.04174,-38.25383 l 15.59388,-36.81495 0,-32.30253 c 0,-24.36071 -0.28988,-32.20591 -1.17904,-31.90952 -1.25547,0.41849 -99.82096,218.25515 -99.82096,220.61134 0,1.16235 2.83941,1.27374 17.25,0.6767 9.4875,-0.39307 17.551,-1.00711 17.91888,-1.36453 z M 252.89895,315.80138 c -6.60429,-1.56316 -11.18467,-8.00354 -11.18467,-15.72652 0,-10.77747 6.72796,-16.11408 21.47522,-17.03413 4.72078,-0.29452 8.8008,-0.88752 9.06671,-1.31778 0.9849,-1.5936 -1.96812,-6.00101 -4.43571,-6.62034 -1.403,-0.35213 -5.58916,0.14244 -9.30259,1.09904 -3.71344,0.95661 -7.13524,1.50224 -7.604,1.21253 -0.46877,-0.28972 -1.68253,-2.36786 -2.69724,-4.61808 -2.27624,-5.0478 -1.46046,-6.11614 6.42911,-8.41955 14.17679,-4.13898 27.81151,-0.23173 31.70447,9.08544 1.81972,4.35518 1.95921,39.33363 0.16403,41.12881 -0.66,0.66 -2.87247,1.2 -4.91659,1.2 -2.87441,0 -4.15697,-0.60453 -5.65996,-2.66781 l -1.94337,-2.66781 -2.89004,2.05432 c -5.21877,3.70966 -11.58033,4.85995 -18.20537,3.29188 z m 14.23796,-12.41381 c 2.42,-1.01114 3.68826,-2.40275 4.53898,-4.98045 1.50625,-4.56397 0.79552,-5.61982 -3.77063,-5.60158 -4.12766,0.0165 -7.9906,1.67745 -9.49008,4.08048 -1.36108,2.18125 -0.0898,6.6564 2.04978,7.21559 2.92874,0.76543 3.20076,0.73632 6.67195,-0.71404 z m 36.07737,11.91103 c -5.67414,-1.99222 -9.96517,-7.35246 -12.04922,-15.05155 -3.11061,-11.49154 -0.45797,-26.47744 5.69234,-32.15852 5.77912,-5.33821 14.66374,-6.71009 21.35688,-3.29773 2.15759,1.1 4.03751,2 4.17761,2 0.1401,0 0.38245,-4.8375 0.53856,-10.75 l 0.28383,-10.75 6.91048,-0.29935 c 4.85226,-0.21019 7.15597,0.0877 7.73469,1 1.38726,2.18699 1.06016,67.19402 -0.34517,68.59935 -2.915,2.915 -11.72839,0.91482 -13.01815,-2.95445 -0.26553,-0.79658 -1.39923,-0.44898 -3.42823,1.05113 -2.83081,2.09291 -8.91814,4.08146 -12.35362,4.03557 -0.825,-0.011 -3.3,-0.65202 -5.5,-1.42445 z m 17.69519,-14.55391 c 3.38241,-4.07057 3.53457,-16.65629 0.26184,-21.65716 -1.75456,-2.68103 -7.40451,-3.93039 -10.43639,-2.30778 -6.73428,3.60408 -6.59513,23.16842 0.18493,26.0013 3.22222,1.34632 7.98567,0.3753 9.98962,-2.03636 z m 39.00058,14.64495 c -6.79812,-1.7134 -12.04148,-5.90577 -15.19577,-12.14992 -2.12104,-4.19874 -2.49727,-6.31317 -2.48196,-13.94892 0.0162,-8.08007 0.32284,-9.55903 3,-14.46916 8.4373,-15.47468 33.03913,-16.21809 41.3036,-1.2481 2.46589,4.46663 3.86875,13.33039 2.79003,17.62834 l -0.64977,2.58892 -14.92194,0 c -8.56827,0 -15.17735,0.41329 -15.52181,0.97063 -0.85087,1.37674 2.13532,6.77355 4.42646,7.99973 2.77207,1.48357 13.13301,1.26636 17.77864,-0.37272 5.34313,-1.88516 6.46603,-0.96308 6.0878,4.99911 -0.28509,4.49409 -0.60311,5.04398 -3.81105,6.58977 -4.87466,2.34891 -16.28452,3.05556 -22.80423,1.41232 z m 14.80423,-34.1443 c 0,-2.75655 -4.66369,-6.45454 -8.14009,-6.45454 -3.64207,0 -7.85991,3.31331 -7.85991,6.17431 0,1.61544 0.92128,1.82569 8,1.82569 6.54902,0 8,-0.2803 8,-1.54546 z m -211.8,33.34546 c -1.70442,-1.70442 -1.70442,-47.89558 0,-49.6 0.66,-0.66 3.12463,-1.2 5.47695,-1.2 3.47298,0 4.58879,0.47594 5.93594,2.53196 1.48973,2.2736 1.82743,2.37953 3.30966,1.03813 6.70902,-6.07158 18.42856,-5.80307 27.28251,0.62507 1.41551,1.0277 2.09477,0.87206 4,-0.9165 5.03303,-4.72482 16.7607,-5.41024 23.40755,-1.36805 5.82872,3.54465 6.81566,7.42506 7.21645,28.3734 0.26288,13.74031 0.0327,19.17764 -0.85728,20.25 -1.50601,1.81462 -12.02008,2.01769 -13.77178,0.26599 -0.83249,-0.83249 -1.2,-6.05905 -1.2,-17.06574 0,-15.35649 -0.6077,-19.10467 -3.3997,-20.96895 -1.68782,-1.12698 -5.91645,-0.84286 -7.68696,0.51649 -3.36838,2.58616 -3.91334,5.50395 -3.91334,20.95246 0,10.6178 -0.37079,15.73653 -1.2,16.56574 -1.55804,1.55804 -12.04196,1.55804 -13.6,0 -0.83177,-0.83177 -1.2,-6.03399 -1.2,-16.95295 0,-9.90908 -0.43457,-16.70672 -1.17144,-18.32397 -2.27958,-5.00314 -9.70644,-4.1112 -12.54936,1.50715 -0.8326,1.64543 -1.25464,7.49303 -1.26446,17.51977 -0.0101,10.35452 -0.38913,15.42439 -1.21474,16.25 -0.66,0.66 -3.72,1.2 -6.8,1.2 -3.08,0 -6.14,-0.54 -6.8,-1.2 z m 341.89366,-0.10644 c -6.76797,-2.37146 -7.53295,-4.68843 -8.09366,-24.51437 l -0.5,-17.67919 -2.5,-0.33468 c -1.375,-0.18407 -2.90843,-0.7275 -3.40762,-1.20761 -1.14887,-1.10498 1.08331,-3.88391 4.01513,-4.99859 1.45274,-0.55233 2.76204,-2.55566 3.89025,-5.95238 1.41568,-4.2622 2.06084,-5.0685 3.85139,-4.8133 1.79147,0.25534 2.23439,1.14199 2.65085,5.30656 l 0.5,5 6.5,0.5 c 6.13333,0.47179 6.5,0.64103 6.5,3 0,2.35897 -0.36667,2.5282 -6.5,3 l -6.5,0.5 -0.27549,15.76996 c -0.27292,15.62257 -0.25232,15.79314 2.20454,18.25 1.91258,1.91258 3.5201,2.48004 7.0255,2.48004 4.1937,0 4.54545,0.19538 4.54545,2.52475 0,4.16661 -6.70093,5.69353 -13.90634,3.16881 z M 411.0233,313.5408 c -1.35653,-2.09595 -13.25236,-46.03266 -12.70368,-46.92045 0.7949,-1.28617 6.03238,-0.97775 7.13992,0.42045 0.54458,0.6875 2.92059,8.7875 5.28001,18 2.35943,9.2125 4.59844,16.75 4.97558,16.75 0.6064,0 7.66549,-20.68062 10.24014,-30 0.53182,-1.925 1.42526,-4.0625 1.98542,-4.75 1.3163,-1.61553 7.41327,-1.62177 8.46457,-0.009 0.44496,0.68274 3.11008,8.64975 5.92248,17.70449 2.8124,9.05473 5.5394,16.60513 6.05999,16.77866 0.52059,0.17353 2.40329,-5.43099 4.18378,-12.45449 6.19084,-24.42092 5.71251,-23.26996 9.6707,-23.26996 2.79021,0 3.47207,0.38768 3.47207,1.97408 0,2.75283 -11.81163,45.23755 -12.87169,46.29761 -0.47562,0.47562 -2.61155,0.72155 -4.74653,0.54653 l -3.88178,-0.31822 -3.31173,-10 c -1.82145,-5.5 -4.35905,-13.6 -5.63911,-18 -1.28006,-4.4 -2.65727,-8 -3.06047,-8 -0.40319,0 -3.13506,7.425 -6.07081,16.5 -2.93576,9.075 -5.6111,17.2875 -5.9452,18.25 -0.72711,2.0947 -7.87899,2.48493 -9.16366,0.5 z m 64.16594,0.0453 c -0.28253,-0.73624 -0.39247,-11.67887 -0.24432,-24.31697 l 0.26936,-22.97836 3,0 3,0 0,24 0,24 -2.75569,0.31697 c -1.62754,0.18721 -2.96597,-0.23104 -3.26935,-1.02164 z m 53.23762,0.58391 c -0.39192,-0.39191 -0.71258,-15.90725 -0.71258,-34.47852 0,-32.0348 0.0953,-33.7962 1.85912,-34.35601 1.02252,-0.32453 2.59752,-0.30671 3.5,0.0396 1.3939,0.53489 1.64088,2.41979 1.64088,12.52268 0,7.57056 0.37816,11.89301 1.04049,11.89301 0.57227,0 2.40997,-1.0125 4.08378,-2.25 4.28854,-3.17065 17.34283,-3.28498 21.49061,-0.18821 6.72912,5.02401 6.88512,5.64167 6.88512,27.26038 l 0,19.67783 -3.5,0 -3.5,0 -0.5,-18 c -0.62849,-22.62553 -1.50711,-24.5 -11.48392,-24.5 -11.31665,0 -13.72716,4.41314 -14.47461,26.5 l -0.54147,16 -2.53742,0.29591 c -1.39559,0.16275 -2.85809,-0.0248 -3.25,-0.41667 z m -53.6774,-58.3135 c -2.2391,-4.18381 -0.57153,-8.06574 3.46482,-8.06574 2.83005,0 4.5,1.8555 4.5,5 0,1.43 -0.54,3.14 -1.2,3.8 -1.83712,1.83712 -5.60769,1.42786 -6.76482,-0.73426 z"
         style="fill:#b0aeae" />
      <path
         id="path4171"
         d="m 301.45531,642.5019 c -33.96743,-18.80574 -61.98256,-34.89673 -62.25584,-35.75777 -0.547,-1.72342 -0.70542,-3.04193 -10.02715,-83.45333 -12.70599,-109.60492 -12.71049,-109.64755 -11.66727,-110.69077 1.6268,-1.6268 143.42212,-51.8887 146.70923,-52.00373 3.61691,-0.12657 150.56973,49.68929 151.6273,51.40047 0.40784,0.65991 0.53544,2.34603 0.28354,3.74693 -0.47483,2.64069 -17.76242,139.96604 -21.57597,171.39041 -1.49204,12.2947 -2.65819,18.4199 -3.75013,19.69754 -1.76738,2.06793 -124.58841,69.9871 -126.42262,69.91082 -0.63917,-0.0266 -28.95366,-15.43484 -62.92109,-34.24057 z m 170.25897,-42.41475 c 0,-0.26933 -18.73917,-40.38368 -41.64261,-89.14302 C 382.9359,410.59635 367.86943,378.3227 366.58932,374.95952 c -1.19693,-3.14465 -2.98938,-2.32628 -5.26415,2.40343 -7.21076,14.99269 -99.61089,220.9844 -99.61089,222.067 0,2.01502 36.23132,1.99198 37.90453,-0.0241 0.63217,-0.76173 5.56718,-12.34923 10.96668,-25.75 l 9.81727,-24.36504 45.84554,-0.26022 c 28.38963,-0.16113 46.21184,0.10608 46.80756,0.7018 0.52911,0.52911 5.78699,12.12121 11.68418,25.76022 l 10.72216,24.79819 16.87604,0.5 c 16.21352,0.48037 19.37604,0.36552 19.37604,-0.70365 z m -121.25,-83.04421 c -8.95744,-0.18559 -14.75,-0.69811 -14.75,-1.30506 0,-0.5497 5.45815,-13.92517 12.12922,-29.72327 6.67107,-15.79809 13.03107,-30.86131 14.13332,-33.47381 2.09628,-4.96846 2.86389,-5.57246 4.44806,-3.5 2.35109,3.07575 32.27005,66.9723 31.7518,67.81084 -0.54868,0.88778 -11.90054,0.9333 -47.7124,0.1913 z m -99.25,-203.65466 c -5.2896,-2.33488 -6.90558,-5.07807 -7.31706,-12.42093 -0.31908,-5.69394 -0.0527,-7.08422 1.80975,-9.44653 3.29848,-4.18367 7.45291,-5.8528 15.87381,-6.37763 11.27385,-0.70264 12.1335,-0.98159 12.1335,-3.93718 0,-3.67705 -1.51281,-5.97077 -4.84953,-7.35289 -2.39156,-0.99061 -4.15277,-0.9043 -9.64281,0.47255 -7.4813,1.87623 -8.78104,1.39326 -10.03636,-3.72946 -0.62965,-2.56949 -0.39319,-2.77225 5.09283,-4.36708 4.07862,-1.18568 8.14998,-1.54668 13.9879,-1.24027 9.17139,0.48138 12.33826,1.93405 15.49197,7.10627 1.75281,2.87469 1.9489,5.12916 1.95226,22.44567 l 0.004,19.25 -4.02475,0 c -3.37294,0 -4.17869,-0.40488 -4.97525,-2.5 -1.09869,-2.88978 -2.61485,-3.15854 -5.10506,-0.90492 -4.40654,3.98786 -14.72211,5.50645 -20.39494,3.0024 z m 19.63533,-10.57896 c 2.52992,-2.52993 2.93477,-3.62796 2.67307,-7.25 -0.29295,-4.0547 -0.47916,-4.28481 -3.71722,-4.59372 -9.7489,-0.93006 -17.56056,7.35582 -12.09118,12.8252 3.18577,3.18577 9.43503,2.71882 13.13533,-0.98148 z m 30.86467,9.79685 c -3.43016,-1.76491 -5.09436,-3.50409 -7,-7.31537 -2.19048,-4.38095 -2.5,-6.3 -2.5,-15.5 0,-9.21386 0.30622,-11.10608 2.5,-15.44803 3.36379,-6.65764 6.59171,-8.82248 13.94833,-9.35461 5.12751,-0.37089 6.62081,-0.0539 10.52586,2.23464 3.36485,1.97194 4.67378,2.32826 5.02321,1.36743 0.25991,-0.71469 0.59183,-6.02443 0.73758,-11.79943 l 0.26502,-10.5 5.5,0 5.5,0 0.2633,33.75 0.2633,33.75 -4.42989,0 c -3.67501,0 -4.77499,-0.46862 -6.455,-2.75 -1.51677,-2.05971 -2.38105,-2.49898 -3.44314,-1.75 -0.77992,0.55 -2.63173,1.85601 -4.11514,2.90225 -4.24064,2.9909 -11.23481,3.16514 -16.58343,0.41312 z m 20.07622,-10.38434 c 2.35503,-2.13128 4.1536,-10.71567 3.35745,-16.02479 -0.90089,-6.00757 -3.65783,-9.99508 -7.87214,-11.38593 -3.09085,-1.02007 -4.04545,-0.92257 -6.82739,0.69736 -4.60243,2.68 -6.23414,6.56071 -6.23414,14.82674 0,8.11473 1.80558,11.83969 6.74587,13.91692 3.47482,1.46105 7.88625,0.63407 10.83035,-2.0303 z m 36.17145,10.75795 c -9.35456,-3.35408 -13.26715,-9.14734 -14.02631,-20.76836 -1.22226,-18.70997 7.96302,-28.56262 25.32843,-27.16869 11.89129,0.95452 17.47758,7.07091 18.26483,19.99807 l 0.41107,6.75 -14.42171,0 c -17.30528,0 -18.83955,0.58577 -16.45874,6.28385 2.97649,7.12374 12.59901,9.76403 22.65476,6.21615 2.3383,-0.825 4.41988,-1.5 4.62573,-1.5 0.20585,0 0.37427,2.03614 0.37427,4.52475 0,4.01081 -0.3109,4.64295 -2.73715,5.56541 -1.50544,0.57237 -6.34294,1.25248 -10.75,1.51135 -6.21926,0.36533 -9.18853,0.0491 -13.26518,-1.41253 z m 17.69271,-29.61715 c 2.49194,-3.0026 -3.74608,-10.57183 -8.71255,-10.57183 -5.54469,0 -11.47813,6.29939 -9.8731,10.48204 0.81387,2.12089 16.83575,2.1983 18.58565,0.0898 z m -211.94038,6.42817 0,-24 4.52475,0 c 3.90627,0 4.65467,0.34172 5.47525,2.5 1.10874,2.9162 2.22107,3.14395 4.12755,0.8451 4.72956,-5.70294 23.29363,-5.62302 25.4935,0.10975 0.77997,2.03256 3.77942,1.97278 5.5065,-0.10975 3.5045,-4.22575 15.07735,-5.7653 21.26526,-2.82894 6.34725,3.01197 7.06774,5.69494 7.44762,27.73384 l 0.34043,19.75 -6.00614,0 -6.00614,0 -0.33429,-16.79741 c -0.27459,-13.7977 -0.64076,-17.26453 -2.05041,-19.4131 -2.26139,-3.4468 -6.71912,-4.39146 -10.78967,-2.2865 -5.02879,2.60049 -5.99421,6.37971 -5.99421,23.46489 l 0,15.03212 -6,0 -6,0 -0.002,-15.75 c -0.001,-13.01405 -0.30528,-16.34765 -1.75,-19.19045 -3.53011,-6.94634 -11.91711,-6.20109 -15.35314,1.36425 -1.5298,3.36825 -1.85515,6.63796 -1.8733,18.8262 l -0.022,14.75 -6,0 -6,0 0,-24 z"
         style="fill:#e32939" />
      <path
         id="path4169"
         d="m 364.47882,612.79095 0.26453,-64.00015 23.92645,0 c 18.04318,0 24.1253,0.30736 24.73515,1.25 0.44479,0.6875 5.58942,12.275 11.43251,25.75 l 10.62381,24.5 17.22779,0.5 c 9.47529,0.275 17.67933,0.21932 18.23121,-0.12373 0.58172,-0.36159 -16.54162,-37.97555 -40.74389,-89.5 -37.20327,-79.2024 -60.02632,-128.01696 -63.99595,-136.87627 -0.73933,-1.65 -1.48416,-5.58281 -1.65519,-8.73958 -0.2892,-5.33795 -0.171,-5.69786 1.68904,-5.14331 14.78916,4.40924 149.08553,50.71226 149.6273,51.58886 0.40784,0.65991 0.53544,2.34603 0.28354,3.74693 -0.47483,2.64069 -17.76242,139.96604 -21.57597,171.39041 -1.49204,12.2947 -2.65819,18.4199 -3.75013,19.69754 -1.42846,1.67137 -124.34204,69.95894 -125.92262,69.9593 -0.36417,9e-5 -0.54308,-28.79991 -0.39758,-64 z m 0.90213,-95.66682 c -0.36667,-0.36666 -0.66667,-16.21309 -0.66667,-35.21428 0,-29.01185 0.21569,-34.31299 1.34608,-33.08334 2.25475,2.45275 32.73809,67.01909 32.11632,68.02513 -0.65293,1.05647 -31.75336,1.31487 -32.79573,0.27249 z M 251.21428,313.38828 c -5.2896,-2.33488 -6.90558,-5.07807 -7.31706,-12.42093 -0.31908,-5.69394 -0.0527,-7.08422 1.80975,-9.44653 3.29848,-4.18367 7.45291,-5.8528 15.87381,-6.37763 11.27385,-0.70264 12.1335,-0.98159 12.1335,-3.93718 0,-3.67705 -1.51281,-5.97077 -4.84953,-7.35289 -2.39156,-0.99061 -4.15277,-0.9043 -9.64281,0.47255 -7.4813,1.87623 -8.78104,1.39326 -10.03636,-3.72946 -0.62965,-2.56949 -0.39319,-2.77225 5.09283,-4.36708 4.07862,-1.18568 8.14998,-1.54668 13.9879,-1.24027 9.17139,0.48138 12.33826,1.93405 15.49197,7.10627 1.75281,2.87469 1.9489,5.12916 1.95226,22.44567 l 0.004,19.25 -4.02475,0 c -3.37294,0 -4.17869,-0.40488 -4.97525,-2.5 -1.09869,-2.88978 -2.61485,-3.15854 -5.10506,-0.90492 -4.40654,3.98786 -14.72211,5.50645 -20.39494,3.0024 z m 19.63533,-10.57896 c 2.52992,-2.52993 2.93477,-3.62796 2.67307,-7.25 -0.29295,-4.0547 -0.47916,-4.28481 -3.71722,-4.59372 -9.7489,-0.93006 -17.56056,7.35582 -12.09118,12.8252 3.18577,3.18577 9.43503,2.71882 13.13533,-0.98148 z m 30.86467,9.79685 c -3.43016,-1.76491 -5.09436,-3.50409 -7,-7.31537 -2.19048,-4.38095 -2.5,-6.3 -2.5,-15.5 0,-9.21386 0.30622,-11.10608 2.5,-15.44803 3.36379,-6.65764 6.59171,-8.82248 13.94833,-9.35461 5.12751,-0.37089 6.62081,-0.0539 10.52586,2.23464 3.36485,1.97194 4.67378,2.32826 5.02321,1.36743 0.25991,-0.71469 0.59183,-6.02443 0.73758,-11.79943 l 0.26502,-10.5 5.5,0 5.5,0 0.2633,33.75 0.2633,33.75 -4.42989,0 c -3.67501,0 -4.77499,-0.46862 -6.455,-2.75 -1.51677,-2.05971 -2.38105,-2.49898 -3.44314,-1.75 -0.77992,0.55 -2.63173,1.85601 -4.11514,2.90225 -4.24064,2.9909 -11.23481,3.16514 -16.58343,0.41312 z m 20.07622,-10.38434 c 2.35503,-2.13128 4.1536,-10.71567 3.35745,-16.02479 -0.90089,-6.00757 -3.65783,-9.99508 -7.87214,-11.38593 -3.09085,-1.02007 -4.04545,-0.92257 -6.82739,0.69736 -4.60243,2.68 -6.23414,6.56071 -6.23414,14.82674 0,8.11473 1.80558,11.83969 6.74587,13.91692 3.47482,1.46105 7.88625,0.63407 10.83035,-2.0303 z m 36.17145,10.75795 c -9.35456,-3.35408 -13.26715,-9.14734 -14.02631,-20.76836 -1.22226,-18.70997 7.96302,-28.56262 25.32843,-27.16869 11.89129,0.95452 17.47758,7.07091 18.26483,19.99807 l 0.41107,6.75 -14.42171,0 c -17.30528,0 -18.83955,0.58577 -16.45874,6.28385 2.97649,7.12374 12.59901,9.76403 22.65476,6.21615 2.3383,-0.825 4.41988,-1.5 4.62573,-1.5 0.20585,0 0.37427,2.03614 0.37427,4.52475 0,4.01081 -0.3109,4.64295 -2.73715,5.56541 -1.50544,0.57237 -6.34294,1.25248 -10.75,1.51135 -6.21926,0.36533 -9.18853,0.0491 -13.26518,-1.41253 z m 17.69271,-29.61715 c 2.49194,-3.0026 -3.74608,-10.57183 -8.71255,-10.57183 -5.54469,0 -11.47813,6.29939 -9.8731,10.48204 0.81387,2.12089 16.83575,2.1983 18.58565,0.0898 z m -211.94038,6.42817 0,-24 4.52475,0 c 3.90627,0 4.65467,0.34172 5.47525,2.5 1.10874,2.9162 2.22107,3.14395 4.12755,0.8451 4.72956,-5.70294 23.29363,-5.62302 25.4935,0.10975 0.77997,2.03256 3.77942,1.97278 5.5065,-0.10975 3.5045,-4.22575 15.07735,-5.7653 21.26526,-2.82894 6.34725,3.01197 7.06774,5.69494 7.44762,27.73384 l 0.34043,19.75 -6.00614,0 -6.00614,0 -0.33429,-16.79741 c -0.27459,-13.7977 -0.64076,-17.26453 -2.05041,-19.4131 -2.26139,-3.4468 -6.71912,-4.39146 -10.78967,-2.2865 -5.02879,2.60049 -5.99421,6.37971 -5.99421,23.46489 l 0,15.03212 -6,0 -6,0 -0.002,-15.75 c -0.001,-13.01405 -0.30528,-16.34765 -1.75,-19.19045 -3.53011,-6.94634 -11.91711,-6.20109 -15.35314,1.36425 -1.5298,3.36825 -1.85515,6.63796 -1.8733,18.8262 l -0.022,14.75 -6,0 -6,0 0,-24 z"
         style="fill:#626262" />
      <path
         id="path4167"
         d="m 364.47882,612.79095 0.26453,-64.00015 23.95028,0 c 22.59411,0 24.00847,0.10872 24.97783,1.91998 0.56514,1.05599 5.5441,12.40911 11.06433,25.22916 5.52024,12.82004 10.36118,23.6157 10.75764,23.99036 0.39647,0.37466 8.47553,1.00371 17.95348,1.3979 14.60896,0.60759 17.31751,0.49552 17.79012,-0.73609 0.30662,-0.79903 -5.13931,-13.56871 -12.10206,-28.37705 -28.43716,-60.48002 -90.29646,-192.22792 -92.22665,-196.42426 -1.13842,-2.475 -2.2103,-7.08811 -2.38195,-10.25136 -0.17165,-3.16325 -0.30245,-5.75075 -0.29066,-5.75 0.0838,0.005 83.21137,28.29911 113.09475,38.49358 20.26509,6.91327 37.29208,13.01604 37.83775,13.56171 0.65617,0.65617 -0.78142,15.12188 -4.24536,42.7191 -19.63988,156.47061 -18.97694,151.58443 -20.74141,152.87464 -1.90302,1.39153 -124.95782,69.35224 -125.57483,69.35248 -0.21578,9e-5 -0.27329,-28.79991 -0.12779,-64 z m 0.90213,-95.66682 c -0.36667,-0.36666 -0.66667,-16.20666 -0.66667,-35.2 0,-21.7152 0.3512,-34.18071 0.94617,-33.58333 0.5204,0.5225 8.16451,16.00208 16.98692,34.39907 11.67198,24.33907 15.70386,33.66304 14.80383,34.23469 -1.5003,0.9529 -31.12874,1.09109 -32.07025,0.14957 z"
         style="fill:#b62833" />
    </g>
  </g>
</svg>
