<?xml version="1.0" encoding="UTF-8" standalone="no"?>
<svg
   xmlns:dc="http://purl.org/dc/elements/1.1/"
   xmlns:cc="http://creativecommons.org/ns#"
   xmlns:rdf="http://www.w3.org/1999/02/22-rdf-syntax-ns#"
   xmlns:svg="http://www.w3.org/2000/svg"
   xmlns="http://www.w3.org/2000/svg"
   xmlns:xlink="http://www.w3.org/1999/xlink"
   version="1.1"
   id="svg5356"
   viewBox="0 0 300 300"
   height="300"
   width="300">
  <defs
     id="defs5358">
    <linearGradient
       id="linearGradient9499">
      <stop
         id="stop9501"
         offset="0"
         style="stop-color:#ffff00;stop-opacity:1" />
      <stop
         id="stop9503"
         offset="1"
         style="stop-color:#008000;stop-opacity:1" />
    </linearGradient>
    <radialGradient
       gradientUnits="userSpaceOnUse"
       gradientTransform="matrix(0.92588528,1.1071186,-1.2509689,1.0461875,278.55041,-193.10598)"
       r="114.92095"
       fy="212.86006"
       fx="165.54189"
       cy="212.86006"
       cx="165.54189"
       id="radialGradient9505"
       xlink:href="#linearGradient9499" />
    <filter
       height="1.1357931"
       y="-0.067896552"
       width="1.128413"
       x="-0.064206526"
       id="filter9531"
       style="color-interpolation-filters:sRGB">
      <feGaussianBlur
         id="feGaussianBlur9533"
         stdDeviation="6.1219417" />
    </filter>
  </defs>
  <metadata
     id="metadata5361">
    <rdf:RDF>
      <cc:Work
         rdf:about="">
        <dc:format>image/svg+xml</dc:format>
        <dc:type
           rdf:resource="http://purl.org/dc/dcmitype/StillImage" />
        <dc:title></dc:title>
      </cc:Work>
    </rdf:RDF>
  </metadata>
  <g
     transform="translate(0,-752.36212)"
     id="layer1">
    <g
       style="stroke:#1c8025;stroke-opacity:1"
       transform="matrix(1.1346695,0,0,1.1388194,820.7541,-44.174922)"
       id="layer1-4">
      <path class="foo"
         d="m 169.50195,104.66406 c -17.51371,0.12993 -32.12286,3.91203 -41.5625,7.09571 -11.89481,4.02669 -22.86092,9.51498 -31.958981,15.8164 -9.04279,6.26315 -20.287698,16.09197 -29.523438,31.42969 -5.95307,9.94975 -11.801318,23.53055 -14.355469,40.46289 -1.9737,13.08436 -0.299152,9.35338 -0.507812,10.18555 0.87858,-3.50385 1.168982,-6.76654 3.320312,-14.18946 1.790721,-6.17865 4.025369,-11.62468 5.480469,-13.79492 1.69326,-2.52545 1.087326,0.16476 -0.365234,8.61524 -3.14656,18.30552 -2.053696,38.73424 5.152344,58.43945 10.1722,27.6362 31.366706,50.62669 57.878909,62.73047 28.28671,12.87174 58.50481,11.73638 81.7832,2.89453 16.88867,-6.41811 29.63342,-16.50027 38.35352,-25.83984 9.03327,-9.67499 14.62361,-18.55862 17.75585,-24.82813 1.46689,-2.9361 1.28069,-2.92847 0.38672,-1.49414 -0.64555,1.03576 -4.25426,7.21065 -9.66992,13.74805 -12.12457,14.63593 -29.37133,26.23157 -49.0332,31.27343 -23.84782,6.15749 -50.63263,2.38904 -71.83984,-10.53906 -20.60878,-12.48302 -35.710558,-33.43474 -41.283208,-55.65234 -5.78842,-22.67273 -1.925055,-47.11047 8.421875,-65.81836 3.145603,-5.74683 6.936023,-11.09123 11.167973,-15.9375 5.63299,-6.4507 7.82736,-8.49365 6.48828,-9.00195 -1.12326,-0.42637 -4.93574,1.10318 -9.14063,3.47265 -7.133778,4.01991 -5.66315,3.84553 -11.271482,7.15625 -2.431541,1.43539 -4.024233,1.54152 -1.132813,-3.31836 6.717155,-11.29015 19.305595,-25.54103 38.779295,-34.91211 18.9724,-9.14268 42.89013,-12.60384 66.51367,-6.88867 12.99078,3.13813 25.01714,8.84808 35.48047,16.33399 -10.35008,-5.28979 -21.82636,-8.02782 -33.18359,-7.97852 -13.56068,0.0589 -26.83032,4.08651 -37.85156,11.23828 -15.82662,9.90785 -27.00532,26.25809 -30.61524,43.94727 -3.61527,17.71539 0.39417,36.48054 10.38281,50.80468 -8.78573,-15.12197 -10.90557,-33.57526 -6.17773,-49.77148 4.7349,-16.22039 16.24963,-30.00351 30.71875,-37.46875 10.31083,-5.08043 21.90856,-7.0386 32.91016,-5.77734 9.39844,1.07747 18.38599,4.49367 25.95312,9.6875 1.37342,0.73589 2.71747,1.53116 4.02539,2.38086 9.01083,5.85397 16.42482,14.43842 20.95508,24.47265 4.52812,10.02982 6.1678,21.52361 4.52344,32.67188 -1.64363,11.14335 -6.57939,21.94245 -14.1543,30.63281 -7.57155,8.68651 -17.78028,15.25242 -29.09766,18.54883 -11.31238,3.29495 -23.71511,3.31034 -35.26953,-0.0996 -11.54931,-3.40845 -22.21944,-10.236 -30.27343,-19.54102 7.34484,9.8676 17.65044,17.67963 29.4082,22.11328 11.75258,4.43169 24.90876,5.46676 37.45312,2.79688 12.53884,-2.6687 24.40272,-9.02648 33.70508,-18.22852 9.29826,-9.19798 15.98274,-21.18614 18.90235,-34.20703 2.91833,-13.01518 2.05652,-26.97921 -2.60352,-39.75976 -1.991,-5.46048 -4.67395,-10.68441 -7.94922,-15.53711 16.5481,21.3973 21.54079,44.98051 22.5957,61.78515 1.84484,29.3882 -0.25204,-22.43876 0.56641,-13.2832 -1.26138,-14.11034 -6.17937,-33.54337 -19.54297,-52.0332 -7.88317,-10.89437 -17.68827,-19.99104 -28.45703,-27.01953 -10.76359,-7.02513 -21.38558,-11.28187 -30.57031,-13.8086 -5.20223,-1.42715 -9.76785,-2.25423 -13.27539,-2.76172 -6.39961,-0.92594 -12.55858,-1.28745 -18.39649,-1.24414 z m 28.94141,49.14453 c -0.40208,-0.015 -0.60328,0.0802 -0.60742,0.2793 -0.003,0.13376 0.0925,0.31612 0.2832,0.54883 4.51561,5.366 7.14989,11.42271 8.05469,17.33398 -3.89946,2.97153 -6.80593,6.71458 -8.41016,10.76953 -0.0744,0.18232 -0.11207,0.34193 -0.11914,0.47461 -0.0107,0.19996 0.0502,0.30208 0.17969,0.31055 1.03193,0.0675 2.09374,0.2785 3.1289,0.60938 0.0926,0.0296 0.20904,-0.008 0.35547,-0.11329 0.13635,-0.094 0.27483,-0.23711 0.41407,-0.42773 1.24667,-1.53538 2.69527,-2.92352 4.30078,-4.13672 1.60455,-1.21253 3.42081,-2.28687 5.42968,-3.1582 l -6.24609,8.92773 c -0.15262,0.21814 -0.23493,0.42216 -0.25,0.60742 -0.0197,0.18248 0.002,0.29631 0.0684,0.34571 0.27472,0.20504 0.53657,0.41952 0.78516,0.64258 0.34823,0.30016 0.68395,0.63017 1.0039,0.98242 0.0782,0.0861 0.20333,0.0979 0.37891,0.0352 0.17131,-0.0668 0.34969,-0.17938 0.53125,-0.33593 l 21.1543,-18.24024 c 0.44201,-0.38111 0.40734,-0.88258 -0.14453,-1.48633 -1.03959,-1.13729 -2.14415,-2.22395 -3.31055,-3.25586 -0.8571,-0.74937 -1.73947,-1.46146 -2.64453,-2.13671 -0.70105,-0.52303 -1.22623,-0.52272 -1.56055,-0.0449 l -4.4707,6.38868 c -1.30778,0.2722 -2.57159,0.62129 -3.78516,1.0371 -0.0683,-1.18311 -0.17721,-2.31648 -0.30469,-3.38476 -0.1277,-1.07003 -0.30048,-2.13885 -0.51562,-3.20117 -0.22052,-1.04954 -0.49869,-2.11452 -0.83985,-3.19141 -0.35623,-1.08199 -0.82138,-2.23316 -1.41601,-3.43164 -0.11509,-0.27506 -0.28881,-0.51813 -0.52344,-0.72852 -0.25171,-0.21543 -0.52658,-0.36321 -0.82031,-0.44531 -3.26589,-0.91289 -6.65205,-1.44537 -10.09961,-1.57422 z m -6.74024,0.34375 c -0.14762,-0.0151 -0.31238,-0.0106 -0.49218,0.0137 -2.67056,0.36133 -5.28694,0.96744 -7.82032,1.80664 -0.78849,0.2612 -1.07189,0.67693 -0.87695,1.21289 l 3.08399,8.47851 c -1.05584,0.38391 -2.09136,0.82043 -3.10352,1.3086 -2.84262,-2.01203 -6.04595,-3.70757 -9.55273,-4.9961 -0.18686,-0.14662 -0.41302,-0.20921 -0.68164,-0.18359 -0.28327,0.0359 -0.54976,0.14603 -0.79883,0.32812 -0.29319,0.21435 -0.58464,0.4322 -0.87305,0.6543 -2.18724,1.69966 -4.18972,3.58683 -5.99023,5.63281 -0.21388,0.24303 -0.33698,0.46631 -0.3711,0.67188 -0.036,0.22787 0.0298,0.41013 0.19336,0.54687 0.1435,0.11993 0.37384,0.18547 0.69141,0.20313 0.31677,0.0176 0.58549,0.0448 0.80469,0.0762 3.88512,0.44899 7.56903,1.39574 10.93554,2.79102 -0.28322,0.77384 -0.43283,1.56873 -0.44922,2.37304 -0.0163,0.82298 0.10668,1.62056 0.34961,2.38867 0.25266,0.77769 0.62388,1.50568 1.09961,2.19336 0.47903,0.70543 1.06975,1.34725 1.75196,1.94532 1.00054,0.87711 2.07069,1.56326 3.14453,2.12304 1.07608,0.57366 2.10177,1.01471 3.02929,1.33789 0.93161,0.32459 1.75283,0.53031 2.46875,0.61914 -1e-5,-1e-5 0.0372,0.006 0.0371,0.006 0.71274,0.0828 1.27453,-0.001 1.76368,-0.29101 1.55934,-0.92481 3.36614,-1.56196 5.12695,-1.79492 0.11965,-0.0158 0.19876,-0.11161 0.24023,-0.29102 0.0429,-0.16504 0.051,-0.38809 0.0215,-0.66602 L 192.49023,154.875 c -0.0309,-0.29166 -0.15995,-0.49814 -0.39257,-0.61914 -0.11529,-0.0538 -0.24691,-0.0884 -0.39454,-0.10352 z m -3.93164,17.48828 2.50977,6.9004 c -0.53268,0.19394 -1.05616,0.41023 -1.57031,0.64843 -0.21634,0.10022 -0.41683,0.18333 -0.60547,0.24805 -0.18962,0.0809 -0.39238,0.16234 -0.60742,0.25 -0.27774,0.0752 -0.57247,0.0761 -0.89063,0.002 -0.31784,-0.0739 -0.64024,-0.20207 -0.9668,-0.38867 -0.32645,-0.18647 -0.64328,-0.41702 -0.94921,-0.69336 -0.30607,-0.27646 -0.57635,-0.5791 -0.80079,-0.91015 -0.23938,-0.3531 -0.43335,-0.72647 -0.57812,-1.12696 -0.1374,-0.38941 -0.21339,-0.77952 -0.22266,-1.16992 -0.002,-0.379 0.0687,-0.74597 0.2168,-1.09961 0.15489,-0.34214 0.39248,-0.63545 0.71094,-0.87109 0.15405,-0.11535 0.3008,-0.21344 0.43359,-0.29883 0.13314,-0.0844 0.28775,-0.17532 0.46875,-0.26563 0.92584,-0.46195 1.879,-0.87081 2.85156,-1.22461 z m -26.43554,1.82032 c -0.12119,-0.0161 -0.24137,-9.7e-4 -0.36133,0.0488 -0.22839,0.1066 -0.43963,0.31495 -0.62891,0.61914 -2.59409,4.16911 -4.47741,8.782 -5.54882,13.67773 -0.88199,4.14618 -1.15192,8.34757 -0.82422,12.49024 0.0524,0.66264 0.27909,1.00594 0.65625,1.0371 0.12093,0.12957 0.25023,0.18454 0.38281,0.16993 l 5.00976,-0.55079 c 0.61219,-0.0675 0.87345,-0.44031 0.81836,-1.11328 -0.28808,-3.51914 -0.066,-7.08533 0.68164,-10.58203 0.33233,-1.52621 0.7603,-3.02498 1.28125,-4.48437 l 4.80079,1.71679 c -0.44779,1.25311 -0.81497,2.53671 -1.09766,3.8418 -0.40758,1.89609 -0.63327,3.8254 -0.67969,5.75586 -0.007,0.2734 0.0788,0.48052 0.25195,0.62305 0.17275,0.14262 0.35449,0.21345 0.54102,0.21289 l 4.32031,-0.0137 c 0.27987,-8.4e-4 0.47925,-0.0715 0.59961,-0.20899 0.12063,-0.12714 0.18271,-0.28968 0.1875,-0.49023 0.0374,-1.56114 0.21774,-3.11711 0.54688,-4.63477 0.22526,-1.04923 0.52163,-2.08518 0.88476,-3.09961 l 4.65039,1.66406 c -0.29226,0.81462 -0.52985,1.64347 -0.70703,2.47852 -0.39725,1.81076 -0.52393,3.71278 -0.39453,5.60547 0.0134,0.19652 0.12575,0.33692 0.33399,0.41992 0.22164,0.0819 0.44628,0.1097 0.67187,0.0879 l 4.9375,-0.47656 c 0.29154,-0.0281 0.52367,-0.087 0.68945,-0.17188 0.16638,-0.0852 0.24323,-0.18907 0.23438,-0.31445 -0.0897,-1.26952 -0.009,-2.53618 0.2539,-3.69922 0.29575,-1.4401 0.91037,-2.90823 1.74219,-4.24414 0.0636,-0.10215 0.0411,-0.22912 -0.0664,-0.38281 -0.0988,-0.14076 -0.26473,-0.28925 -0.49805,-0.44336 l -23.30469,-15.39453 c -0.1224,-0.0808 -0.24404,-0.12847 -0.36523,-0.14453 z m 69.88476,2.03711 c -0.24153,-0.008 -0.43632,0.14615 -0.58984,0.45507 -0.64864,2.06403 -1.45266,4.02004 -2.39063,5.84961 -0.11646,0.24945 -0.15188,0.45373 -0.10351,0.6211 0.0481,0.16764 0.19242,0.33769 0.43164,0.51562 0.73715,0.44623 1.40331,1.04529 1.97266,1.79102 0.55675,0.75015 0.97735,1.61893 1.24414,2.58203 0.33161,1.19707 0.37556,2.36934 0.14843,3.45703 -0.067,0.32059 -0.15362,0.62835 -0.25781,0.92383 -0.25149,0.70731 -0.60715,1.33601 -1.05469,1.88281 -0.64864,0.77759 -1.4489,1.36383 -2.37695,1.77539 -0.94255,0.41272 -1.96364,0.6064 -3.05664,0.63867 -1.09142,0.0322 -2.12295,-0.0994 -3.09375,-0.34765 -0.97043,-0.24819 -1.83569,-0.58483 -2.5957,-0.98242 -0.53716,-0.28101 -1.01114,-0.59097 -1.42188,-0.92774 -0.171,-0.14109 -0.33025,-0.28695 -0.48047,-0.43945 -0.5101,-0.51798 -0.84463,-1.08573 -1.03125,-1.75586 -0.15024,-0.53946 -0.18777,-1.08239 -0.11328,-1.65625 0.0744,-0.57285 0.24675,-1.15821 0.51563,-1.76953 0.0672,-0.21069 0.0634,-0.36355 -0.008,-0.45313 -0.0872,-0.0926 -0.25601,-0.13514 -0.5039,-0.12695 -1.77664,0.002 -3.51692,0.16904 -5.19531,0.49609 -0.29048,0.0871 -0.51185,0.21454 -0.66407,0.37305 -0.15261,0.15885 -0.2558,0.32134 -0.3125,0.48633 -0.40203,0.96665 -0.68841,1.80063 -0.83789,2.54687 -0.16452,0.74863 -0.16421,1.3925 0.0137,2.01563 0.15156,0.53091 0.42473,0.99297 0.83985,1.44922 0.0156,0.0167 0.031,0.0341 0.0469,0.0508 0.43623,0.4677 0.992,0.94489 1.67188,1.45898 0.66423,0.51257 1.44586,1.05632 2.33789,1.63282 0.88853,0.56657 1.88255,1.16521 2.94922,1.7539 1.05645,0.58836 2.20179,1.16435 3.42969,1.67969 1.21591,0.51329 2.51113,0.94842 3.89257,1.23828 1.38455,0.29052 2.74922,0.41203 4.10352,0.30078 1.33913,-0.11361 2.63192,-0.43778 3.86133,-1.01953 1.21499,-0.58304 2.34708,-1.39515 3.35547,-2.45312 0.99559,-1.07457 1.83048,-2.36554 2.45507,-3.86133 0.62463,-1.49564 1.01041,-3.16716 1.11719,-4.97071 0.004,-0.0645 0.007,-0.12862 0.01,-0.19336 0.0697,-1.76201 -0.14244,-3.57491 -0.64844,-5.37304 -0.594,-2.11084 -1.52652,-3.98713 -2.7207,-5.56641 -1.2139,-1.59048 -2.63537,-2.86205 -4.18164,-3.79883 -0.26369,-0.17892 -0.51694,-0.27102 -0.75782,-0.27929 z m -47.77539,23.81054 c -0.0713,-0.001 -0.15205,0.007 -0.24414,0.0234 -0.0522,0.009 -0.1047,0.0199 -0.15625,0.0352 -0.0501,0.0211 -0.10825,0.0392 -0.17383,0.0508 -8.28528,3.00883 -15.88496,8.58143 -21.56836,16.40625 -0.17945,0.24758 -0.35757,0.49823 -0.5332,0.75 -0.16738,0.24973 -0.32472,0.49892 -0.47656,0.74609 -0.14313,0.26255 -0.27195,0.5368 -0.38086,0.82813 -0.15229,0.29506 -0.087,0.6908 0.20703,1.17187 1.16996,1.91409 2.47887,3.72434 3.91211,5.41797 0.17414,0.20577 0.38352,0.34651 0.625,0.41992 0.24151,0.0734 0.48552,0.10632 0.73047,0.0996 0.25492,-0.0157 0.50659,-0.0535 0.75586,-0.11719 0.24909,-0.0637 0.4712,-0.13069 0.66601,-0.19531 9.56138,-2.87257 17.68979,-8.33214 23.33008,-15.44531 l 0.0293,-0.0547 c 0.0244,-0.0323 0.0621,-0.0958 0.11328,-0.18945 0.0893,-0.1635 0.13435,-0.30537 0.13672,-0.42578 0.0138,-0.12977 -0.0336,-0.22605 -0.14453,-0.29102 -0.76096,-0.44581 -1.49533,-0.9785 -2.17383,-1.57617 -0.1751,-0.15424 -0.46161,-0.0768 -0.87109,0.23438 -1.22345,0.93704 -2.491,1.82343 -3.79493,2.66211 -1.28878,0.83506 -2.62325,1.61921 -4.0039,2.35156 -1.37426,0.73972 -2.79451,1.41702 -4.25781,2.02148 -1.44463,0.60482 -2.9461,1.1378 -4.50196,1.57813 2.6211,-3.69895 5.66012,-6.98439 9.04883,-9.76172 1.39899,-1.1473 2.85488,-2.21064 4.35937,-3.18555 0.42661,-0.28508 0.59784,-0.51723 0.51758,-0.70898 -0.34319,-0.81994 -0.60738,-1.70247 -0.78515,-2.60742 -0.0304,-0.15448 -0.15128,-0.23483 -0.36524,-0.23829 z m 24.94336,5.02539 c -0.15864,-0.0246 -0.26277,0.001 -0.31445,0.0781 -0.38967,0.57801 -0.8442,1.13527 -1.3457,1.66016 -0.0313,0.0328 -0.0452,0.0864 -0.043,0.16015 -0.007,0.0646 0.002,0.13964 0.0254,0.22852 0.0242,0.0891 0.0572,0.1804 0.0977,0.27148 0.0446,0.0868 0.0926,0.16147 0.14453,0.22266 5.41823,7.81702 8.38967,17.68237 8.05469,28.20898 -0.014,0.30127 0.10257,0.46845 0.35547,0.4961 0.26836,0.0197 0.55879,-0.0477 0.86524,-0.20118 2.378,-1.19144 4.63032,-2.59309 6.73632,-4.1875 0.54392,-0.41179 0.74909,-0.89312 0.61719,-1.41992 -0.16738,-0.73953 -0.34716,-1.46841 -0.53515,-2.18359 -0.18369,-0.73567 -0.38964,-1.45856 -0.61524,-2.16797 2.76122,-2.4588 5.17578,-5.31969 7.15039,-8.51172 0.28502,-0.4654 0.56011,-0.93484 0.82422,-1.41016 0.74292,0.062 1.49043,0.10703 2.24219,0.13672 0.73979,0.0243 1.49464,0.0298 2.26172,0.0117 0.29428,0.006 0.54033,-0.0637 0.74218,-0.20703 0.19727,-0.165 0.38548,-0.43605 0.55664,-0.81445 1.06821,-2.36163 1.91836,-4.8031 2.54493,-7.29688 0.11788,-0.46916 0.11829,-0.81893 0.006,-1.04492 -0.12608,-0.22979 -0.33612,-0.30116 -0.62696,-0.22266 -9.81925,2.51982 -19.73527,2.03518 -28.27929,-1.32226 -0.0359,-0.0132 -0.0716,-0.0258 -0.10743,-0.0391 -0.32727,-0.12122 -0.65166,-0.24692 -0.97461,-0.37696 -0.10811,-0.0286 -0.2352,-0.0511 -0.38281,-0.0684 z m -16.70117,4.98243 c -0.0596,0.0185 -0.12047,0.058 -0.18555,0.11718 -0.12457,0.12002 -0.24498,0.3018 -0.35351,0.54493 l -2.04492,4.58203 c -0.14149,0.31697 -0.2011,0.56696 -0.17383,0.7539 0.0401,0.17729 0.14776,0.30366 0.31836,0.37305 0.0428,0.0174 0.0861,0.0337 0.1289,0.0508 2.60885,1.05891 5.52909,1.54013 8.40821,1.42969 -2.67105,5.40333 -7.58259,10.30824 -14.33399,13.3125 -0.48088,0.21294 -0.96945,0.41575 -1.46679,0.60937 -0.15414,0.0778 -0.27673,0.21327 -0.36329,0.40821 l -1.74414,3.92968 c -0.12438,0.2801 -0.11585,0.54547 0.0312,0.79883 0.16343,0.26024 0.41586,0.46256 0.75391,0.60156 0.0685,0.0282 0.13637,0.0562 0.20508,0.084 9.48097,3.77814 19.87788,4.10852 29.58008,0.94141 0.31554,-0.10505 0.62914,-0.21431 0.9414,-0.32618 0.34348,-0.12305 0.58222,-0.32322 0.70899,-0.59961 0.1437,-0.28292 0.16994,-0.5313 0.0879,-0.74218 l -1.80469,-4.64063 c -0.11119,-0.28568 -0.28729,-0.45933 -0.52539,-0.52539 -0.23857,-0.0662 -0.49444,-0.0508 -0.76758,0.0469 -0.26159,0.0935 -0.52298,0.1858 -0.78711,0.27343 -4.72927,1.54926 -9.70107,2.09924 -14.5957,1.66211 5.35238,-4.71417 8.71789,-10.60312 9.73828,-16.39257 0.11573,-0.6512 0.20345,-1.30217 0.26367,-1.94922 -0.0158,-0.15068 -0.0406,-0.26864 -0.0742,-0.35547 -0.0264,-0.0895 -0.0592,-0.18578 -0.0977,-0.28516 l -1.46094,-3.76367 c -0.10581,-0.27295 -0.22181,-0.4646 -0.3457,-0.57422 -0.11921,-0.11208 -0.22734,-0.15271 -0.32422,-0.11914 -0.0851,0.0295 -0.17064,0.0587 -0.25586,0.0859 -2.83391,0.96574 -6.44032,0.84921 -9.20703,-0.29492 -0.0276,-0.0108 -0.0545,-0.0203 -0.082,-0.0312 -0.0548,-0.022 -0.11227,-0.0244 -0.17188,-0.006 z m 23.02539,1.80468 c 2.82825,1.34576 5.81256,2.4407 8.92188,3.25586 -1.12825,1.71745 -2.42149,3.31885 -3.85157,4.78125 -0.30899,-0.65658 -0.66411,-1.33684 -1.06836,-2.03711 -0.40538,-0.71833 -0.83764,-1.42542 -1.29101,-2.11914 -0.45412,-0.69485 -0.91413,-1.37058 -1.38672,-2.03125 -0.4642,-0.66628 -0.90928,-1.28382 -1.32422,-1.84961 z"
         transform="translate(-755.17964,622.06025)"
         id="path9509" />
      <path
         id="path9113"
         class="clipArtfoo"
         transform="translate(-755.17964,622.06025)"
         d="m 169.50195,104.66406 c -17.51371,0.12993 -32.12286,3.91203 -41.5625,7.09571 -11.89481,4.02669 -22.86092,9.51498 -31.958981,15.8164 -9.04279,6.26315 -20.287698,16.09197 -29.523438,31.42969 -5.95307,9.94975 -11.801318,23.53055 -14.355469,40.46289 -1.9737,13.08436 -0.299152,9.35338 -0.507812,10.18555 0.87858,-3.50385 1.168982,-6.76654 3.320312,-14.18946 1.790721,-6.17865 4.025369,-11.62468 5.480469,-13.79492 1.69326,-2.52545 1.087326,0.16476 -0.365234,8.61524 -3.14656,18.30552 -2.053696,38.73424 5.152344,58.43945 10.1722,27.6362 31.366706,50.62669 57.878909,62.73047 28.28671,12.87174 58.50481,11.73638 81.7832,2.89453 16.88867,-6.41811 29.63342,-16.50027 38.35352,-25.83984 9.03327,-9.67499 14.62361,-18.55862 17.75585,-24.82813 1.46689,-2.9361 1.28069,-2.92847 0.38672,-1.49414 -0.64555,1.03576 -4.25426,7.21065 -9.66992,13.74805 -12.12457,14.63593 -29.37133,26.23157 -49.0332,31.27343 -23.84782,6.15749 -50.63263,2.38904 -71.83984,-10.53906 -20.60878,-12.48302 -35.710558,-33.43474 -41.283208,-55.65234 -5.78842,-22.67273 -1.925055,-47.11047 8.421875,-65.81836 3.145603,-5.74683 6.936023,-11.09123 11.167973,-15.9375 5.63299,-6.4507 7.82736,-8.49365 6.48828,-9.00195 -1.12326,-0.42637 -4.93574,1.10318 -9.14063,3.47265 -7.133778,4.01991 -5.66315,3.84553 -11.271482,7.15625 -2.431541,1.43539 -4.024233,1.54152 -1.132813,-3.31836 6.717155,-11.29015 19.305595,-25.54103 38.779295,-34.91211 18.9724,-9.14268 42.89013,-12.60384 66.51367,-6.88867 12.99078,3.13813 25.01714,8.84808 35.48047,16.33399 -10.35008,-5.28979 -21.82636,-8.02782 -33.18359,-7.97852 -13.56068,0.0589 -26.83032,4.08651 -37.85156,11.23828 -15.82662,9.90785 -27.00532,26.25809 -30.61524,43.94727 -3.61527,17.71539 0.39417,36.48054 10.38281,50.80468 -8.78573,-15.12197 -10.90557,-33.57526 -6.17773,-49.77148 4.7349,-16.22039 16.24963,-30.00351 30.71875,-37.46875 10.31083,-5.08043 21.90856,-7.0386 32.91016,-5.77734 9.39844,1.07747 18.38599,4.49367 25.95312,9.6875 1.37342,0.73589 2.71747,1.53116 4.02539,2.38086 9.01083,5.85397 16.42482,14.43842 20.95508,24.47265 4.52812,10.02982 6.1678,21.52361 4.52344,32.67188 -1.64363,11.14335 -6.57939,21.94245 -14.1543,30.63281 -7.57155,8.68651 -17.78028,15.25242 -29.09766,18.54883 -11.31238,3.29495 -23.71511,3.31034 -35.26953,-0.0996 -11.54931,-3.40845 -22.21944,-10.236 -30.27343,-19.54102 7.34484,9.8676 17.65044,17.67963 29.4082,22.11328 11.75258,4.43169 24.90876,5.46676 37.45312,2.79688 12.53884,-2.6687 24.40272,-9.02648 33.70508,-18.22852 9.29826,-9.19798 15.98274,-21.18614 18.90235,-34.20703 2.91833,-13.01518 2.05652,-26.97921 -2.60352,-39.75976 -1.991,-5.46048 -4.67395,-10.68441 -7.94922,-15.53711 16.5481,21.3973 21.54079,44.98051 22.5957,61.78515 1.84484,29.3882 -0.25204,-22.43876 0.56641,-13.2832 -1.26138,-14.11034 -6.17937,-33.54337 -19.54297,-52.0332 -7.88317,-10.89437 -17.68827,-19.99104 -28.45703,-27.01953 -10.76359,-7.02513 -21.38558,-11.28187 -30.57031,-13.8086 -5.20223,-1.42715 -9.76785,-2.25423 -13.27539,-2.76172 -6.39961,-0.92594 -12.55858,-1.28745 -18.39649,-1.24414 z m 28.94141,49.14453 c -0.40208,-0.015 -0.60328,0.0802 -0.60742,0.2793 -0.003,0.13376 0.0925,0.31612 0.2832,0.54883 4.51561,5.366 7.14989,11.42271 8.05469,17.33398 -3.89946,2.97153 -6.80593,6.71458 -8.41016,10.76953 -0.0744,0.18232 -0.11207,0.34193 -0.11914,0.47461 -0.0107,0.19996 0.0502,0.30208 0.17969,0.31055 1.03193,0.0675 2.09374,0.2785 3.1289,0.60938 0.0926,0.0296 0.20904,-0.008 0.35547,-0.11329 0.13635,-0.094 0.27483,-0.23711 0.41407,-0.42773 1.24667,-1.53538 2.69527,-2.92352 4.30078,-4.13672 1.60455,-1.21253 3.42081,-2.28687 5.42968,-3.1582 l -6.24609,8.92773 c -0.15262,0.21814 -0.23493,0.42216 -0.25,0.60742 -0.0197,0.18248 0.002,0.29631 0.0684,0.34571 0.27472,0.20504 0.53657,0.41952 0.78516,0.64258 0.34823,0.30016 0.68395,0.63017 1.0039,0.98242 0.0782,0.0861 0.20333,0.0979 0.37891,0.0352 0.17131,-0.0668 0.34969,-0.17938 0.53125,-0.33593 l 21.1543,-18.24024 c 0.44201,-0.38111 0.40734,-0.88258 -0.14453,-1.48633 -1.03959,-1.13729 -2.14415,-2.22395 -3.31055,-3.25586 -0.8571,-0.74937 -1.73947,-1.46146 -2.64453,-2.13671 -0.70105,-0.52303 -1.22623,-0.52272 -1.56055,-0.0449 l -4.4707,6.38868 c -1.30778,0.2722 -2.57159,0.62129 -3.78516,1.0371 -0.0683,-1.18311 -0.17721,-2.31648 -0.30469,-3.38476 -0.1277,-1.07003 -0.30048,-2.13885 -0.51562,-3.20117 -0.22052,-1.04954 -0.49869,-2.11452 -0.83985,-3.19141 -0.35623,-1.08199 -0.82138,-2.23316 -1.41601,-3.43164 -0.11509,-0.27506 -0.28881,-0.51813 -0.52344,-0.72852 -0.25171,-0.21543 -0.52658,-0.36321 -0.82031,-0.44531 -3.26589,-0.91289 -6.65205,-1.44537 -10.09961,-1.57422 z m -6.74024,0.34375 c -0.14762,-0.0151 -0.31238,-0.0106 -0.49218,0.0137 -2.67056,0.36133 -5.28694,0.96744 -7.82032,1.80664 -0.78849,0.2612 -1.07189,0.67693 -0.87695,1.21289 l 3.08399,8.47851 c -1.05584,0.38391 -2.09136,0.82043 -3.10352,1.3086 -2.84262,-2.01203 -6.04595,-3.70757 -9.55273,-4.9961 -0.18686,-0.14662 -0.41302,-0.20921 -0.68164,-0.18359 -0.28327,0.0359 -0.54976,0.14603 -0.79883,0.32812 -0.29319,0.21435 -0.58464,0.4322 -0.87305,0.6543 -2.18724,1.69966 -4.18972,3.58683 -5.99023,5.63281 -0.21388,0.24303 -0.33698,0.46631 -0.3711,0.67188 -0.036,0.22787 0.0298,0.41013 0.19336,0.54687 0.1435,0.11993 0.37384,0.18547 0.69141,0.20313 0.31677,0.0176 0.58549,0.0448 0.80469,0.0762 3.88512,0.44899 7.56903,1.39574 10.93554,2.79102 -0.28322,0.77384 -0.43283,1.56873 -0.44922,2.37304 -0.0163,0.82298 0.10668,1.62056 0.34961,2.38867 0.25266,0.77769 0.62388,1.50568 1.09961,2.19336 0.47903,0.70543 1.06975,1.34725 1.75196,1.94532 1.00054,0.87711 2.07069,1.56326 3.14453,2.12304 1.07608,0.57366 2.10177,1.01471 3.02929,1.33789 0.93161,0.32459 1.75283,0.53031 2.46875,0.61914 -1e-5,-1e-5 0.0372,0.006 0.0371,0.006 0.71274,0.0828 1.27453,-0.001 1.76368,-0.29101 1.55934,-0.92481 3.36614,-1.56196 5.12695,-1.79492 0.11965,-0.0158 0.19876,-0.11161 0.24023,-0.29102 0.0429,-0.16504 0.051,-0.38809 0.0215,-0.66602 L 192.49023,154.875 c -0.0309,-0.29166 -0.15995,-0.49814 -0.39257,-0.61914 -0.11529,-0.0538 -0.24691,-0.0884 -0.39454,-0.10352 z m -3.93164,17.48828 2.50977,6.9004 c -0.53268,0.19394 -1.05616,0.41023 -1.57031,0.64843 -0.21634,0.10022 -0.41683,0.18333 -0.60547,0.24805 -0.18962,0.0809 -0.39238,0.16234 -0.60742,0.25 -0.27774,0.0752 -0.57247,0.0761 -0.89063,0.002 -0.31784,-0.0739 -0.64024,-0.20207 -0.9668,-0.38867 -0.32645,-0.18647 -0.64328,-0.41702 -0.94921,-0.69336 -0.30607,-0.27646 -0.57635,-0.5791 -0.80079,-0.91015 -0.23938,-0.3531 -0.43335,-0.72647 -0.57812,-1.12696 -0.1374,-0.38941 -0.21339,-0.77952 -0.22266,-1.16992 -0.002,-0.379 0.0687,-0.74597 0.2168,-1.09961 0.15489,-0.34214 0.39248,-0.63545 0.71094,-0.87109 0.15405,-0.11535 0.3008,-0.21344 0.43359,-0.29883 0.13314,-0.0844 0.28775,-0.17532 0.46875,-0.26563 0.92584,-0.46195 1.879,-0.87081 2.85156,-1.22461 z m -26.43554,1.82032 c -0.12119,-0.0161 -0.24137,-9.7e-4 -0.36133,0.0488 -0.22839,0.1066 -0.43963,0.31495 -0.62891,0.61914 -2.59409,4.16911 -4.47741,8.782 -5.54882,13.67773 -0.88199,4.14618 -1.15192,8.34757 -0.82422,12.49024 0.0524,0.66264 0.27909,1.00594 0.65625,1.0371 0.12093,0.12957 0.25023,0.18454 0.38281,0.16993 l 5.00976,-0.55079 c 0.61219,-0.0675 0.87345,-0.44031 0.81836,-1.11328 -0.28808,-3.51914 -0.066,-7.08533 0.68164,-10.58203 0.33233,-1.52621 0.7603,-3.02498 1.28125,-4.48437 l 4.80079,1.71679 c -0.44779,1.25311 -0.81497,2.53671 -1.09766,3.8418 -0.40758,1.89609 -0.63327,3.8254 -0.67969,5.75586 -0.007,0.2734 0.0788,0.48052 0.25195,0.62305 0.17275,0.14262 0.35449,0.21345 0.54102,0.21289 l 4.32031,-0.0137 c 0.27987,-8.4e-4 0.47925,-0.0715 0.59961,-0.20899 0.12063,-0.12714 0.18271,-0.28968 0.1875,-0.49023 0.0374,-1.56114 0.21774,-3.11711 0.54688,-4.63477 0.22526,-1.04923 0.52163,-2.08518 0.88476,-3.09961 l 4.65039,1.66406 c -0.29226,0.81462 -0.52985,1.64347 -0.70703,2.47852 -0.39725,1.81076 -0.52393,3.71278 -0.39453,5.60547 0.0134,0.19652 0.12575,0.33692 0.33399,0.41992 0.22164,0.0819 0.44628,0.1097 0.67187,0.0879 l 4.9375,-0.47656 c 0.29154,-0.0281 0.52367,-0.087 0.68945,-0.17188 0.16638,-0.0852 0.24323,-0.18907 0.23438,-0.31445 -0.0897,-1.26952 -0.009,-2.53618 0.2539,-3.69922 0.29575,-1.4401 0.91037,-2.90823 1.74219,-4.24414 0.0636,-0.10215 0.0411,-0.22912 -0.0664,-0.38281 -0.0988,-0.14076 -0.26473,-0.28925 -0.49805,-0.44336 l -23.30469,-15.39453 c -0.1224,-0.0808 -0.24404,-0.12847 -0.36523,-0.14453 z m 69.88476,2.03711 c -0.24153,-0.008 -0.43632,0.14615 -0.58984,0.45507 -0.64864,2.06403 -1.45266,4.02004 -2.39063,5.84961 -0.11646,0.24945 -0.15188,0.45373 -0.10351,0.6211 0.0481,0.16764 0.19242,0.33769 0.43164,0.51562 0.73715,0.44623 1.40331,1.04529 1.97266,1.79102 0.55675,0.75015 0.97735,1.61893 1.24414,2.58203 0.33161,1.19707 0.37556,2.36934 0.14843,3.45703 -0.067,0.32059 -0.15362,0.62835 -0.25781,0.92383 -0.25149,0.70731 -0.60715,1.33601 -1.05469,1.88281 -0.64864,0.77759 -1.4489,1.36383 -2.37695,1.77539 -0.94255,0.41272 -1.96364,0.6064 -3.05664,0.63867 -1.09142,0.0322 -2.12295,-0.0994 -3.09375,-0.34765 -0.97043,-0.24819 -1.83569,-0.58483 -2.5957,-0.98242 -0.53716,-0.28101 -1.01114,-0.59097 -1.42188,-0.92774 -0.171,-0.14109 -0.33025,-0.28695 -0.48047,-0.43945 -0.5101,-0.51798 -0.84463,-1.08573 -1.03125,-1.75586 -0.15024,-0.53946 -0.18777,-1.08239 -0.11328,-1.65625 0.0744,-0.57285 0.24675,-1.15821 0.51563,-1.76953 0.0672,-0.21069 0.0634,-0.36355 -0.008,-0.45313 -0.0872,-0.0926 -0.25601,-0.13514 -0.5039,-0.12695 -1.77664,0.002 -3.51692,0.16904 -5.19531,0.49609 -0.29048,0.0871 -0.51185,0.21454 -0.66407,0.37305 -0.15261,0.15885 -0.2558,0.32134 -0.3125,0.48633 -0.40203,0.96665 -0.68841,1.80063 -0.83789,2.54687 -0.16452,0.74863 -0.16421,1.3925 0.0137,2.01563 0.15156,0.53091 0.42473,0.99297 0.83985,1.44922 0.0156,0.0167 0.031,0.0341 0.0469,0.0508 0.43623,0.4677 0.992,0.94489 1.67188,1.45898 0.66423,0.51257 1.44586,1.05632 2.33789,1.63282 0.88853,0.56657 1.88255,1.16521 2.94922,1.7539 1.05645,0.58836 2.20179,1.16435 3.42969,1.67969 1.21591,0.51329 2.51113,0.94842 3.89257,1.23828 1.38455,0.29052 2.74922,0.41203 4.10352,0.30078 1.33913,-0.11361 2.63192,-0.43778 3.86133,-1.01953 1.21499,-0.58304 2.34708,-1.39515 3.35547,-2.45312 0.99559,-1.07457 1.83048,-2.36554 2.45507,-3.86133 0.62463,-1.49564 1.01041,-3.16716 1.11719,-4.97071 0.004,-0.0645 0.007,-0.12862 0.01,-0.19336 0.0697,-1.76201 -0.14244,-3.57491 -0.64844,-5.37304 -0.594,-2.11084 -1.52652,-3.98713 -2.7207,-5.56641 -1.2139,-1.59048 -2.63537,-2.86205 -4.18164,-3.79883 -0.26369,-0.17892 -0.51694,-0.27102 -0.75782,-0.27929 z m -47.77539,23.81054 c -0.0713,-0.001 -0.15205,0.007 -0.24414,0.0234 -0.0522,0.009 -0.1047,0.0199 -0.15625,0.0352 -0.0501,0.0211 -0.10825,0.0392 -0.17383,0.0508 -8.28528,3.00883 -15.88496,8.58143 -21.56836,16.40625 -0.17945,0.24758 -0.35757,0.49823 -0.5332,0.75 -0.16738,0.24973 -0.32472,0.49892 -0.47656,0.74609 -0.14313,0.26255 -0.27195,0.5368 -0.38086,0.82813 -0.15229,0.29506 -0.087,0.6908 0.20703,1.17187 1.16996,1.91409 2.47887,3.72434 3.91211,5.41797 0.17414,0.20577 0.38352,0.34651 0.625,0.41992 0.24151,0.0734 0.48552,0.10632 0.73047,0.0996 0.25492,-0.0157 0.50659,-0.0535 0.75586,-0.11719 0.24909,-0.0637 0.4712,-0.13069 0.66601,-0.19531 9.56138,-2.87257 17.68979,-8.33214 23.33008,-15.44531 l 0.0293,-0.0547 c 0.0244,-0.0323 0.0621,-0.0958 0.11328,-0.18945 0.0893,-0.1635 0.13435,-0.30537 0.13672,-0.42578 0.0138,-0.12977 -0.0336,-0.22605 -0.14453,-0.29102 -0.76096,-0.44581 -1.49533,-0.9785 -2.17383,-1.57617 -0.1751,-0.15424 -0.46161,-0.0768 -0.87109,0.23438 -1.22345,0.93704 -2.491,1.82343 -3.79493,2.66211 -1.28878,0.83506 -2.62325,1.61921 -4.0039,2.35156 -1.37426,0.73972 -2.79451,1.41702 -4.25781,2.02148 -1.44463,0.60482 -2.9461,1.1378 -4.50196,1.57813 2.6211,-3.69895 5.66012,-6.98439 9.04883,-9.76172 1.39899,-1.1473 2.85488,-2.21064 4.35937,-3.18555 0.42661,-0.28508 0.59784,-0.51723 0.51758,-0.70898 -0.34319,-0.81994 -0.60738,-1.70247 -0.78515,-2.60742 -0.0304,-0.15448 -0.15128,-0.23483 -0.36524,-0.23829 z m 24.94336,5.02539 c -0.15864,-0.0246 -0.26277,0.001 -0.31445,0.0781 -0.38967,0.57801 -0.8442,1.13527 -1.3457,1.66016 -0.0313,0.0328 -0.0452,0.0864 -0.043,0.16015 -0.007,0.0646 0.002,0.13964 0.0254,0.22852 0.0242,0.0891 0.0572,0.1804 0.0977,0.27148 0.0446,0.0868 0.0926,0.16147 0.14453,0.22266 5.41823,7.81702 8.38967,17.68237 8.05469,28.20898 -0.014,0.30127 0.10257,0.46845 0.35547,0.4961 0.26836,0.0197 0.55879,-0.0477 0.86524,-0.20118 2.378,-1.19144 4.63032,-2.59309 6.73632,-4.1875 0.54392,-0.41179 0.74909,-0.89312 0.61719,-1.41992 -0.16738,-0.73953 -0.34716,-1.46841 -0.53515,-2.18359 -0.18369,-0.73567 -0.38964,-1.45856 -0.61524,-2.16797 2.76122,-2.4588 5.17578,-5.31969 7.15039,-8.51172 0.28502,-0.4654 0.56011,-0.93484 0.82422,-1.41016 0.74292,0.062 1.49043,0.10703 2.24219,0.13672 0.73979,0.0243 1.49464,0.0298 2.26172,0.0117 0.29428,0.006 0.54033,-0.0637 0.74218,-0.20703 0.19727,-0.165 0.38548,-0.43605 0.55664,-0.81445 1.06821,-2.36163 1.91836,-4.8031 2.54493,-7.29688 0.11788,-0.46916 0.11829,-0.81893 0.006,-1.04492 -0.12608,-0.22979 -0.33612,-0.30116 -0.62696,-0.22266 -9.81925,2.51982 -19.73527,2.03518 -28.27929,-1.32226 -0.0359,-0.0132 -0.0716,-0.0258 -0.10743,-0.0391 -0.32727,-0.12122 -0.65166,-0.24692 -0.97461,-0.37696 -0.10811,-0.0286 -0.2352,-0.0511 -0.38281,-0.0684 z m -16.70117,4.98243 c -0.0596,0.0185 -0.12047,0.058 -0.18555,0.11718 -0.12457,0.12002 -0.24498,0.3018 -0.35351,0.54493 l -2.04492,4.58203 c -0.14149,0.31697 -0.2011,0.56696 -0.17383,0.7539 0.0401,0.17729 0.14776,0.30366 0.31836,0.37305 0.0428,0.0174 0.0861,0.0337 0.1289,0.0508 2.60885,1.05891 5.52909,1.54013 8.40821,1.42969 -2.67105,5.40333 -7.58259,10.30824 -14.33399,13.3125 -0.48088,0.21294 -0.96945,0.41575 -1.46679,0.60937 -0.15414,0.0778 -0.27673,0.21327 -0.36329,0.40821 l -1.74414,3.92968 c -0.12438,0.2801 -0.11585,0.54547 0.0312,0.79883 0.16343,0.26024 0.41586,0.46256 0.75391,0.60156 0.0685,0.0282 0.13637,0.0562 0.20508,0.084 9.48097,3.77814 19.87788,4.10852 29.58008,0.94141 0.31554,-0.10505 0.62914,-0.21431 0.9414,-0.32618 0.34348,-0.12305 0.58222,-0.32322 0.70899,-0.59961 0.1437,-0.28292 0.16994,-0.5313 0.0879,-0.74218 l -1.80469,-4.64063 c -0.11119,-0.28568 -0.28729,-0.45933 -0.52539,-0.52539 -0.23857,-0.0662 -0.49444,-0.0508 -0.76758,0.0469 -0.26159,0.0935 -0.52298,0.1858 -0.78711,0.27343 -4.72927,1.54926 -9.70107,2.09924 -14.5957,1.66211 5.35238,-4.71417 8.71789,-10.60312 9.73828,-16.39257 0.11573,-0.6512 0.20345,-1.30217 0.26367,-1.94922 -0.0158,-0.15068 -0.0406,-0.26864 -0.0742,-0.35547 -0.0264,-0.0895 -0.0592,-0.18578 -0.0977,-0.28516 l -1.46094,-3.76367 c -0.10581,-0.27295 -0.22181,-0.4646 -0.3457,-0.57422 -0.11921,-0.11208 -0.22734,-0.15271 -0.32422,-0.11914 -0.0851,0.0295 -0.17064,0.0587 -0.25586,0.0859 -2.83391,0.96574 -6.44032,0.84921 -9.20703,-0.29492 -0.0276,-0.0108 -0.0545,-0.0203 -0.082,-0.0312 -0.0548,-0.022 -0.11227,-0.0244 -0.17188,-0.006 z m 23.02539,1.80468 c 2.82825,1.34576 5.81256,2.4407 8.92188,3.25586 -1.12825,1.71745 -2.42149,3.31885 -3.85157,4.78125 -0.30899,-0.65658 -0.66411,-1.33684 -1.06836,-2.03711 -0.40538,-0.71833 -0.83764,-1.42542 -1.29101,-2.11914 -0.45412,-0.69485 -0.91413,-1.37058 -1.38672,-2.03125 -0.4642,-0.66628 -0.90928,-1.28382 -1.32422,-1.84961 z"
         style="fill:url(#radialGradient9505);fill-opacity:1;fill-rule:evenodd;stroke:#000000;stroke-width:1;stroke-linecap:round;stroke-linejoin:round;stroke-miterlimit:4.5;stroke-dasharray:none;stroke-opacity:1" />
    </g>
  </g>
</svg>
