<?xml version="1.0" encoding="UTF-8" standalone="no"?>
<svg
   xmlns:osb="http://www.openswatchbook.org/uri/2009/osb"
   xmlns:dc="http://purl.org/dc/elements/1.1/"
   xmlns:cc="http://creativecommons.org/ns#"
   xmlns:rdf="http://www.w3.org/1999/02/22-rdf-syntax-ns#"
   xmlns:svg="http://www.w3.org/2000/svg"
   xmlns="http://www.w3.org/2000/svg"
   xmlns:xlink="http://www.w3.org/1999/xlink"
   version="1.1"
   id="svg2"
   viewBox="0 0 44.000001 46.000001"
   height="46"
   width="44">
  <defs
     id="defs4">
    <linearGradient
       osb:paint="solid"
       id="linearGradient5614">
      <stop
         id="stop5616"
         offset="0"
         style="stop-color:#cccc00;stop-opacity:1;" />
    </linearGradient>
    <linearGradient
       gradientTransform="translate(-2,1.6211928)"
       gradientUnits="userSpaceOnUse"
       y2="1027.7397"
       x2="44.946712"
       y1="1027.7397"
       x1="3.2880707"
       id="linearGradient5618"
       xlink:href="#linearGradient5614" />
  </defs>
  <metadata
     id="metadata7">
    <rdf:RDF>
      <cc:Work
         rdf:about="">
        <dc:format>image/svg+xml</dc:format>
        <dc:type
           rdf:resource="http://purl.org/dc/dcmitype/StillImage" />
        <dc:title></dc:title>
      </cc:Work>
    </rdf:RDF>
  </metadata>
  <g
     transform="translate(0,-1006.3622)"
     id="layer1">
    <g
       id="g5624">
      <path
         id="path4140"
         d="m 42.446712,1029.361 a 20.329321,21.086935 0 0 1 -20.32932,21.0869 20.329321,21.086935 0 0 1 -20.3293213,-21.0869 20.329321,21.086935 0 0 1 20.3293213,-21.087 20.329321,21.086935 0 0 1 20.32932,21.087 z"
         style="opacity:1;fill:url(#linearGradient5618);fill-opacity:1;fill-rule:nonzero;stroke:#000000;stroke-width:2.0999999;stroke-linejoin:round;stroke-miterlimit:4;stroke-dasharray:none;stroke-opacity:0.91715973" />
      <g
         id="text5620"
         style="font-style:normal;font-variant:normal;font-weight:normal;font-stretch:normal;font-size:62.4149971px;line-height:125%;font-family:'Myriad Pro';-inkscape-font-specification:'Myriad Pro, Normal';text-align:start;letter-spacing:0px;word-spacing:0px;writing-mode:lr-tb;text-anchor:start;fill:#993300;fill-opacity:1;stroke:none;stroke-width:1px;stroke-linecap:butt;stroke-linejoin:miter;stroke-opacity:1"
         transform="scale(1.040253,0.96130461)">
        <path
           id="path5631"
           style=""
           d="m 28.833814,1080.459 c -1.560375,0.6866 -3.62007,1.498 -6.740819,1.498 -5.99184,0 -10.48572,-4.3066 -10.48572,-11.2971 0,-6.3039 3.7449,-11.422 10.672965,-11.422 2.995919,0 5.055614,0.6866 6.366329,1.4356 l 1.2483,-4.2442 c -1.49796,-0.749 -4.36905,-1.5604 -7.614629,-1.5604 -9.86157,0 -16.2278997,6.7408 -16.2278997,16.0406 0,9.2375 5.9294247,15.4166 15.0420147,15.4166 4.056974,0 7.240139,-0.9987 8.675684,-1.7477 l -0.936225,-4.1194 z" />
      </g>
    </g>
  </g>
</svg>
