<?xml version="1.0" encoding="UTF-8" standalone="no"?>
<svg
   xmlns:dc="http://purl.org/dc/elements/1.1/"
   xmlns:cc="http://creativecommons.org/ns#"
   xmlns:rdf="http://www.w3.org/1999/02/22-rdf-syntax-ns#"
   xmlns:svg="http://www.w3.org/2000/svg"
   xmlns="http://www.w3.org/2000/svg"
   version="1.1"
   id="svg2"
   viewBox="0 0 300 300"
   height="300"
   width="300">
  <defs
     id="defs4" />
  <metadata
     id="metadata7">
    <rdf:RDF>
      <cc:Work
         rdf:about="">
        <dc:format>image/svg+xml</dc:format>
        <dc:type
           rdf:resource="http://purl.org/dc/dcmitype/StillImage" />
        <dc:title></dc:title>
      </cc:Work>
    </rdf:RDF>
  </metadata>
  <g
     transform="translate(0,-752.36216)"
     id="layer1">
    <g
       transform="matrix(0.51428571,0,0,0.51428572,-52.69387,638.94326)"
       id="g4151">
      <path
         id="xpath4175"
         d="m 138.57143,506.64789 0,-250 250,0 250,0 0,250 0,250 -250,0 -250,0 0,-250 z"
         style="fill:#fcfcfc" />
      <path
         id="xpath4173"
         d="m 318.07143,700.6747 c -45.18281,-25.5275 -67.40301,-38.61466 -68.23764,-40.19032 -0.6807,-1.28507 -2.58807,-13.81149 -4.2386,-27.83649 -1.65052,-14.025 -5.25956,-44.175 -8.02007,-67 -2.76052,-22.825 -7.03024,-58.375 -9.48826,-79 -2.45803,-20.625 -4.67504,-38.64619 -4.9267,-40.0471 -0.25166,-1.4009 -0.13132,-3.07497 0.26743,-3.72016 0.75994,-1.22961 165.09931,-59.23274 167.82321,-59.23274 1.38614,0 150.09332,50.88556 162.82063,55.71499 l 5,1.89727 -0.21847,4.94387 c -0.12015,2.71913 -4.29773,38.69387 -9.2835,79.94387 -4.98577,41.25 -10.63868,88.05 -12.56202,104 -2.76451,22.92567 -3.85715,29.34756 -5.2165,30.65933 -2.90817,2.80638 -142.46755,77.84456 -144.66059,77.78099 -1.13241,-0.0328 -32.20892,-17.0939 -69.05892,-37.91351 z m 3.22133,-60.27681 c 0.53142,-0.6875 5.15682,-11.825 10.27867,-24.75 5.12185,-12.925 9.74008,-24.05386 10.26273,-24.73079 0.68794,-0.89102 6.8749,-1.30512 22.41103,-1.5 l 21.46074,-0.26921 0.002,-13 0.002,-13 -14.02307,-0.5 c -8.8856,-0.31682 -14.45784,-0.93619 -15.20977,-1.69061 -0.91619,-0.91922 2.37851,-9.64092 14.45392,-38.26227 l 15.64042,-37.07165 0,-30.98774 c 0,-17.04325 -0.382,-30.98773 -0.84889,-30.98773 -0.46689,0 -7.28758,14.2875 -15.15709,31.75 -13.8122,30.64939 -51.8865,115.08729 -70.00453,155.25 -4.83821,10.725 -9.94035,22.0875 -11.33809,25.25 l -2.54134,5.75 16.82252,0 c 12.27604,0 17.08366,-0.33783 17.78875,-1.25 z M 274.21398,358.67965 c -6.5527,-2.10118 -9.64255,-7.35811 -9.64255,-16.40538 0,-5.57532 0.37487,-6.91844 2.70331,-9.68563 3.70662,-4.40507 8.30708,-6.12371 18.29669,-6.83528 8.20952,-0.58478 8.5,-0.6899 8.5,-3.07594 0,-4.83057 -6.75353,-5.91099 -15.2745,-2.44359 -1.80098,0.73287 -3.88209,1.09933 -4.62469,0.81437 -1.77607,-0.68154 -4.89021,-7.65907 -4.44653,-9.96288 0.56108,-2.9135 9.08142,-5.34809 18.88383,-5.39584 10.08284,-0.0491 16.03028,2.32871 19.72357,7.8856 2.2106,3.32605 2.26986,4.0343 2.00807,24 l -0.26975,20.57281 -4.94826,0.31289 c -4.154,0.26266 -5.2173,-0.0438 -6.62438,-1.9092 l -1.67613,-2.22208 -3.68808,2.27936 c -4.11294,2.54194 -14.05715,3.6303 -18.9206,2.07079 z m 17.9029,-14.4863 c 1.53144,-1.53144 2.45455,-3.59989 2.45455,-5.5 0,-2.72435 -0.31971,-3.04546 -3.03212,-3.04546 -4.35917,0 -9.66808,2.48006 -10.42692,4.87094 -1.86043,5.8617 6.14441,8.5346 11.00449,3.67452 z m 31.69479,13.34442 c -7.55153,-3.73794 -11.24024,-11.86536 -11.24024,-24.7659 0,-13.10079 3.62901,-21.36358 11.04438,-25.14662 4.66987,-2.38239 12.53989,-2.59573 17.60986,-0.47736 1.97451,0.825 3.74483,1.5 3.93405,1.5 0.18923,0 0.47177,-4.8375 0.62788,-10.75 l 0.28383,-10.75 5.44655,-0.30908 c 2.99561,-0.16999 6.48885,-0.0475 7.76277,0.27226 l 2.31622,0.58133 -0.26277,35.22775 -0.26277,35.22774 -5.66022,0.29722 c -4.94453,0.25965 -5.8626,0.008 -7.26087,-1.98802 -1.35602,-1.93599 -1.86645,-2.09297 -3.33978,-1.02712 -6.42553,4.6484 -14.2746,5.43626 -20.99889,2.1078 z m 19.2338,-13.8612 c 3.90385,-4.3137 3.79203,-18.20705 -0.17849,-22.17758 -2.97275,-2.97274 -8.1265,-2.74895 -10.89812,0.47324 -4.21045,4.89495 -4.36641,15.90279 -0.29857,21.07421 2.59926,3.30442 8.65157,3.63969 11.37518,0.63013 z m 38.46475,14.67073 c -6.26417,-1.77762 -10.43076,-4.979 -13.68493,-10.51476 -2.53286,-4.3087 -2.75386,-5.52729 -2.75386,-15.18465 0,-8.85474 0.3382,-11.12677 2.15842,-14.5 4.72317,-8.75303 11.37638,-12.5 22.19527,-12.5 14.58135,0 23.14631,8.54005 23.14631,23.07901 0,5.74955 -0.31088,7.017 -1.93426,7.88581 -1.06384,0.56935 -8.03884,1.03518 -15.5,1.03518 -15.19483,0 -16.1654,0.55419 -10.64266,6.07692 2.43828,2.43829 3.73872,2.92308 7.84107,2.92308 2.70489,0 7.12701,-0.67013 9.82692,-1.48918 7.41668,-2.24992 7.40893,-2.25467 7.40893,4.54021 0,6.04627 -0.003,6.05226 -3.75,7.62239 -4.99967,2.09502 -18.53162,2.6661 -24.31121,1.02599 z m 15.06121,-34.62683 c 0,-2.29702 -4.47689,-6.07258 -7.2006,-6.07258 -4.02187,0 -8.7877,4.59188 -7.28663,7.02067 0.3329,0.53863 3.72871,0.97933 7.54625,0.97933 6.18719,0 6.94098,-0.20932 6.94098,-1.92742 z m 133.5,34.94524 c -9.55642,-2.13594 -10.84111,-5.11668 -11.32135,-26.26782 l -0.38031,-16.75 -2.36399,0 c -2.50772,0 -4.7552,-2.89658 -3.61457,-4.65852 0.37412,-0.57792 1.98831,-1.72824 3.58709,-2.55626 1.8932,-0.98051 3.46243,-2.99991 4.5,-5.79096 3.00829,-8.09219 8.09313,-7.72748 8.09313,0.58047 l 0,4.32983 6.14602,0.29772 c 6.83846,0.33126 9.32488,2.23522 7.24489,5.54772 -0.81236,1.29373 -2.70128,1.82762 -7.24489,2.04772 l -6.14602,0.29772 0,15.79729 c 0,17.82781 0.48527,19.10727 7.24695,19.10727 1.97421,0 4.30128,0.27315 5.17126,0.60699 1.88409,0.72299 2.1014,4.73921 0.33179,6.1318 -1.7714,1.394 -7.71322,2.06953 -11.25,1.27903 z M 185.03866,357.4231 c -0.27711,-0.72214 -0.3831,-12.32949 -0.23553,-25.7941 l 0.2683,-24.48111 5.68908,-0.29809 c 4.83163,-0.25315 5.84946,0.002 6.75319,1.69022 1.04886,1.95982 1.12492,1.95352 5.31092,-0.43987 7.0151,-4.01097 20.6769,-2.79111 24.43098,2.18143 1.04963,1.39031 1.59749,1.25326 4.82214,-1.2063 6.52855,-4.97957 18.89695,-4.64626 24.95467,0.67249 4.80624,4.21994 5.73342,9.57307 5.352,30.90012 l -0.31298,17.5 -7.5,0 -7.5,0 -0.5,-17 c -0.51506,-17.51203 -1.2457,-20.80843 -4.86686,-21.95774 -2.66247,-0.84504 -6.7873,0.96892 -8.32234,3.65987 -0.86835,1.52224 -1.47957,7.86736 -1.8108,18.79787 l -0.5,16.5 -7.5,0 -7.5,0 -0.5,-17 c -0.51506,-17.51203 -1.2457,-20.80843 -4.86686,-21.95774 -2.66509,-0.84587 -6.79031,0.97076 -8.31085,3.65987 -0.85144,1.5058 -1.47562,7.98537 -1.8108,18.79787 l -0.51149,16.5 -7.26446,0.2941 c -5.29254,0.21427 -7.40123,-0.0623 -7.76831,-1.01889 z m 248.19804,-1.02521 c -2.08338,-3.39476 -13.05586,-45.28976 -12.34604,-47.13952 0.96278,-2.50896 6.34806,-2.07905 8.0109,0.63952 0.75693,1.2375 3.08992,9 5.18441,17.25 2.0945,8.25 3.96056,15.1875 4.14682,15.41667 0.70307,0.86505 1.38184,-0.90785 6.23233,-16.27831 2.73911,-8.67981 5.51367,-16.42427 6.1657,-17.20992 0.65202,-0.78564 2.69503,-1.42844 4.54,-1.42844 3.42392,0 5.52989,2.0341 6.72967,6.5 3.10935,11.57384 9.01086,28.55655 9.68466,27.86945 0.46895,-0.4782 2.48662,-7.39445 4.48372,-15.36945 1.9971,-7.975 4.28754,-15.5125 5.08987,-16.75 1.73115,-2.67008 7.13324,-3.14181 8.06849,-0.70457 0.63401,1.65218 -11.28446,46.10624 -12.924,48.20457 -0.53718,0.6875 -2.66649,1.25 -4.7318,1.25 -2.06531,0 -4.21812,-0.5625 -4.78402,-1.25 -0.56591,-0.6875 -3.3092,-8.6257 -6.09622,-17.64044 -2.78702,-9.01475 -5.29352,-16.61665 -5.57,-16.89313 -0.27647,-0.27648 -0.70883,0.12422 -0.96079,0.89044 -0.25195,0.76622 -2.78471,8.59313 -5.62834,17.39313 -2.84364,8.8 -5.68558,16.33061 -6.31544,16.73469 -2.53832,1.62843 -7.58105,0.7947 -8.97992,-1.48469 z m 64.53473,1.05 c -1.70339,-1.70339 -1.70339,-46.89661 0,-48.6 1.5425,-1.5425 5.0575,-1.5425 6.6,0 0.86407,0.86407 1.2,7.66667 1.2,24.3 0,24.25266 -0.22012,25.5 -4.5,25.5 -1.155,0 -2.64,-0.54 -3.3,-1.2 z m 52.90898,-0.16868 c -0.81037,-0.97644 -1.0604,-11.0785 -0.87244,-35.25 l 0.26346,-33.88132 4,0 4,0 0.28174,11.75 c 0.15495,6.4625 0.46673,11.75 0.69284,11.75 0.2261,0 2.12432,-1.0125 4.21826,-2.25 2.89697,-1.71209 5.36113,-2.25 10.30716,-2.25 10.41713,0 16.54709,4.80794 18.08956,14.18828 1.17214,7.12824 1.08047,33.1255 -0.12474,35.37746 -1.17324,2.19222 -5.86335,2.63573 -7.76482,0.73426 -0.84276,-0.84276 -1.2,-6.45892 -1.2,-18.86514 0,-16.1626 -0.17045,-17.88184 -2.00397,-20.21277 -4.31162,-5.48134 -15.67801,-4.1498 -19.4449,2.27791 -1.78845,3.05177 -2.09462,5.54906 -2.39075,19.5 -0.19095,8.996 -0.79174,16.54719 -1.37244,17.25 -1.37298,1.66168 -5.25869,1.59263 -6.67896,-0.11868 z m -53.10898,-57.63132 c -1.1,-1.1 -2,-2.9 -2,-4 0,-2.34876 3.34697,-6 5.5,-6 2.15303,0 5.5,3.65124 5.5,6 0,2.34876 -3.34697,6 -5.5,6 -0.825,0 -2.4,-0.9 -3.5,-2 z"
         style="fill:#cecece" />
      <path
         id="xpath4171"
         d="m 318.3477,698.87114 c -36.69805,-20.74779 -66.94788,-38.39825 -67.22183,-39.22325 -0.27396,-0.825 -2.28645,-16.35 -4.4722,-34.5 -5.6673,-47.05993 -14.65182,-121.35248 -18.56343,-153.5 -1.84036,-15.125 -3.04747,-27.76469 -2.68246,-28.08819 0.36501,-0.32351 3.36365,-1.53611 6.66365,-2.69468 108.27711,-38.01403 157.90405,-55.21713 159.28857,-55.21713 2.0755,0 164.36582,55.82338 165.51593,56.9329 0.44248,0.42686 -1.04014,16.02908 -3.2947,34.6716 -2.25457,18.64253 -6.32078,52.3455 -9.03604,74.8955 -11.46151,95.18719 -12.94905,106.87263 -13.69265,107.56352 -2.33033,2.16514 -141.08522,76.38425 -143.22818,76.61185 -1.81602,0.19286 -21.81295,-10.61781 -69.27666,-37.45212 z m 2.87774,-56.98856 c 0.6347,-0.40408 5.20302,-10.85969 10.15181,-23.23469 4.94879,-12.375 9.56045,-23.72923 10.24813,-25.23161 l 1.25033,-2.73162 22.59786,-0.26838 22.59786,-0.26839 0,-14 0,-14 -14.64926,-0.27616 c -10.42786,-0.19657 -14.95663,-0.64651 -15.7159,-1.56137 -0.79095,-0.95303 2.69196,-10.18652 13.47516,-35.72384 7.99799,-18.94125 15.18264,-35.14906 15.9659,-36.01737 1.17291,-1.30028 1.4214,-7.47375 1.40879,-35 -0.0136,-29.7494 -0.54685,-38.11357 -2.24899,-35.27802 -0.28287,0.47122 -18.05851,39.78176 -39.50143,87.35676 -58.49694,129.78609 -61.23427,135.88642 -61.23427,136.46494 0,0.82471 34.34532,0.60291 35.65401,-0.23025 z m -48.53252,-284.9446 c -5.10745,-2.51611 -7.11334,-6.59211 -7.11775,-14.46336 -0.003,-5.71416 0.36636,-7.11312 2.57131,-9.73355 3.11338,-3.70004 10.38907,-6.09318 18.52466,-6.09318 7.22642,0 8.90029,-0.64922 8.90029,-3.452 0,-5.54698 -6.9116,-7.31769 -16.05993,-4.11446 -4.27186,1.49576 -4.50685,1.47432 -6.20275,-0.56589 -6.35414,-7.64416 -0.72315,-11.87388 15.76268,-11.84011 9.68408,0.0198 15.49308,2.2724 18.4756,7.16432 1.84688,3.02923 2.01724,5.01543 2.02066,23.55814 l 0.004,20.25 -4.83948,0 c -4.1917,0 -4.99196,-0.33464 -5.97857,-2.5 -1.37668,-3.0215 -2.30882,-3.12227 -4.67687,-0.50561 -3.65271,4.03619 -15.31011,5.28771 -21.38359,2.2957 z m 20.01973,-12.27747 c 2.32009,-2.32008 2.91717,-3.71615 2.67308,-6.25 -0.27429,-2.84732 -0.71508,-3.30154 -3.46288,-3.56841 -4.34551,-0.42205 -10.11642,2.19591 -11.49103,5.21287 -0.92575,2.03178 -0.82635,2.99592 0.52081,5.05196 2.44035,3.72444 7.79232,3.52128 11.76002,-0.44642 z m 32.85929,12.86393 c -7.14635,-2.84964 -11.17561,-10.27286 -11.80498,-21.74863 -0.79287,-14.45715 2.75579,-23.46579 10.90325,-27.679 4.11286,-2.12685 12.69368,-1.84401 17.19144,0.56664 4.61971,2.47602 4.59738,2.5235 4.94397,-10.51556 l 0.26581,-10 6.5,0 6.5,0 0,34.5 0,34.5 -5.10406,0.2972 c -4.574,0.26633 -5.28383,0.0228 -6.83497,-2.34449 l -1.7309,-2.64169 -2.16504,2.02788 c -4.24399,3.97514 -12.81517,5.3701 -18.66452,3.03765 z m 17.94977,-13.32363 c 2.82438,-3.00641 3.94063,-8.60834 3.06906,-15.40216 -1.7906,-13.95767 -16.46732,-13.68319 -18.57132,0.34732 -1.47213,9.81683 2.68464,17.50192 9.46656,17.50192 2.67139,0 4.39224,-0.69769 6.0357,-2.44708 z m 37.65875,13.2747 c -2.26656,-0.63668 -5.88061,-3.02062 -8.65681,-5.7103 -5.8588,-5.67621 -7.34377,-10.44319 -6.73406,-21.61732 0.86697,-15.88878 8.40753,-23.5 23.28184,-23.5 14.63931,0 22.43021,7.67477 22.47804,22.14301 0.017,5.14903 -0.33378,6.77952 -1.55983,7.25 -0.86998,0.33385 -7.84498,0.60699 -15.5,0.60699 l -13.91821,0 0,2.39641 c 0,1.49123 1.33516,3.56869 3.5348,5.5 2.90504,2.55066 4.39107,3.10359 8.34107,3.10359 2.64345,0 7.01529,-0.67013 9.7152,-1.48918 2.69991,-0.81904 5.24643,-1.49404 5.65893,-1.5 0.4125,-0.006 0.75,2.42016 0.75,5.39136 0,5.18435 -0.13104,5.45008 -3.25,6.59037 -4.49291,1.64262 -19.42703,2.15921 -24.14097,0.83507 z m 16.0815,-32.46354 c 0.76555,-1.99499 -0.49376,-4.12802 -3.96891,-6.7226 -2.11352,-1.57797 -3.24541,-1.78058 -5.8209,-1.04194 -3.70387,1.06226 -7.45094,5.52423 -6.56906,7.82238 0.90125,2.34862 15.45517,2.29716 16.35887,-0.0578 z m -211.69053,7.63592 0,-25 5.43261,0 c 4.55436,0 5.53523,0.32333 6.06739,2 0.82178,2.58921 1.64209,2.52192 6.09514,-0.5 6.14494,-4.17007 17.7732,-3.30034 23.14438,1.73108 2.0352,1.90647 2.40014,1.95701 4,0.55398 3.65457,-3.20493 8.26613,-4.78503 13.96082,-4.78351 7.86293,0.002 12.1962,2.30208 15.06951,7.99845 2.15624,4.27476 2.25635,5.45103 2,23.5 l -0.26985,19 -6.75,0.29569 -6.75,0.29569 -0.006,-14.79569 c -0.003,-8.13763 -0.47539,-16.48744 -1.04961,-18.55515 -2.02276,-7.28523 -8.80604,-8.48038 -13.38354,-2.35813 -1.82387,2.43936 -2.11835,4.61693 -2.56085,18.93695 l -0.5,16.18064 -6.75,0.29569 -6.75,0.29569 0,-15.57781 c 0,-16.99997 -1.03336,-21.66038 -5.22638,-23.57086 -3.11465,-1.41912 -7.13848,0.1593 -9.47132,3.71531 -1.50843,2.29933 -1.85709,5.40464 -2.13834,19.04463 l -0.33604,16.29735 -6.91396,0 -6.91396,0 0,-25 z m 342.2552,23.93425 c -5.95695,-1.81517 -6.71518,-4.31543 -7.09229,-23.38684 -0.19289,-9.75464 -0.78001,-17.58215 -1.37245,-18.29741 -0.56944,-0.6875 -2.10525,-1.25 -3.4129,-1.25 -3.38846,0 -2.93927,-1.73603 1.05969,-4.09548 2.39385,-1.4124 3.8609,-3.2994 4.83287,-6.21627 0.7818,-2.34619 2.12885,-4.33045 3.06275,-4.51157 1.35133,-0.26208 1.66713,0.50511 1.66713,4.05 0,2.40532 0.54,4.91332 1.2,5.57332 0.66,0.66 3.81,1.2 7,1.2 5.13333,0 5.8,0.22989 5.8,2 0,1.77011 -0.66667,2 -5.8,2 -3.19,0 -6.34,0.54 -7,1.2 -0.82928,0.82928 -1.2,5.95043 -1.2,16.57692 l 0,15.37693 2.92308,2.92307 c 2.26075,2.26076 3.83347,2.92308 6.94098,2.92308 4.17358,0 6.1081,1.42784 4.33577,3.20017 -1.46449,1.46449 -9.12241,1.89877 -12.94463,0.73408 z m -93.54665,-0.62942 c -0.26249,-0.44266 -3.02866,-10.25483 -6.14704,-21.80483 -3.11838,-11.55 -5.90074,-21.7875 -6.18303,-22.75 -0.40843,-1.3926 0.10114,-1.75 2.49512,-1.75 1.6546,0 3.23034,0.35916 3.50164,0.79813 0.27129,0.43897 2.52336,8.81448 5.00459,18.61224 4.41232,17.42319 5.08878,19.45436 6.13171,18.41142 0.28135,-0.28135 3.10599,-8.79385 6.27697,-18.91667 l 5.76542,-18.40512 3.93465,0 3.93464,0 5.58276,17.93146 c 3.07052,9.8623 6.12881,18.11347 6.7962,18.33593 0.68592,0.22864 1.47376,-0.82839 1.81224,-2.43145 0.32934,-1.55977 2.46332,-9.80685 4.74219,-18.32684 3.26128,-12.19294 4.5284,-15.56407 5.9518,-15.83458 4.62589,-0.8791 4.58121,0.0581 -0.95316,19.99103 -2.9525,10.63395 -5.83262,21.02195 -6.40026,23.08445 -0.9695,3.52262 -1.27052,3.75 -4.96448,3.75 l -3.93239,0 -4.60903,-14.75 c -2.53496,-8.1125 -5.17304,-16.55 -5.86239,-18.75 -0.68935,-2.2 -1.66587,-3.97488 -2.17003,-3.94418 -0.50417,0.0307 -2.62926,5.4307 -4.72243,12 -8.35625,26.22561 -7.73688,24.90606 -11.85134,25.24901 -2.0114,0.16765 -3.87186,-0.0573 -4.13435,-0.5 z m 64.29145,-22.80483 0,-23.5 2.5,0 2.5,0 0,23.5 0,23.5 -2.5,0 -2.5,0 0,-23.5 z m 53.2367,-10.25 c 0.25741,-32.99557 0.30801,-33.75 2.2633,-33.75 1.871,0 2.0182,0.7607 2.28211,11.79371 0.3173,13.26433 0.9904,14.41302 6.19212,10.56722 4.25598,-3.14658 14.99325,-3.7729 19.95469,-1.16398 7.10478,3.73596 7.53127,5.18441 7.9131,26.87453 l 0.34203,19.42852 -3.09203,0 -3.09202,0 0,-16.53212 c 0,-17.81574 -0.82759,-21.83286 -5.11687,-24.83719 -3.2352,-2.26602 -11.55395,-2.12884 -15.46317,0.25499 -5.4655,3.33286 -6.70879,7.6981 -7.22419,25.36432 l -0.45949,15.75 -2.38144,0 -2.38144,0 0.2633,-33.75 z m -53.82147,-24.6103 c -0.31536,-0.82184 -0.42531,-2.53948 -0.24431,-3.81697 0.26083,-1.84101 0.95126,-2.32273 3.32908,-2.32273 2.7619,0 3,0.27778 3,3.5 0,3.07658 -0.33337,3.53835 -2.75569,3.81697 -1.7487,0.20114 -2.96521,-0.22906 -3.32908,-1.17727 z"
         style="fill:#e0999f" />
      <path
         id="xpath4169"
         d="m 318.3477,698.87114 c -36.69805,-20.74779 -66.94788,-38.39825 -67.22183,-39.22325 -0.27396,-0.825 -2.28645,-16.35 -4.4722,-34.5 -5.6673,-47.05993 -14.65182,-121.35248 -18.56343,-153.5 -1.84036,-15.125 -3.04747,-27.76469 -2.68246,-28.08819 0.36501,-0.32351 3.36365,-1.53611 6.66365,-2.69468 108.27711,-38.01403 157.90405,-55.21713 159.28857,-55.21713 2.0755,0 164.36582,55.82338 165.51593,56.9329 0.44248,0.42686 -1.04014,16.02908 -3.2947,34.6716 -2.25457,18.64253 -6.32078,52.3455 -9.03604,74.8955 -11.46151,95.18719 -12.94905,106.87263 -13.69265,107.56352 -2.33033,2.16514 -141.08522,76.38425 -143.22818,76.61185 -1.81602,0.19286 -21.81295,-10.61781 -69.27666,-37.45212 z m 2.17134,-56.10565 c 2.11587,-0.59046 3.81011,-4.06707 12.5,-25.65032 l 10.05239,-24.96728 21.4221,-0.27039 c 14.13544,-0.17842 21.88742,-0.65656 22.79008,-1.4057 1.05337,-0.87423 1.3366,-4.43413 1.23157,-15.47962 l -0.13641,-14.34429 -14.84465,0 c -8.16456,0 -15.08213,-0.38424 -15.37237,-0.85386 -0.64387,-1.04181 28.19273,-69.51263 29.46969,-69.97406 0.5215,-0.18844 0.89401,-15.81955 0.87581,-36.75 -0.0251,-28.80264 -0.29795,-36.42208 -1.3045,-36.42208 -1.51516,0 -102.98512,224.61853 -102.10978,226.03486 0.6739,1.09038 31.55679,1.16252 35.42607,0.0827 z M 272.69292,356.93798 c -5.10745,-2.51611 -7.11334,-6.59211 -7.11775,-14.46336 -0.003,-5.71416 0.36636,-7.11312 2.57131,-9.73355 3.11338,-3.70004 10.38907,-6.09318 18.52466,-6.09318 7.22642,0 8.90029,-0.64922 8.90029,-3.452 0,-5.54698 -6.9116,-7.31769 -16.05993,-4.11446 -4.27186,1.49576 -4.50685,1.47432 -6.20275,-0.56589 -6.35414,-7.64416 -0.72315,-11.87388 15.76268,-11.84011 9.68408,0.0198 15.49308,2.2724 18.4756,7.16432 1.84688,3.02923 2.01724,5.01543 2.02066,23.55814 l 0.004,20.25 -4.83948,0 c -4.1917,0 -4.99196,-0.33464 -5.97857,-2.5 -1.37668,-3.0215 -2.30882,-3.12227 -4.67687,-0.50561 -3.65271,4.03619 -15.31011,5.28771 -21.38359,2.2957 z m 20.01973,-12.27747 c 2.32009,-2.32008 2.91717,-3.71615 2.67308,-6.25 -0.27429,-2.84732 -0.71508,-3.30154 -3.46288,-3.56841 -4.34551,-0.42205 -10.11642,2.1959 -11.49103,5.21287 -0.92575,2.03178 -0.82635,2.99592 0.52081,5.05196 2.44035,3.72444 7.79232,3.52128 11.76002,-0.44642 z m 32.85929,12.86393 c -7.14635,-2.84964 -11.17561,-10.27286 -11.80498,-21.74863 -0.79287,-14.45715 2.75579,-23.46579 10.90325,-27.679 4.11286,-2.12685 12.69368,-1.84401 17.19144,0.56664 4.61971,2.47602 4.59738,2.5235 4.94397,-10.51556 l 0.26581,-10 6.5,0 6.5,0 0,34.5 0,34.5 -5.10406,0.2972 c -4.574,0.26633 -5.28383,0.0228 -6.83497,-2.34449 l -1.7309,-2.64169 -2.16504,2.02788 c -4.24399,3.97514 -12.81517,5.3701 -18.66452,3.03765 z m 17.94977,-13.32363 c 2.82438,-3.00641 3.94063,-8.60834 3.06906,-15.40216 -1.7906,-13.95767 -16.46732,-13.68319 -18.57132,0.34732 -1.47213,9.81683 2.68464,17.50192 9.46656,17.50192 2.67139,0 4.39224,-0.69769 6.0357,-2.44708 z m 37.65875,13.2747 c -2.26656,-0.63668 -5.88061,-3.02062 -8.65681,-5.7103 -5.8588,-5.67621 -7.34377,-10.44319 -6.73406,-21.61732 0.86697,-15.88878 8.40753,-23.5 23.28184,-23.5 14.63931,0 22.43021,7.67477 22.47804,22.14301 0.017,5.14903 -0.33378,6.77952 -1.55983,7.25 -0.86998,0.33385 -7.84498,0.60699 -15.5,0.60699 l -13.91821,0 0,2.39641 c 0,1.49123 1.33516,3.56869 3.5348,5.5 2.90504,2.55066 4.39107,3.10359 8.34107,3.10359 2.64345,0 7.01529,-0.67013 9.7152,-1.48918 2.69991,-0.81904 5.24643,-1.49404 5.65893,-1.5 0.4125,-0.006 0.75,2.42016 0.75,5.39136 0,5.18435 -0.13104,5.45008 -3.25,6.59037 -4.49291,1.64262 -19.42703,2.15921 -24.14097,0.83507 z m 16.0815,-32.46354 c 0.76555,-1.99499 -0.49376,-4.12802 -3.96891,-6.7226 -2.11352,-1.57797 -3.24541,-1.78058 -5.8209,-1.04194 -3.70387,1.06226 -7.45094,5.52423 -6.56906,7.82238 0.90125,2.34862 15.45517,2.29716 16.35887,-0.0578 z m -211.69053,7.63592 0,-25 5.43261,0 c 4.55436,0 5.53523,0.32333 6.06739,2 0.82178,2.58921 1.64209,2.52192 6.09514,-0.5 6.14494,-4.17007 17.7732,-3.30034 23.14438,1.73108 2.0352,1.90647 2.40014,1.95701 4,0.55398 3.65457,-3.20493 8.26613,-4.78503 13.96082,-4.78351 7.86293,0.002 12.1962,2.30208 15.06951,7.99845 2.15624,4.27476 2.25635,5.45103 2,23.5 l -0.26985,19 -6.75,0.29569 -6.75,0.29569 -0.006,-14.79569 c -0.003,-8.13763 -0.47539,-16.48744 -1.04961,-18.55515 -2.02276,-7.28523 -8.80604,-8.48038 -13.38354,-2.35813 -1.82387,2.43936 -2.11835,4.61693 -2.56085,18.93695 l -0.5,16.18064 -6.75,0.29569 -6.75,0.29569 0,-15.57781 c 0,-16.99997 -1.03336,-21.66038 -5.22638,-23.57086 -3.11465,-1.41912 -7.13848,0.1593 -9.47132,3.71531 -1.50843,2.29933 -1.85709,5.40464 -2.13834,19.04463 l -0.33604,16.29735 -6.91396,0 -6.91396,0 0,-25 z m 342.2552,23.93425 c -5.95695,-1.81517 -6.71518,-4.31543 -7.09229,-23.38684 -0.19289,-9.75464 -0.78001,-17.58215 -1.37245,-18.29741 -0.56944,-0.6875 -2.10525,-1.25 -3.4129,-1.25 -3.38846,0 -2.93927,-1.73603 1.05969,-4.09548 2.39385,-1.4124 3.8609,-3.2994 4.83287,-6.21627 0.7818,-2.34619 2.12885,-4.33045 3.06275,-4.51157 1.35133,-0.26208 1.66713,0.50511 1.66713,4.05 0,2.40532 0.54,4.91332 1.2,5.57332 0.66,0.66 3.81,1.2 7,1.2 5.13333,0 5.8,0.22989 5.8,2 0,1.77011 -0.66667,2 -5.8,2 -3.19,0 -6.34,0.54 -7,1.2 -0.82928,0.82928 -1.2,5.95043 -1.2,16.57692 l 0,15.37693 2.92308,2.92307 c 2.26075,2.26076 3.83347,2.92308 6.94098,2.92308 4.17358,0 6.1081,1.42784 4.33577,3.20017 -1.46449,1.46449 -9.12241,1.89877 -12.94463,0.73408 z m -93.54665,-0.62942 c -0.26249,-0.44266 -3.02866,-10.25483 -6.14704,-21.80483 -3.11838,-11.55 -5.90074,-21.7875 -6.18303,-22.75 -0.40843,-1.3926 0.10114,-1.75 2.49512,-1.75 1.6546,0 3.23034,0.35916 3.50164,0.79813 0.27129,0.43897 2.52336,8.81448 5.00459,18.61224 4.41232,17.42319 5.08878,19.45436 6.13171,18.41142 0.28135,-0.28135 3.10599,-8.79385 6.27697,-18.91667 l 5.76542,-18.40512 3.93465,0 3.93464,0 5.58276,17.93146 c 3.07052,9.8623 6.12881,18.11347 6.7962,18.33593 0.68592,0.22864 1.47376,-0.82839 1.81224,-2.43145 0.32934,-1.55977 2.46332,-9.80685 4.74219,-18.32684 3.26128,-12.19294 4.5284,-15.56407 5.9518,-15.83458 4.62589,-0.8791 4.58121,0.0581 -0.95316,19.99103 -2.9525,10.63395 -5.83262,21.02195 -6.40026,23.08445 -0.9695,3.52262 -1.27052,3.75 -4.96448,3.75 l -3.93239,0 -4.60903,-14.75 c -2.53496,-8.1125 -5.17304,-16.55 -5.86239,-18.75 -0.68935,-2.2 -1.66587,-3.97488 -2.17003,-3.94418 -0.50417,0.0307 -2.62926,5.4307 -4.72243,12 -8.35625,26.22561 -7.73688,24.90606 -11.85134,25.24901 -2.0114,0.16765 -3.87186,-0.0573 -4.13435,-0.5 z m 64.29145,-22.80483 0,-23.5 2.5,0 2.5,0 0,23.5 0,23.5 -2.5,0 -2.5,0 0,-23.5 z m 53.2367,-10.25 c 0.25741,-32.99557 0.30801,-33.75 2.2633,-33.75 1.871,0 2.0182,0.7607 2.28211,11.79371 0.3173,13.26433 0.9904,14.41302 6.19212,10.56722 4.25598,-3.14658 14.99325,-3.7729 19.95469,-1.16398 7.10478,3.73596 7.53127,5.18441 7.9131,26.87453 l 0.34203,19.42852 -3.09203,0 -3.09202,0 0,-16.53212 c 0,-17.81574 -0.82759,-21.83286 -5.11687,-24.83719 -3.2352,-2.26602 -11.55395,-2.12884 -15.46317,0.25499 -5.4655,3.33286 -6.70879,7.6981 -7.22419,25.36432 l -0.45949,15.75 -2.38144,0 -2.38144,0 0.2633,-33.75 z m -53.82147,-24.6103 c -0.31536,-0.82184 -0.42531,-2.53948 -0.24431,-3.81697 0.26083,-1.84101 0.95126,-2.32273 3.32908,-2.32273 2.7619,0 3,0.27778 3,3.5 0,3.07658 -0.33337,3.53835 -2.75569,3.81697 -1.7487,0.20114 -2.96521,-0.22906 -3.32908,-1.17727 z"
         style="fill:#b0aeae" />
      <path
         id="xpath4167"
         d="m 347.57143,699.3336 c -21.175,-11.72231 -48.94192,-27.06367 -61.70426,-34.09192 -12.76234,-7.02825 -23.63844,-13.30179 -24.16911,-13.94121 -0.53067,-0.63942 -2.82815,-17.13533 -5.10552,-36.65758 -17.54491,-150.40016 -18.478,-158.93906 -17.4754,-159.92197 0.8878,-0.87036 15.26477,-6.06033 111.34163,-40.19337 24.2653,-8.62069 37.09114,-12.71224 38.5,-12.28182 19.09713,5.83433 149.41309,50.8652 150.19782,51.90108 0.8012,1.05763 -2.11485,26.8483 -11.14383,98.5606 -6.72594,53.42047 -12.61426,97.48427 -13.08516,97.91954 -1.66884,1.54259 -126.55067,70.02093 -127.69412,70.02045 -0.63913,-2.8e-4 -18.48705,-9.59148 -39.66205,-21.3138 z m -27.05239,-56.56811 c 2.11587,-0.59046 3.81011,-4.06707 12.5,-25.65032 l 10.05239,-24.96728 30.5,-0.74139 c 16.775,-0.40777 37.8728,-0.63277 46.884,-0.5 l 16.38399,0.24139 10.73389,24.81789 c 5.90364,13.64984 11.13085,25.1849 11.61601,25.63347 1.08239,1.00077 33.25974,2.05566 33.84447,1.10955 0.23041,-0.37282 -15.34075,-34.17654 -34.60259,-75.11938 -51.26327,-108.96488 -69.85977,-148.88788 -69.85977,-149.97505 0,-5.73247 -8.55897,12.16374 -53.35822,111.56838 -27.8942,61.89417 -50.44831,112.96917 -50.12024,113.5 0.6739,1.09038 31.55679,1.16252 35.42607,0.0827 z m 53.05239,-82.07789 c -10.02615,-0.34911 -15.5,-0.91833 -15.5,-1.61183 0,-0.58966 6.49818,-16.46866 14.4404,-35.28666 9.9509,-23.5773 14.8706,-34.12541 15.82417,-33.92788 1.75528,0.36362 34.5215,68.59879 33.81941,70.42842 -0.55399,1.44366 -15.12446,1.56301 -48.58398,0.39795 z M 274.86948,356.94845 c -1.21107,-0.23489 -3.57357,-1.98926 -5.25,-3.89861 -2.66298,-3.03298 -3.04805,-4.21919 -3.04805,-9.38969 0,-3.25499 0.53868,-7.10042 1.19706,-8.54542 1.84023,-4.03886 8.11701,-6.72046 16.80294,-7.17862 11.00357,-0.58042 12,-0.90202 12,-3.87301 0,-6.71324 -5.29511,-9.27076 -14.32478,-6.91883 -3.17504,0.82699 -6.35361,1.50362 -7.0635,1.50362 -1.33581,0 -3.61172,-4.06635 -3.61172,-6.45305 0,-2.24428 8.71562,-4.54695 17.21026,-4.54695 8.75002,0 13.04443,1.3938 16.78974,5.44929 2.47264,2.67742 2.50336,2.93058 2.80719,23.12888 l 0.30719,20.42183 -4.07863,0 c -3.38012,0 -4.27371,-0.42815 -5.2177,-2.5 -1.19463,-2.62191 -3.22499,-3.26862 -4.3824,-1.39587 -2.14025,3.46298 -12.639,5.6508 -20.1376,4.19643 z m 16.55692,-9.72556 c 3.1546,-1.63131 5.14503,-5.34637 5.14503,-9.603 0,-2.29755 -0.54366,-3.07035 -2.50657,-3.56301 -6.27149,-1.57404 -15.49343,3.49368 -15.49343,8.51409 0,5.14141 7.00579,7.67664 12.85497,4.65192 z m 33.16496,8.73759 c -7.28913,-3.79653 -10.44164,-12.06549 -9.84097,-25.81259 0.45751,-10.47071 3.01622,-16.35847 8.82104,-20.29781 2.9919,-2.0304 4.45113,-2.32324 10.05176,-2.01721 4.8734,0.26629 7.27308,0.92538 9.36754,2.57288 1.54868,1.21819 3.21288,1.96946 3.69824,1.6695 0.48535,-0.29997 0.88246,-5.71629 0.88246,-12.03628 l 0,-11.49089 5.75,0.29991 5.75,0.2999 0.2633,33.75 0.2633,33.75 -5.0133,0 c -2.75731,0 -5.0133,-0.36399 -5.0133,-0.80887 0,-0.44488 -0.60965,-1.64262 -1.35479,-2.66165 -1.29792,-1.77501 -1.5063,-1.73722 -4.96449,0.90048 -4.79747,3.6592 -13.55378,4.5426 -18.66079,1.88263 z m 18.03546,-9.34223 c 5.22528,-2.79649 7.18481,-17.43748 3.24082,-24.2143 -2.42966,-4.17479 -7.50088,-6.04762 -11.79621,-4.35642 -3.95347,1.55661 -7.50749,8.47746 -7.47804,14.56225 0.0251,5.19181 2.91484,12.32483 5.63312,13.90489 2.3658,1.37518 7.92093,1.4305 10.40031,0.10358 z m 40.44461,10.15821 c -11.95174,-3.16317 -17.09591,-11.55334 -16.30639,-26.59577 0.78604,-14.97591 6.90786,-21.52208 20.88354,-22.33112 9.67957,-0.56035 15.60988,1.85717 19.69367,8.02819 2.25848,3.4128 2.64536,5.089 2.68402,11.62885 l 0.0452,7.64128 -15.25,0.27605 -15.25,0.27604 0,2.75145 c 0,8.43005 10.35216,12.42009 22.59107,8.70728 2.69991,-0.81904 5.02143,-1.49404 5.15893,-1.5 0.1375,-0.006 0.25,2.02532 0.25,4.51393 0,4.00873 -0.31362,4.64739 -2.75,5.60011 -3.52504,1.37843 -17.83841,2.03896 -21.75,1.00371 z m 15.18328,-30.74558 c 1.77671,-4.63004 -5.46241,-11.40819 -10.76317,-10.07779 -5.2579,1.31965 -9.96741,8.78433 -6.80546,10.78682 0.76194,0.48255 4.88697,0.88425 9.16673,0.89267 6.25399,0.0123 7.90319,-0.30209 8.4019,-1.6017 z m -211.68328,6.61701 0,-24 4.52475,0 c 3.90627,0 4.65467,0.34172 5.47525,2.5 1.10874,2.9162 2.22107,3.14395 4.12755,0.8451 2.13788,-2.57787 7.33381,-4.3451 12.77523,-4.3451 5.80994,0 9.69948,1.29222 12.89216,4.28315 1.90045,1.78035 2.58804,1.93832 4,0.91897 6.39498,-4.61682 7.9019,-5.19477 13.55393,-5.19838 7.15542,-0.005 12.15851,2.20552 14.44518,6.3811 1.40818,2.57142 1.76269,6.56245 2.03101,22.86516 l 0.32506,19.75 -6.07506,0 -6.07506,0 0,-14.97976 c 0,-16.77523 -1.21343,-21.8852 -5.68024,-23.92041 -4.30543,-1.96168 -9.12726,0.26397 -11.39591,5.2601 -1.56373,3.44372 -1.88362,6.62098 -1.90189,18.89007 l -0.022,14.75 -6,0 -6,0 -0.006,-14.75 c -0.007,-17.90227 -0.87838,-21.75016 -5.41706,-23.9145 -2.85047,-1.35929 -3.68805,-1.38751 -6.10079,-0.20555 -1.53819,0.75352 -3.73717,2.63937 -4.88664,4.19075 -1.87413,2.52944 -2.12482,4.4655 -2.42779,18.75 l -0.33784,15.9293 -5.91214,0 -5.91214,0 0,-24 z"
         style="fill:#c97b82" />
      <path
         id="xpath4165"
         d="m 324.32349,685.33427 c -33.96136,-18.80251 -61.96762,-34.86138 -62.23612,-35.68638 -0.26851,-0.825 -5.20074,-42.225 -10.96053,-92 -5.75978,-49.775 -10.77765,-93.08471 -11.15082,-96.2438 l -0.6785,-5.74381 3.49398,-1.45988 c 10.96029,-4.57949 142.69866,-50.82854 144.77993,-50.8275 3.45277,0.002 150.20788,49.99331 151.1273,51.48096 0.40784,0.65991 0.53544,2.34603 0.28354,3.74693 -0.47483,2.64069 -17.76242,139.96604 -21.57597,171.39041 -1.49204,12.2947 -2.65819,18.4199 -3.75013,19.69754 -1.78324,2.08648 -124.61132,69.99469 -126.42262,69.89553 -0.63917,-0.035 -28.94869,-15.4475 -62.91006,-34.25 z m 170.24794,-42.38413 c 0,-0.26607 -20.42515,-43.98043 -45.38923,-97.14301 -24.96408,-53.16258 -48.88569,-104.19674 -53.15914,-113.40924 -4.27345,-9.2125 -8.26269,-16.75 -8.86497,-16.75 -1.09554,0 -101.80311,222.2647 -102.40621,226.01364 -0.30913,1.92158 0.28208,1.98636 18.12755,1.98636 15.66097,0 18.64691,-0.24075 19.77001,-1.594 0.7276,-0.8767 5.68627,-12.4642 11.01928,-25.75 l 9.69637,-24.156 45.79295,-0.26022 c 28.35597,-0.16113 46.15927,0.1061 46.75497,0.7018 0.52911,0.52911 5.78699,12.12121 11.68418,25.76022 l 10.72216,24.7982 16.87604,0.5 c 16.19057,0.47969 19.37604,0.36498 19.37604,-0.69775 z m -121.25,-83.05011 c -9.0771,-0.18807 -14.75,-0.69463 -14.75,-1.31711 0,-1.11363 27.73471,-67.00308 28.54421,-67.81258 0.27688,-0.27687 1.09646,0.14481 1.8213,0.93707 2.27424,2.4858 32.73293,66.97218 32.10935,67.98115 -0.56359,0.91192 -11.56554,0.96067 -47.72486,0.21147 z M 274.86948,356.94845 c -1.21107,-0.23489 -3.57357,-1.98926 -5.25,-3.89861 -2.66298,-3.03298 -3.04805,-4.21919 -3.04805,-9.38969 0,-3.25499 0.53868,-7.10042 1.19706,-8.54542 1.84023,-4.03886 8.11701,-6.72046 16.80294,-7.17862 11.00357,-0.58042 12,-0.90202 12,-3.87301 0,-6.71324 -5.29511,-9.27076 -14.32478,-6.91883 -3.17504,0.82699 -6.35361,1.50362 -7.0635,1.50362 -1.33581,0 -3.61172,-4.06635 -3.61172,-6.45305 0,-2.24428 8.71562,-4.54695 17.21026,-4.54695 8.75002,0 13.04443,1.3938 16.78974,5.44929 2.47264,2.67742 2.50336,2.93058 2.80719,23.12888 l 0.30719,20.42183 -4.07863,0 c -3.38012,0 -4.27371,-0.42815 -5.2177,-2.5 -1.19463,-2.62191 -3.22499,-3.26862 -4.3824,-1.39587 -2.14025,3.46298 -12.639,5.6508 -20.1376,4.19643 z m 16.55692,-9.72556 c 3.1546,-1.63131 5.14503,-5.34637 5.14503,-9.603 0,-2.29755 -0.54366,-3.07035 -2.50657,-3.56301 -6.27149,-1.57404 -15.49343,3.49368 -15.49343,8.51409 0,5.14141 7.00579,7.67664 12.85497,4.65192 z m 33.16496,8.73759 c -7.28913,-3.79653 -10.44164,-12.06549 -9.84097,-25.81259 0.45751,-10.47071 3.01622,-16.35847 8.82104,-20.29781 2.9919,-2.0304 4.45113,-2.32324 10.05176,-2.01721 4.8734,0.26629 7.27308,0.92538 9.36754,2.57288 1.54868,1.21819 3.21288,1.96946 3.69824,1.6695 0.48535,-0.29997 0.88246,-5.71629 0.88246,-12.03628 l 0,-11.49089 5.75,0.29991 5.75,0.2999 0.2633,33.75 0.2633,33.75 -5.0133,0 c -2.75731,0 -5.0133,-0.36399 -5.0133,-0.80887 0,-0.44488 -0.60965,-1.64262 -1.35479,-2.66165 -1.29792,-1.77501 -1.5063,-1.73722 -4.96449,0.90048 -4.79747,3.6592 -13.55378,4.5426 -18.66079,1.88263 z m 18.03546,-9.34223 c 5.22528,-2.79649 7.18481,-17.43748 3.24082,-24.2143 -2.42966,-4.17479 -7.50088,-6.04762 -11.79621,-4.35642 -3.95347,1.55661 -7.50749,8.47746 -7.47804,14.56225 0.0251,5.19181 2.91484,12.32483 5.63312,13.90489 2.3658,1.37518 7.92093,1.4305 10.40031,0.10358 z m 40.44461,10.15821 c -11.95174,-3.16317 -17.09591,-11.55334 -16.30639,-26.59577 0.78604,-14.97591 6.90786,-21.52208 20.88354,-22.33112 9.67957,-0.56035 15.60988,1.85717 19.69367,8.02819 2.25848,3.4128 2.64536,5.089 2.68402,11.62885 l 0.0452,7.64128 -15.25,0.27605 -15.25,0.27604 0,2.75145 c 0,8.43005 10.35216,12.42009 22.59107,8.70728 2.69991,-0.81904 5.02143,-1.49404 5.15893,-1.5 0.1375,-0.006 0.25,2.02532 0.25,4.51393 0,4.00873 -0.31362,4.64739 -2.75,5.60011 -3.52504,1.37843 -17.83841,2.03896 -21.75,1.00371 z m 15.18328,-30.74558 c 1.77671,-4.63004 -5.46241,-11.40819 -10.76317,-10.07779 -5.2579,1.31965 -9.96741,8.78433 -6.80546,10.78682 0.76194,0.48255 4.88697,0.88425 9.16673,0.89267 6.25399,0.0123 7.90319,-0.30209 8.4019,-1.6017 z m -211.68328,6.61701 0,-24 4.52475,0 c 3.90627,0 4.65467,0.34172 5.47525,2.5 1.10874,2.9162 2.22107,3.14395 4.12755,0.8451 2.13788,-2.57787 7.33381,-4.3451 12.77523,-4.3451 5.80994,0 9.69948,1.29222 12.89216,4.28315 1.90045,1.78035 2.58804,1.93832 4,0.91897 6.39498,-4.61682 7.9019,-5.19477 13.55393,-5.19838 7.15542,-0.005 12.15851,2.20552 14.44518,6.3811 1.40818,2.57142 1.76269,6.56245 2.03101,22.86516 l 0.32506,19.75 -6.07506,0 -6.07506,0 0,-14.97976 c 0,-16.77523 -1.21343,-21.8852 -5.68024,-23.92041 -4.30543,-1.96168 -9.12726,0.26397 -11.39591,5.2601 -1.56373,3.44372 -1.88362,6.62098 -1.90189,18.89007 l -0.022,14.75 -6,0 -6,0 -0.006,-14.75 c -0.007,-17.90227 -0.87838,-21.75016 -5.41706,-23.9145 -2.85047,-1.35929 -3.68805,-1.38751 -6.10079,-0.20555 -1.53819,0.75352 -3.73717,2.63937 -4.88664,4.19075 -1.87413,2.52944 -2.12482,4.4655 -2.42779,18.75 l -0.33784,15.9293 -5.91214,0 -5.91214,0 0,-24 z"
         style="fill:#d95863" />
      <path
         id="xpath4163"
         d="m 386.02143,718.71491 c -0.5225,-0.51313 -27.95,-15.8453 -60.95,-34.07148 -33,-18.22618 -60.55205,-33.67446 -61.22677,-34.32951 -1.10934,-1.077 -4.36316,-27.71834 -20.39382,-166.97914 -1.69759,-14.74721 -2.83853,-27.06111 -2.53542,-27.36422 0.42849,-0.42849 116.50989,-41.90455 140.15601,-50.07796 2.75,-0.95055 5.26023,-2.08351 5.5783,-2.51769 0.31806,-0.43418 15.16806,4.12962 33,10.14178 86.35981,29.11682 118.36373,40.22839 119.04581,41.33202 0.4096,0.66274 0.53863,2.35118 0.28673,3.75208 -0.47483,2.64069 -17.76242,139.96604 -21.57597,171.39041 -1.49204,12.2947 -2.65819,18.4199 -3.75013,19.69754 -1.45765,1.70552 -124.35919,69.95915 -125.97262,69.95915 -0.39167,0 -1.13962,-0.41984 -1.66212,-0.93298 z m -62.42668,-76.06702 c 0.52088,-0.825 5.28459,-12.34083 10.586,-25.59074 l 9.63895,-24.09074 33.03911,-0.65926 c 48.82917,-0.97433 58.45266,-0.87863 59.40329,0.59074 0.44479,0.6875 5.58942,12.275 11.43251,25.75 l 10.62381,24.5 17.22779,0.5 c 9.47529,0.275 17.67848,0.21985 18.22932,-0.12256 0.57906,-0.35995 -17.98731,-41.06591 -44.01454,-96.5 -24.75884,-52.73259 -48.7916,-103.97744 -53.40613,-113.87744 -4.61454,-9.9 -8.96179,-18 -9.66056,-18 -1.71185,0 -103.5283,226.0011 -102.74088,228.05306 0.52337,1.3639 3.08444,1.52783 19.64804,1.25763 15.60346,-0.25453 19.21741,-0.58183 19.99329,-1.81069 z m 50.22668,-82.74772 c -10.39601,-0.22411 -14.24966,-0.63784 -14.24874,-1.52974 10e-4,-1.15138 25.84302,-62.83496 27.75706,-66.25517 0.72223,-1.29056 1.08287,-1.34393 1.89574,-0.28056 2.42495,3.17227 32.35371,66.99159 31.8208,67.85386 -0.56294,0.91086 -12.34026,0.96364 -47.22486,0.21161 z M 274.86948,356.94845 c -1.21107,-0.23489 -3.57357,-1.98926 -5.25,-3.89861 -2.66298,-3.03298 -3.04805,-4.21919 -3.04805,-9.38969 0,-3.25499 0.53868,-7.10042 1.19706,-8.54542 1.84023,-4.03886 8.11701,-6.72046 16.80294,-7.17862 11.00357,-0.58042 12,-0.90202 12,-3.87301 0,-6.71324 -5.29511,-9.27076 -14.32478,-6.91883 -3.17504,0.82699 -6.35361,1.50362 -7.0635,1.50362 -1.33581,0 -3.61172,-4.06635 -3.61172,-6.45305 0,-2.24428 8.71562,-4.54695 17.21026,-4.54695 8.75002,0 13.04443,1.3938 16.78974,5.44929 2.47264,2.67742 2.50336,2.93058 2.80719,23.12888 l 0.30719,20.42183 -4.07863,0 c -3.38012,0 -4.27371,-0.42815 -5.2177,-2.5 -1.19463,-2.62191 -3.22499,-3.26862 -4.3824,-1.39587 -2.14025,3.46298 -12.639,5.6508 -20.1376,4.19643 z m 16.55692,-9.72556 c 3.1546,-1.63131 5.14503,-5.34637 5.14503,-9.603 0,-2.29755 -0.54366,-3.07035 -2.50657,-3.56301 -6.27149,-1.57404 -15.49343,3.49368 -15.49343,8.51409 0,5.14141 7.00579,7.67664 12.85497,4.65192 z m 33.16496,8.73759 c -7.28913,-3.79653 -10.44164,-12.06549 -9.84097,-25.81259 0.45751,-10.47071 3.01622,-16.35847 8.82104,-20.29781 2.9919,-2.0304 4.45113,-2.32324 10.05176,-2.01721 4.8734,0.26629 7.27308,0.92538 9.36754,2.57288 1.54868,1.21819 3.21288,1.96946 3.69824,1.6695 0.48535,-0.29997 0.88246,-5.71629 0.88246,-12.03628 l 0,-11.49089 5.75,0.29991 5.75,0.2999 0.2633,33.75 0.2633,33.75 -5.0133,0 c -2.75731,0 -5.0133,-0.36399 -5.0133,-0.80887 0,-0.44488 -0.60965,-1.64262 -1.35479,-2.66165 -1.29792,-1.77501 -1.5063,-1.73722 -4.96449,0.90048 -4.79747,3.6592 -13.55378,4.5426 -18.66079,1.88263 z m 18.03546,-9.34223 c 5.22528,-2.79649 7.18481,-17.43748 3.24082,-24.2143 -2.42966,-4.17479 -7.50088,-6.04762 -11.79621,-4.35642 -3.95347,1.55661 -7.50749,8.47746 -7.47804,14.56225 0.0251,5.19181 2.91484,12.32483 5.63312,13.90489 2.3658,1.37518 7.92093,1.4305 10.40031,0.10358 z m 40.44461,10.15821 c -11.95174,-3.16317 -17.09591,-11.55334 -16.30639,-26.59577 0.78604,-14.97591 6.90786,-21.52208 20.88354,-22.33112 9.67957,-0.56035 15.60988,1.85717 19.69367,8.02819 2.25848,3.4128 2.64536,5.089 2.68402,11.62885 l 0.0452,7.64128 -15.25,0.27605 -15.25,0.27604 0,2.75145 c 0,8.43005 10.35216,12.42009 22.59107,8.70728 2.69991,-0.81904 5.02143,-1.49404 5.15893,-1.5 0.1375,-0.006 0.25,2.02532 0.25,4.51393 0,4.00873 -0.31362,4.64739 -2.75,5.60011 -3.52504,1.37843 -17.83841,2.03896 -21.75,1.00371 z m 15.18328,-30.74558 c 1.77671,-4.63004 -5.46241,-11.40819 -10.76317,-10.07779 -5.2579,1.31965 -9.96741,8.78433 -6.80546,10.78682 0.76194,0.48255 4.88697,0.88425 9.16673,0.89267 6.25399,0.0123 7.90319,-0.30209 8.4019,-1.6017 z m -211.68328,6.61701 0,-24 4.52475,0 c 3.90627,0 4.65467,0.34172 5.47525,2.5 1.10874,2.9162 2.22107,3.14395 4.12755,0.8451 2.13788,-2.57787 7.33381,-4.3451 12.77523,-4.3451 5.80994,0 9.69948,1.29222 12.89216,4.28315 1.90045,1.78035 2.58804,1.93832 4,0.91897 6.39498,-4.61682 7.9019,-5.19477 13.55393,-5.19838 7.15542,-0.005 12.15851,2.20552 14.44518,6.3811 1.40818,2.57142 1.76269,6.56245 2.03101,22.86516 l 0.32506,19.75 -6.07506,0 -6.07506,0 0,-14.97976 c 0,-16.77523 -1.21343,-21.8852 -5.68024,-23.92041 -4.30543,-1.96168 -9.12726,0.26397 -11.39591,5.2601 -1.56373,3.44372 -1.88362,6.62098 -1.90189,18.89007 l -0.022,14.75 -6,0 -6,0 -0.006,-14.75 c -0.007,-17.90227 -0.87838,-21.75016 -5.41706,-23.9145 -2.85047,-1.35929 -3.68805,-1.38751 -6.10079,-0.20555 -1.53819,0.75352 -3.73717,2.63937 -4.88664,4.19075 -1.87413,2.52944 -2.12482,4.4655 -2.42779,18.75 l -0.33784,15.9293 -5.91214,0 -5.91214,0 0,-24 z"
         style="fill:#b45b62" />
      <path
         id="xpath4161"
         d="m 325.57143,685.01352 c -33.275,-18.43022 -61.05205,-34.04524 -61.72677,-34.70004 -1.10937,-1.07662 -4.36277,-27.71451 -20.39382,-166.9787 -1.69759,-14.74721 -2.83669,-27.06295 -2.53133,-27.36831 1.14416,-1.14416 143.25894,-51.35845 145.70358,-51.48235 1.40341,-0.0711 19.40341,5.60384 40,12.61102 20.59659,7.00718 47.79834,16.25814 60.44834,20.55769 54.48838,18.51979 50.5,16.96284 50.5,19.71385 0,2.34763 -22.39673,182.31068 -23.50165,188.84138 -0.49022,2.89743 -3.86153,4.90486 -63.3982,37.75 -34.58425,19.0794 -63.26739,34.66173 -63.7403,34.62739 -0.47292,-0.0344 -28.08485,-15.14171 -61.35985,-33.57193 z m 169.78312,-41.46528 c 0.16809,-0.87981 -12.78725,-29.45481 -28.78965,-63.5 -16.0024,-34.04519 -39.98487,-85.19493 -53.29437,-113.66609 -19.90816,-42.58673 -24.52378,-51.71861 -26.03017,-51.5 -1.39348,0.20223 -14.02612,27.32879 -52.85992,113.50811 -30.10344,66.80506 -50.78205,113.88549 -50.42702,114.81069 0.52337,1.3639 3.08444,1.52783 19.64804,1.25763 15.60346,-0.25453 19.21741,-0.58183 19.99329,-1.81069 0.52088,-0.825 5.31321,-12.4125 10.6496,-25.75 l 9.70255,-24.25 45.65106,0 45.65106,0 10.22683,23.75 c 5.62475,13.0625 10.87199,24.7462 11.66052,25.96378 1.28884,1.99009 2.41894,2.24859 11.18438,2.55833 20.00147,0.70677 26.70164,0.36679 27.0338,-1.37176 z M 359.57143,558.42231 c 0,-2.49017 27.35749,-65.82192 28.29778,-65.50849 1.13537,0.37845 31.70222,63.4498 31.70222,65.41406 0,1.06401 -5.81804,1.32001 -30,1.32001 -23.01452,0 -30,-0.28538 -30,-1.22558 z M 274.86948,356.94845 c -1.21107,-0.23489 -3.57357,-1.98926 -5.25,-3.89861 -2.66298,-3.03298 -3.04805,-4.21919 -3.04805,-9.38969 0,-3.25499 0.53868,-7.10042 1.19706,-8.54542 1.84023,-4.03886 8.11701,-6.72046 16.80294,-7.17862 11.00357,-0.58042 12,-0.90202 12,-3.87301 0,-6.71324 -5.29511,-9.27076 -14.32478,-6.91883 -3.17504,0.82699 -6.35361,1.50362 -7.0635,1.50362 -1.33581,0 -3.61172,-4.06635 -3.61172,-6.45305 0,-2.24428 8.71562,-4.54695 17.21026,-4.54695 8.75002,0 13.04443,1.3938 16.78974,5.44929 2.47264,2.67742 2.50336,2.93058 2.80719,23.12888 l 0.30719,20.42183 -4.07863,0 c -3.38012,0 -4.27371,-0.42815 -5.2177,-2.5 -1.19463,-2.62191 -3.22499,-3.26862 -4.3824,-1.39587 -2.14025,3.46298 -12.639,5.6508 -20.1376,4.19643 z m 16.55692,-9.72556 c 3.1546,-1.63131 5.14503,-5.34637 5.14503,-9.603 0,-2.29755 -0.54366,-3.07035 -2.50657,-3.56301 -6.27149,-1.57404 -15.49343,3.49368 -15.49343,8.51409 0,5.14141 7.00579,7.67664 12.85497,4.65192 z m 33.16496,8.73759 c -7.28913,-3.79653 -10.44164,-12.06549 -9.84097,-25.81259 0.45751,-10.47071 3.01622,-16.35847 8.82104,-20.29781 2.9919,-2.0304 4.45113,-2.32324 10.05176,-2.01721 4.8734,0.26629 7.27308,0.92538 9.36754,2.57288 1.54868,1.21819 3.21288,1.96946 3.69824,1.6695 0.48535,-0.29997 0.88246,-5.71629 0.88246,-12.03628 l 0,-11.49089 5.75,0.29991 5.75,0.2999 0.2633,33.75 0.2633,33.75 -5.0133,0 c -2.75731,0 -5.0133,-0.36399 -5.0133,-0.80887 0,-0.44488 -0.60965,-1.64262 -1.35479,-2.66165 -1.29792,-1.77501 -1.5063,-1.73722 -4.96449,0.90048 -4.79747,3.6592 -13.55378,4.5426 -18.66079,1.88263 z m 18.03546,-9.34223 c 5.22528,-2.79649 7.18481,-17.43748 3.24082,-24.2143 -2.42966,-4.17479 -7.50088,-6.04762 -11.79621,-4.35642 -3.95347,1.55661 -7.50749,8.47746 -7.47804,14.56225 0.0251,5.19181 2.91484,12.32483 5.63312,13.90489 2.3658,1.37518 7.92093,1.4305 10.40031,0.10358 z m 40.44461,10.15821 c -11.95174,-3.16317 -17.09591,-11.55334 -16.30639,-26.59577 0.78604,-14.97591 6.90786,-21.52208 20.88354,-22.33112 9.67957,-0.56035 15.60988,1.85717 19.69367,8.02819 2.25848,3.4128 2.64536,5.089 2.68402,11.62885 l 0.0452,7.64128 -15.25,0.27605 -15.25,0.27604 0,2.75145 c 0,8.43005 10.35216,12.42009 22.59107,8.70728 2.69991,-0.81904 5.02143,-1.49404 5.15893,-1.5 0.1375,-0.006 0.25,2.02532 0.25,4.51393 0,4.00873 -0.31362,4.64739 -2.75,5.60011 -3.52504,1.37843 -17.83841,2.03896 -21.75,1.00371 z m 15.18328,-30.74558 c 1.77671,-4.63004 -5.46241,-11.40819 -10.76317,-10.07779 -5.2579,1.31965 -9.96741,8.78433 -6.80546,10.78682 0.76194,0.48255 4.88697,0.88425 9.16673,0.89267 6.25399,0.0123 7.90319,-0.30209 8.4019,-1.6017 z m -211.68328,6.61701 0,-24 4.52475,0 c 3.90627,0 4.65467,0.34172 5.47525,2.5 1.10874,2.9162 2.22107,3.14395 4.12755,0.8451 2.13788,-2.57787 7.33381,-4.3451 12.77523,-4.3451 5.80994,0 9.69948,1.29222 12.89216,4.28315 1.90045,1.78035 2.58804,1.93832 4,0.91897 6.39498,-4.61682 7.9019,-5.19477 13.55393,-5.19838 7.15542,-0.005 12.15851,2.20552 14.44518,6.3811 1.40818,2.57142 1.76269,6.56245 2.03101,22.86516 l 0.32506,19.75 -6.07506,0 -6.07506,0 0,-14.97976 c 0,-16.77523 -1.21343,-21.8852 -5.68024,-23.92041 -4.30543,-1.96168 -9.12726,0.26397 -11.39591,5.2601 -1.56373,3.44372 -1.88362,6.62098 -1.90189,18.89007 l -0.022,14.75 -6,0 -6,0 -0.006,-14.75 c -0.007,-17.90227 -0.87838,-21.75016 -5.41706,-23.9145 -2.85047,-1.35929 -3.68805,-1.38751 -6.10079,-0.20555 -1.53819,0.75352 -3.73717,2.63937 -4.88664,4.19075 -1.87413,2.52944 -2.12482,4.4655 -2.42779,18.75 l -0.33784,15.9293 -5.91214,0 -5.91214,0 0,-24 z"
         style="fill:#e03645" />
      <path
         id="xpath4159"
         d="m 384.07143,715.77999 c -4.34842,-1.98284 -118.54151,-64.95578 -119.71918,-66.02035 -1.14958,-1.03918 -23.0496,-192.24698 -22.12065,-193.13414 0.92692,-0.88523 140.12459,-50.33443 144.69147,-51.40085 2.1765,-0.50823 11.64681,2.32634 40,11.97247 20.4316,6.95109 47.49836,16.15616 60.14836,20.45571 54.88557,18.65479 50.5011,16.93015 50.49022,19.86047 -0.0133,3.573 -23.68432,191.16202 -24.18511,191.66281 -0.91013,0.91013 -123.82124,68.46992 -124.53034,68.44982 -0.42612,-0.0121 -2.57477,-0.84275 -4.77477,-1.84594 z m -65.5,-70.981 5.5,-0.6511 10.06345,-25 10.06344,-25 24.43656,-0.61247 c 13.4401,-0.33686 33.9289,-0.67436 45.53066,-0.75 l 21.09411,-0.13753 10.40589,24.19016 c 5.72324,13.3046 11.08089,24.96851 11.90589,25.91982 1.26966,1.46404 4.22422,1.83518 19.24029,2.41692 16.0313,0.62106 17.80198,0.52653 18.3806,-0.98134 0.72082,-1.87841 3.16621,3.46745 -58.5729,-128.04556 -52.32323,-111.45587 -48.22897,-103 -49.87177,-103 -1.17114,0 -102.26173,222.2403 -103.79837,228.19316 -0.31138,1.20625 -0.27221,2.66875 0.087,3.25 0.72003,1.16504 26.19132,1.31409 35.53513,0.20794 z m 69.72773,-85.75671 c -0.33309,-0.33308 -6.70809,-0.53645 -14.16667,-0.45193 -7.45858,0.0845 -13.56106,-0.24238 -13.56106,-0.72645 0,-0.96809 21.27221,-51.43659 25.36708,-60.18361 l 2.55963,-5.4676 4.92511,10.4676 c 2.70881,5.75718 9.7003,20.31906 15.53665,32.35974 5.83634,12.04068 10.61153,22.50318 10.61153,23.25 0,1.08478 -3.08374,1.35786 -15.33333,1.35786 -8.43334,0 -15.60586,-0.27252 -15.93894,-0.60561 z M 274.86948,356.94845 c -1.21107,-0.23489 -3.57357,-1.98926 -5.25,-3.89861 -2.66298,-3.03298 -3.04805,-4.21919 -3.04805,-9.38969 0,-3.25499 0.53868,-7.10042 1.19706,-8.54542 1.84023,-4.03886 8.11701,-6.72046 16.80294,-7.17862 11.00357,-0.58042 12,-0.90202 12,-3.87301 0,-6.71324 -5.29511,-9.27076 -14.32478,-6.91883 -3.17504,0.82699 -6.35361,1.50362 -7.0635,1.50362 -1.33581,0 -3.61172,-4.06635 -3.61172,-6.45305 0,-2.24428 8.71562,-4.54695 17.21026,-4.54695 8.75002,0 13.04443,1.3938 16.78974,5.44929 2.47264,2.67742 2.50336,2.93058 2.80719,23.12888 l 0.30719,20.42183 -4.07863,0 c -3.38012,0 -4.27371,-0.42815 -5.2177,-2.5 -1.19463,-2.62191 -3.22499,-3.26862 -4.3824,-1.39587 -2.14025,3.46298 -12.639,5.6508 -20.1376,4.19643 z m 16.55692,-9.72556 c 3.1546,-1.63131 5.14503,-5.34637 5.14503,-9.603 0,-2.29755 -0.54366,-3.07035 -2.50657,-3.56301 -6.27149,-1.57404 -15.49343,3.49368 -15.49343,8.51409 0,5.14141 7.00579,7.67664 12.85497,4.65192 z m 33.16496,8.73759 c -7.28913,-3.79653 -10.44164,-12.06549 -9.84097,-25.81259 0.45751,-10.47071 3.01622,-16.35847 8.82104,-20.29781 2.9919,-2.0304 4.45113,-2.32324 10.05176,-2.01721 4.8734,0.26629 7.27308,0.92538 9.36754,2.57288 1.54868,1.21819 3.21288,1.96946 3.69824,1.6695 0.48535,-0.29997 0.88246,-5.71629 0.88246,-12.03628 l 0,-11.49089 5.75,0.29991 5.75,0.2999 0.2633,33.75 0.2633,33.75 -5.0133,0 c -2.75731,0 -5.0133,-0.36399 -5.0133,-0.80887 0,-0.44488 -0.60965,-1.64262 -1.35479,-2.66165 -1.29792,-1.77501 -1.5063,-1.73722 -4.96449,0.90048 -4.79747,3.6592 -13.55378,4.5426 -18.66079,1.88263 z m 18.03546,-9.34223 c 5.22528,-2.79649 7.18481,-17.43748 3.24082,-24.2143 -2.42966,-4.17479 -7.50088,-6.04762 -11.79621,-4.35642 -3.95347,1.55661 -7.50749,8.47746 -7.47804,14.56225 0.0251,5.19181 2.91484,12.32483 5.63312,13.90489 2.3658,1.37518 7.92093,1.4305 10.40031,0.10358 z m 40.44461,10.15821 c -11.95174,-3.16317 -17.09591,-11.55334 -16.30639,-26.59577 0.78604,-14.97591 6.90786,-21.52208 20.88354,-22.33112 9.67957,-0.56035 15.60988,1.85717 19.69367,8.02819 2.25848,3.4128 2.64536,5.089 2.68402,11.62885 l 0.0452,7.64128 -15.25,0.27605 -15.25,0.27604 0,2.75145 c 0,8.43005 10.35216,12.42009 22.59107,8.70728 2.69991,-0.81904 5.02143,-1.49404 5.15893,-1.5 0.1375,-0.006 0.25,2.02532 0.25,4.51393 0,4.00873 -0.31362,4.64739 -2.75,5.60011 -3.52504,1.37843 -17.83841,2.03896 -21.75,1.00371 z m 15.18328,-30.74558 c 1.77671,-4.63004 -5.46241,-11.40819 -10.76317,-10.07779 -5.2579,1.31965 -9.96741,8.78433 -6.80546,10.78682 0.76194,0.48255 4.88697,0.88425 9.16673,0.89267 6.25399,0.0123 7.90319,-0.30209 8.4019,-1.6017 z m -211.68328,6.61701 0,-24 4.52475,0 c 3.90627,0 4.65467,0.34172 5.47525,2.5 1.10874,2.9162 2.22107,3.14395 4.12755,0.8451 2.13788,-2.57787 7.33381,-4.3451 12.77523,-4.3451 5.80994,0 9.69948,1.29222 12.89216,4.28315 1.90045,1.78035 2.58804,1.93832 4,0.91897 6.39498,-4.61682 7.9019,-5.19477 13.55393,-5.19838 7.15542,-0.005 12.15851,2.20552 14.44518,6.3811 1.40818,2.57142 1.76269,6.56245 2.03101,22.86516 l 0.32506,19.75 -6.07506,0 -6.07506,0 0,-14.97976 c 0,-16.77523 -1.21343,-21.8852 -5.68024,-23.92041 -4.30543,-1.96168 -9.12726,0.26397 -11.39591,5.2601 -1.56373,3.44372 -1.88362,6.62098 -1.90189,18.89007 l -0.022,14.75 -6,0 -6,0 -0.006,-14.75 c -0.007,-17.90227 -0.87838,-21.75016 -5.41706,-23.9145 -2.85047,-1.35929 -3.68805,-1.38751 -6.10079,-0.20555 -1.53819,0.75352 -3.73717,2.63937 -4.88664,4.19075 -1.87413,2.52944 -2.12482,4.4655 -2.42779,18.75 l -0.33784,15.9293 -5.91214,0 -5.91214,0 0,-24 z"
         style="fill:#e32939" />
      <path
         id="xpath4157"
         d="m 387.57143,655.14789 0,-62.5 23.84411,0 23.84411,0 10.40589,24.19016 c 5.72324,13.3046 11.08089,24.96851 11.90589,25.91982 1.26966,1.46404 4.22422,1.83518 19.24029,2.41692 16.04723,0.62168 17.80155,0.52765 18.38212,-0.98531 0.39646,-1.03316 -2.42243,-8.24216 -7.37358,-18.85709 -8.7864,-18.83747 -92.63,-197.43738 -97.32972,-207.32747 -3.03047,-6.37731 -3.90287,-13.35801 -1.66911,-13.35578 0.6875,6.9e-4 17.9,5.66826 38.25,12.59461 20.35,6.92634 47.35,16.1108 60,20.4099 54.86579,18.64611 50.5011,16.92932 50.49022,19.85965 -0.0133,3.573 -23.68432,191.16202 -24.18511,191.66281 -1.07522,1.07522 -123.89612,68.47178 -124.78034,68.47178 -0.68876,0 -1.02477,-20.4927 -1.02477,-62.5 z m 0.66667,-96.16667 c -0.36667,-0.36666 -0.66667,-15.53166 -0.66667,-33.7 0,-19.36399 0.36857,-32.64022 0.89069,-32.08333 1.42236,1.51706 31.10931,63.66811 31.10931,65.12881 0,1.03748 -3.29269,1.32119 -15.33333,1.32119 -8.43334,0 -15.63334,-0.3 -16,-0.66667 z M 274.86948,356.94845 c -1.21107,-0.23489 -3.57357,-1.98926 -5.25,-3.89861 -2.66298,-3.03298 -3.04805,-4.21919 -3.04805,-9.38969 0,-3.25499 0.53868,-7.10042 1.19706,-8.54542 1.84023,-4.03886 8.11701,-6.72046 16.80294,-7.17862 11.00357,-0.58042 12,-0.90202 12,-3.87301 0,-6.71324 -5.29511,-9.27076 -14.32478,-6.91883 -3.17504,0.82699 -6.35361,1.50362 -7.0635,1.50362 -1.33581,0 -3.61172,-4.06635 -3.61172,-6.45305 0,-2.24428 8.71562,-4.54695 17.21026,-4.54695 8.75002,0 13.04443,1.3938 16.78974,5.44929 2.47264,2.67742 2.50336,2.93058 2.80719,23.12888 l 0.30719,20.42183 -4.07863,0 c -3.38012,0 -4.27371,-0.42815 -5.2177,-2.5 -1.19463,-2.62191 -3.22499,-3.26862 -4.3824,-1.39587 -2.14025,3.46298 -12.639,5.6508 -20.1376,4.19643 z m 16.55692,-9.72556 c 3.1546,-1.63131 5.14503,-5.34637 5.14503,-9.603 0,-2.29755 -0.54366,-3.07035 -2.50657,-3.56301 -6.27149,-1.57404 -15.49343,3.49368 -15.49343,8.51409 0,5.14141 7.00579,7.67664 12.85497,4.65192 z m 33.16496,8.73759 c -7.28913,-3.79653 -10.44164,-12.06549 -9.84097,-25.81259 0.45751,-10.47071 3.01622,-16.35847 8.82104,-20.29781 2.9919,-2.0304 4.45113,-2.32324 10.05176,-2.01721 4.8734,0.26629 7.27308,0.92538 9.36754,2.57288 1.54868,1.21819 3.21288,1.96946 3.69824,1.6695 0.48535,-0.29997 0.88246,-5.71629 0.88246,-12.03628 l 0,-11.49089 5.75,0.29991 5.75,0.2999 0.2633,33.75 0.2633,33.75 -5.0133,0 c -2.75731,0 -5.0133,-0.36399 -5.0133,-0.80887 0,-0.44488 -0.60965,-1.64262 -1.35479,-2.66165 -1.29792,-1.77501 -1.5063,-1.73722 -4.96449,0.90048 -4.79747,3.6592 -13.55378,4.5426 -18.66079,1.88263 z m 18.03546,-9.34223 c 5.22528,-2.79649 7.18481,-17.43748 3.24082,-24.2143 -2.42966,-4.17479 -7.50088,-6.04762 -11.79621,-4.35642 -3.95347,1.55661 -7.50749,8.47746 -7.47804,14.56225 0.0251,5.19181 2.91484,12.32483 5.63312,13.90489 2.3658,1.37518 7.92093,1.4305 10.40031,0.10358 z m 40.44461,10.15821 c -11.95174,-3.16317 -17.09591,-11.55334 -16.30639,-26.59577 0.78604,-14.97591 6.90786,-21.52208 20.88354,-22.33112 9.67957,-0.56035 15.60988,1.85717 19.69367,8.02819 2.25848,3.4128 2.64536,5.089 2.68402,11.62885 l 0.0452,7.64128 -15.25,0.27605 -15.25,0.27604 0,2.75145 c 0,8.43005 10.35216,12.42009 22.59107,8.70728 2.69991,-0.81904 5.02143,-1.49404 5.15893,-1.5 0.1375,-0.006 0.25,2.02532 0.25,4.51393 0,4.00873 -0.31362,4.64739 -2.75,5.60011 -3.52504,1.37843 -17.83841,2.03896 -21.75,1.00371 z m 15.18328,-30.74558 c 1.77671,-4.63004 -5.46241,-11.40819 -10.76317,-10.07779 -5.2579,1.31965 -9.96741,8.78433 -6.80546,10.78682 0.76194,0.48255 4.88697,0.88425 9.16673,0.89267 6.25399,0.0123 7.90319,-0.30209 8.4019,-1.6017 z m -211.68328,6.61701 0,-24 4.52475,0 c 3.90627,0 4.65467,0.34172 5.47525,2.5 1.10874,2.9162 2.22107,3.14395 4.12755,0.8451 2.13788,-2.57787 7.33381,-4.3451 12.77523,-4.3451 5.80994,0 9.69948,1.29222 12.89216,4.28315 1.90045,1.78035 2.58804,1.93832 4,0.91897 6.39498,-4.61682 7.9019,-5.19477 13.55393,-5.19838 7.15542,-0.005 12.15851,2.20552 14.44518,6.3811 1.40818,2.57142 1.76269,6.56245 2.03101,22.86516 l 0.32506,19.75 -6.07506,0 -6.07506,0 0,-14.97976 c 0,-16.77523 -1.21343,-21.8852 -5.68024,-23.92041 -4.30543,-1.96168 -9.12726,0.26397 -11.39591,5.2601 -1.56373,3.44372 -1.88362,6.62098 -1.90189,18.89007 l -0.022,14.75 -6,0 -6,0 -0.006,-14.75 c -0.007,-17.90227 -0.87838,-21.75016 -5.41706,-23.9145 -2.85047,-1.35929 -3.68805,-1.38751 -6.10079,-0.20555 -1.53819,0.75352 -3.73717,2.63937 -4.88664,4.19075 -1.87413,2.52944 -2.12482,4.4655 -2.42779,18.75 l -0.33784,15.9293 -5.91214,0 -5.91214,0 0,-24 z"
         style="fill:#6c6c6c" />
      <path
         id="xpath4155"
         d="m 387.57143,655.14789 0,-62.5 23.84411,0 23.84411,0 10.40589,24.19016 c 5.72324,13.3046 11.08089,24.96851 11.90589,25.91982 1.26966,1.46404 4.22422,1.83518 19.24029,2.41692 16.04723,0.62168 17.80155,0.52765 18.38212,-0.98531 0.39646,-1.03316 -2.42243,-8.24216 -7.37358,-18.85709 -8.7864,-18.83747 -92.63,-197.43738 -97.32972,-207.32747 -3.03047,-6.37731 -3.90287,-13.35801 -1.66911,-13.35578 0.6875,6.9e-4 17.9,5.66826 38.25,12.59461 20.35,6.92634 47.35,16.1108 60,20.4099 54.86579,18.64611 50.5011,16.92932 50.49022,19.85965 -0.0133,3.573 -23.68432,191.16202 -24.18511,191.66281 -1.07522,1.07522 -123.89612,68.47178 -124.78034,68.47178 -0.68876,0 -1.02477,-20.4927 -1.02477,-62.5 z m 0.66667,-96.16667 c -0.36667,-0.36666 -0.66667,-15.53166 -0.66667,-33.7 0,-19.36399 0.36857,-32.64022 0.89069,-32.08333 1.42236,1.51706 31.10931,63.66811 31.10931,65.12881 0,1.03748 -3.29269,1.32119 -15.33333,1.32119 -8.43334,0 -15.63334,-0.3 -16,-0.66667 z M 276.37089,355.93641 c -1.48529,-0.2265 -4.07279,-1.97473 -5.75,-3.88497 -2.53218,-2.88399 -3.04946,-4.32382 -3.04946,-8.48801 0,-9.95104 4.63513,-13.73703 17.8257,-14.56006 10.40573,-0.64928 11.94196,-1.04808 12.65174,-3.2844 1.02711,-3.23613 -1.8869,-8.58383 -5.49084,-10.07663 -3.15884,-1.30844 -7.26721,-0.9033 -15.54569,1.53299 -1.56296,0.45997 -2.34604,-0.0238 -3.25,-2.00778 -0.655,-1.43757 -1.19091,-2.80016 -1.19091,-3.02797 0,-1.08684 10.98729,-3.49106 15.9315,-3.48611 7.7048,0.008 12.17504,1.45284 15.62535,5.05129 l 2.94315,3.06954 0.30943,19.43679 0.30942,19.4368 -3.08417,0 c -2.37801,0 -3.30405,-0.57829 -4.04442,-2.52563 -1.3998,-3.68174 -3.54896,-4.02348 -7.00655,-1.11412 -4.59395,3.86556 -9.79653,5.05486 -17.18425,3.92827 z m 16.70054,-8.15311 c 3.80833,-2.19056 6.31359,-9.05435 4.64306,-12.72078 -0.92597,-2.03227 -1.81296,-2.41463 -5.60138,-2.41463 -6.00091,0 -11.99484,2.50441 -13.40588,5.6013 -2.32238,5.09707 -1.15213,9.03873 3.26386,10.99346 3.4554,1.52951 6.62968,1.11219 11.10034,-1.45935 z m 33.83291,7.7673 c -13.33077,-3.85946 -15.45307,-35.10894 -3.00958,-44.31413 4.15912,-3.07674 14.5635,-2.98297 17.91056,0.16142 1.31726,1.2375 3.37851,2.25 4.58056,2.25 2.1207,0 2.18555,-0.34122 2.18555,-11.5 l 0,-11.5 5,0 5,0 0,32.5 0,32.5 -3.75,-0.006 c -3.11567,-0.005 -4.03815,-0.51272 -5.45349,-3 -0.93692,-1.64655 -2.09337,-2.9937 -2.56989,-2.9937 -0.47652,0 -2.32071,1.2984 -4.09819,2.88534 -4.43825,3.96247 -9.31399,4.89386 -15.79552,3.01737 z m 15.13279,-7.32393 c 4.98948,-2.08474 6.9905,-6.52891 7.01445,-15.57878 0.0254,-9.57817 -2.17193,-13.83473 -8.2361,-15.95492 -3.74985,-1.31105 -4.51682,-1.28543 -7.75567,0.25907 -9.80028,4.67343 -9.99467,26.96638 -0.27199,31.19085 4.16895,1.81139 5.09448,1.81978 9.24931,0.0838 z m 44.0343,7.79247 c -10.41576,-2.61215 -14.83228,-6.26657 -17.13138,-14.1752 -2.054,-7.06549 -1.34786,-17.35626 1.58551,-23.10613 2.88463,-5.65435 8.48357,-9.13914 15.72923,-9.78991 14.65901,-1.31658 23.29244,6.25723 23.31106,20.44999 l 0.006,4.25 -14.87756,0 c -17.5383,0 -18.46067,0.41916 -16.06323,7.29976 0.92756,2.66209 2.68753,4.97807 4.94079,6.50168 3.11378,2.10548 4.32762,2.31514 11,1.89997 4.125,-0.25667 8.5125,-0.79697 9.75,-1.20067 2.01161,-0.65623 2.25,-0.40116 2.25,2.40738 0,2.3858 -0.57074,3.35838 -2.37289,4.04355 -2.94722,1.12054 -15.42361,2.09759 -18.12711,1.41958 z m 13.81418,-29.50301 c 1.50898,-2.3989 -1.01091,-7.71213 -4.73449,-9.98277 -5.5023,-3.3553 -12.51387,-1.84721 -15.15469,3.25955 -1.51763,2.93478 -1.88159,7.06505 -0.72454,8.22211 0.38525,0.38525 4.95,0.57275 10.14388,0.41666 7.43358,-0.22339 9.66187,-0.63108 10.46984,-1.91555 z m -212.31418,6.13176 0,-23 3.52475,0 c 2.8396,0 3.70951,0.48596 4.47525,2.5 1.09753,2.88673 4.0919,3.2997 6.12755,0.8451 3.22862,-3.89309 12.56773,-5.54452 18.55735,-3.28148 1.5483,0.58499 4.05475,2.24624 5.56989,3.69168 l 2.75478,2.62805 2.74522,-2.21922 c 6.7747,-5.47667 16.50895,-6.65832 22.50196,-2.73156 4.50159,2.94956 5.11995,5.83218 5.5382,25.81743 l 0.39239,18.75 -5.09367,0 -5.09367,0 0,-15.35078 c 0,-17.09702 -0.8528,-21.00462 -5.05876,-23.17961 -5.61769,-2.90502 -11.07953,-1.07904 -14.02145,4.68761 -1.64115,3.21692 -1.91979,5.946 -1.91979,18.80294 l 0,15.03984 -5,0 -5,0 0,-15.35078 c 0,-17.09702 -0.8528,-21.00462 -5.05876,-23.17961 -5.7675,-2.98249 -10.96572,-1.11622 -13.92648,4.99991 -1.73926,3.59282 -2.01476,6.16989 -2.01476,18.8462 l 0,14.68428 -5,0 -5,0 0,-23 z"
         style="fill:#5e5f5e" />
      <path
         id="xpath4153"
         d="m 387.57143,655.14789 0,-62.5 23.84411,0 23.84411,0 10.40589,24.19016 c 5.72324,13.3046 11.08089,24.96851 11.90589,25.91982 1.26966,1.46404 4.22422,1.83518 19.24029,2.41692 16.04723,0.62168 17.80155,0.52765 18.38212,-0.98531 0.39646,-1.03316 -2.42243,-8.24216 -7.37358,-18.85709 -8.7864,-18.83747 -92.63,-197.43738 -97.32972,-207.32747 -3.03047,-6.37731 -3.90287,-13.35801 -1.66911,-13.35578 0.6875,6.9e-4 17.9,5.66826 38.25,12.59461 20.35,6.92634 47.35,16.1108 60,20.4099 54.86579,18.64611 50.5011,16.92932 50.49022,19.85965 -0.0133,3.573 -23.68432,191.16202 -24.18511,191.66281 -1.07522,1.07522 -123.89612,68.47178 -124.78034,68.47178 -0.68876,0 -1.02477,-20.4927 -1.02477,-62.5 z m 0.66667,-96.16667 c -0.36667,-0.36666 -0.66667,-15.53166 -0.66667,-33.7 0,-19.36399 0.36857,-32.64022 0.89069,-32.08333 1.42236,1.51706 31.10931,63.66811 31.10931,65.12881 0,1.03748 -3.29269,1.32119 -15.33333,1.32119 -8.43334,0 -15.63334,-0.3 -16,-0.66667 z"
         style="fill:#b62833" />
    </g>
  </g>
</svg>
