<?xml version="1.0" encoding="UTF-8" standalone="no"?>
<!-- Created with Inkscape (http://www.inkscape.org/) -->

<svg
   xmlns:dc="http://purl.org/dc/elements/1.1/"
   xmlns:cc="http://creativecommons.org/ns#"
   xmlns:rdf="http://www.w3.org/1999/02/22-rdf-syntax-ns#"
   xmlns:svg="http://www.w3.org/2000/svg"
   xmlns="http://www.w3.org/2000/svg"
   xmlns:sodipodi="http://sodipodi.sourceforge.net/DTD/sodipodi-0.dtd"
   xmlns:inkscape="http://www.inkscape.org/namespaces/inkscape"
   width="100"
   height="100"
   viewBox="0 0 100 100"
   id="svg4786"
   version="1.1"
   inkscape:version="0.91 r13725"
   sodipodi:docname="letter_o.svg">
  <defs
     id="defs4788" />
  <sodipodi:namedview
     id="base"
     pagecolor="#ffffff"
     bordercolor="#666666"
     borderopacity="1.0"
     inkscape:pageopacity="0.0"
     inkscape:pageshadow="2"
     inkscape:zoom="0.98994949"
     inkscape:cx="226.0025"
     inkscape:cy="115.93898"
     inkscape:document-units="px"
     inkscape:current-layer="layer1"
     showgrid="false"
     units="px"
     inkscape:window-width="1600"
     inkscape:window-height="847"
     inkscape:window-x="-8"
     inkscape:window-y="-8"
     inkscape:window-maximized="1" />
  <metadata
     id="metadata4791">
    <rdf:RDF>
      <cc:Work
         rdf:about="">
        <dc:format>image/svg+xml</dc:format>
        <dc:type
           rdf:resource="http://purl.org/dc/dcmitype/StillImage" />
        <dc:title></dc:title>
      </cc:Work>
    </rdf:RDF>
  </metadata>
  <g
     inkscape:label="Layer 1"
     inkscape:groupmode="layer"
     id="layer1"
     transform="translate(0,-952.36216)">
    <text
       xml:space="preserve"
       style="font-style:normal;font-weight:normal;font-size:90px;line-height:125%;font-family:sans-serif;letter-spacing:0px;word-spacing:0px;fill:#000000;fill-opacity:1;stroke:none;stroke-width:1px;stroke-linecap:butt;stroke-linejoin:miter;stroke-opacity:1;"
       x="21.213203"
       y="1018.017"
       id="text4794"
       sodipodi:linespacing="125%"><tspan
         sodipodi:role="line"
         id="tspan4796"
         x="21.213203"
         y="1018.017" /></text>
    <text
       xml:space="preserve"
       style="font-style:normal;font-weight:normal;font-size:90px;line-height:125%;font-family:sans-serif;letter-spacing:0px;word-spacing:0px;fill:#000000;fill-opacity:1;stroke:none;stroke-width:1px;stroke-linecap:butt;stroke-linejoin:miter;stroke-opacity:1;"
       x="22.223356"
       y="1028.1185"
       id="text4800"
       sodipodi:linespacing="125%"><tspan
         sodipodi:role="line"
         id="tspan4802"
         x="22.223356"
         y="1028.1185" /></text>
    <path
       style="color:#000000;font-style:normal;font-variant:normal;font-weight:normal;font-stretch:normal;font-size:174.58354187px;line-height:125%;font-family:sans-serif;text-indent:0;text-align:start;text-decoration:none;text-decoration-line:none;text-decoration-style:solid;text-decoration-color:#000000;letter-spacing:0px;word-spacing:0px;text-transform:none;direction:ltr;block-progression:tb;writing-mode:lr-tb;baseline-shift:baseline;text-anchor:start;white-space:normal;clip-rule:nonzero;display:inline;overflow:visible;visibility:visible;opacity:1;isolation:auto;mix-blend-mode:normal;color-interpolation:sRGB;color-interpolation-filters:linearRGB;solid-color:#000000;solid-opacity:1;fill:#f30000;fill-opacity:0.94082839;fill-rule:nonzero;stroke:none;stroke-width:1px;stroke-linecap:butt;stroke-linejoin:miter;stroke-miterlimit:4;stroke-dasharray:none;stroke-dashoffset:0;stroke-opacity:1;color-rendering:auto;image-rendering:auto;shape-rendering:auto;text-rendering:auto;enable-background:accumulate"
       d="m 48.557769,953.60601 c -14.344933,0 -25.841713,4.3393 -34.343425,12.99338 -8.4436427,8.60239 -12.6464337,20.32678 -12.6464337,35.09531 0,14.7684 4.202791,26.4947 12.6464337,35.0971 l 0.0021,0 c 8.502136,8.6 19.997173,12.912 34.341362,12.912 14.225131,0 25.660569,-4.3128 34.161877,-12.912 8.504162,-8.6021 12.739271,-20.3281 12.739271,-35.0971 0,-14.76843 -4.235852,-26.4933 -12.739271,-35.09531 -8.500889,-8.65323 -19.935997,-12.99338 -34.161877,-12.99338 z m 0,0.94672 c 13.987655,0 25.062493,4.21556 33.369669,12.67159 l 0.0021,0.002 c 8.303901,8.3996 12.473139,19.86119 12.473139,34.46849 0,14.6072 -4.169238,26.0707 -12.473139,34.4703 -8.306756,8.4024 -19.383327,12.5921 -33.371732,12.5921 -14.108873,0 -25.243336,-4.1913 -33.549155,-12.5921 -8.2443624,-8.3993 -12.3844273,-19.8625 -12.3844273,-34.4703 0,-14.60787 4.1400649,-26.07097 12.3844273,-34.47038 8.306353,-8.45517 19.440436,-12.67159 33.549155,-12.67159 z m 0,12.12798 c -9.306373,0 -16.644266,2.92007 -21.843466,8.73133 -5.153288,5.77349 -7.678635,14.54639 -7.678635,26.28266 0,11.3624 2.561693,20.0559 7.765283,26.0367 l 0.0021,0 c 5.197071,5.9184 12.505292,8.8959 21.754755,8.8959 9.129899,0 16.376643,-2.9514 21.573207,-8.8146 5.267377,-5.9287 7.858119,-14.6496 7.858119,-26.1198 0,-11.73571 -2.556171,-20.50945 -7.769407,-26.28266 l -0.0021,-0.002 c -5.19781,-5.80842 -12.473034,-8.72944 -21.659855,-8.72944 z m 0,0.94672 c 8.940767,0 15.831804,2.77996 20.838766,8.37631 l 0,0.002 c 4.990496,5.52536 7.536283,14.07577 7.536283,25.68916 0,11.3422 -2.571544,19.8374 -7.629121,25.53 l 0,0 c -5.008331,5.6507 -11.867188,8.4557 -20.745928,8.4557 -8.998173,0 -15.915673,-2.8319 -20.923351,-8.5334 l -0.0021,-0 c -5.00019,-5.7482 -7.54041,-14.219 -7.54041,-25.4524 0,-11.61415 2.516024,-20.16589 7.447574,-25.69096 5.005696,-5.59493 11.95581,-8.37631 21.01825,-8.37631 z"
       id="text5350"
       inkscape:connector-curvature="0" />
  </g>
</svg>
