<?xml version="1.0" encoding="UTF-8" standalone="no"?>
<!-- Created with Inkscape (http://www.inkscape.org/) -->

<svg
   xmlns:osb="http://www.openswatchbook.org/uri/2009/osb"
   xmlns:dc="http://purl.org/dc/elements/1.1/"
   xmlns:cc="http://creativecommons.org/ns#"
   xmlns:rdf="http://www.w3.org/1999/02/22-rdf-syntax-ns#"
   xmlns:svg="http://www.w3.org/2000/svg"
   xmlns="http://www.w3.org/2000/svg"
   xmlns:sodipodi="http://sodipodi.sourceforge.net/DTD/sodipodi-0.dtd"
   xmlns:inkscape="http://www.inkscape.org/namespaces/inkscape"
   id="svg4136"
   version="1.1"
   inkscape:version="0.91 r13725"
   width="150"
   height="150"
   viewBox="0 0 150 150"
   sodipodi:docname="madeWithAngularAlt.svg">
  <metadata
     id="metadata4142">
    <rdf:RDF>
      <cc:Work
         rdf:about="">
        <dc:format>image/svg+xml</dc:format>
        <dc:type
           rdf:resource="http://purl.org/dc/dcmitype/StillImage" />
        <dc:title></dc:title>
      </cc:Work>
    </rdf:RDF>
  </metadata>
  <defs
     id="defs4140">
    <linearGradient
       id="linearGradient4148"
       osb:paint="solid">
      <stop
         style="stop-color:#e10000;stop-opacity:1;"
         offset="0"
         id="stop4150" />
    </linearGradient>
  </defs>
  <sodipodi:namedview
     pagecolor="#ffffff"
     bordercolor="#666666"
     borderopacity="1"
     objecttolerance="10"
     gridtolerance="10"
     guidetolerance="10"
     inkscape:pageopacity="0"
     inkscape:pageshadow="2"
     inkscape:window-width="1600"
     inkscape:window-height="847"
     id="namedview4138"
     showgrid="false"
     inkscape:zoom="2.712"
     inkscape:cx="72.759037"
     inkscape:cy="73.00885"
     inkscape:window-x="-8"
     inkscape:window-y="-8"
     inkscape:window-maximized="1"
     inkscape:current-layer="svg4136" />
  <path
     style="color:#000000;font-style:normal;font-variant:normal;font-weight:normal;font-stretch:normal;font-size:medium;line-height:normal;font-family:sans-serif;text-indent:0;text-align:start;text-decoration:none;text-decoration-line:none;text-decoration-style:solid;text-decoration-color:#000000;letter-spacing:normal;word-spacing:normal;text-transform:none;direction:ltr;block-progression:tb;writing-mode:lr-tb;baseline-shift:baseline;text-anchor:start;white-space:normal;clip-rule:nonzero;display:inline;overflow:visible;visibility:visible;opacity:1;isolation:auto;mix-blend-mode:normal;color-interpolation:sRGB;color-interpolation-filters:linearRGB;solid-color:#000000;solid-opacity:1;fill:#090000;fill-opacity:1;fill-rule:nonzero;stroke:#110000;stroke-width:1;stroke-linecap:butt;stroke-linejoin:miter;stroke-miterlimit:4;stroke-dasharray:none;stroke-dashoffset:0;stroke-opacity:1;color-rendering:auto;image-rendering:auto;shape-rendering:auto;text-rendering:auto;enable-background:accumulate"
     d="m 63.837891,11.308594 -0.08398,3.232422 -0.08203,3.189453 -1.056641,-0.529297 c -1.099116,-0.55191 -2.548634,-0.651087 -3.878906,-0.390625 -1.330271,0.260462 -2.542565,0.87896 -3.166016,1.769531 -1.162247,1.660231 -1.418405,2.765016 -1.408203,6.042969 0.0043,1.366677 0.02959,2.209936 0.128907,2.861328 0.09931,0.651392 0.271716,1.110406 0.566406,1.703125 0.71139,1.4308 1.830797,2.417566 3.207031,2.826172 l 0.0039,0 c 1.851684,0.548341 4.086707,0.162749 5.244141,-0.908203 l 0.658203,-0.607422 0.349609,0.753906 c 0.08479,0.183274 0.155643,0.322448 0.242188,0.429688 0.08655,0.107239 0.18842,0.180262 0.332031,0.226562 0.287223,0.0926 0.737986,0.08302 1.580078,0.04297 l 1.796875,-0.08594 0,-10.277343 0,-10.279297 -2.216796,0 -2.216797,0 z m 0.03125,0.03125 2.185547,0 2.185546,0 0,10.248047 0,10.246093 -1.765625,0.08398 c -0.841817,0.04004 -1.29324,0.05026 -1.570312,-0.03906 -0.138536,-0.04466 -0.233088,-0.113555 -0.316406,-0.216797 -0.08332,-0.103241 -0.153745,-0.241097 -0.238282,-0.423828 l -0.367187,-0.794922 -0.691406,0.638672 c -1.145905,1.060285 -3.377005,1.447197 -5.21875,0.900391 -8.63e-4,-2.56e-4 -0.0011,-0.0017 -0.002,-0.002 -1.36612,-0.406421 -2.47599,-1.383459 -3.183593,-2.806641 -0.29398,-0.591291 -0.465634,-1.045204 -0.564453,-1.693359 -0.09882,-0.648156 -0.124647,-1.491119 -0.128907,-2.857422 -0.0102,-3.276267 0.244585,-4.366828 1.404297,-6.023438 0.616259,-0.880298 1.820063,-1.498486 3.144532,-1.757812 1.324468,-0.259326 2.768981,-0.160811 3.859374,0.386719 l 1.101563,0.554687 0.08398,-3.242187 0.08203,-3.201172 z m 59.697269,0.113281 0,10.085937 c 0,2.769291 0.0245,5.309135 0.0625,7.171876 0.019,0.93137 0.0413,1.694171 0.0664,2.230468 0.0125,0.268149 0.0254,0.480326 0.0391,0.628906 0.007,0.07429 0.0143,0.131644 0.0215,0.173829 0.004,0.02109 0.006,0.03755 0.01,0.05078 0.004,0.01323 0.007,0.02304 0.0156,0.03125 l 0.01,0.0098 0.004,-0.0039 c 0.0341,0.02872 0.0835,0.05328 0.15625,0.07227 0.079,0.02062 0.17933,0.0359 0.29297,0.04687 0.22729,0.02196 0.51056,0.02373 0.79688,0 l 1.05273,-0.08594 0.1582,-4.929687 c 0.10074,-3.129342 0.19914,-4.795632 0.65039,-5.78125 0.22563,-0.492809 0.5386,-0.816033 0.98633,-1.070313 0.44774,-0.254279 1.03011,-0.438346 1.79297,-0.65039 0.39859,-0.110795 1.02738,-0.03961 1.62109,0.140625 0.59372,0.180238 1.153,0.469754 1.41602,0.78125 0.0668,0.0791 0.13047,0.244024 0.18555,0.507812 0.0551,0.263788 0.10364,0.626236 0.14648,1.103516 0.0857,0.954561 0.14814,2.365853 0.20117,4.361328 l 0.14844,5.537109 1.33594,0 1.33594,0 -0.006,-5.652343 c -0.003,-3.16192 -0.0626,-4.983067 -0.34571,-6.152344 -0.28314,-1.169277 -0.79191,-1.687267 -1.6875,-2.232422 -1.00377,-0.611021 -2.40316,-0.86885 -3.74609,-0.800781 -1.34293,0.06807 -2.63155,0.46146 -3.41406,1.164062 l -0.63282,0.56836 0,-3.626954 0,-3.679687 -1.33593,0 -1.33789,0 z m 0.0312,0.03125 1.30664,0 1.30468,0 0,3.648437 0,3.699219 0.68555,-0.615234 c 0.77395,-0.694908 2.05683,-1.090399 3.39453,-1.158203 1.3377,-0.0678 2.73064,0.190636 3.72656,0.796875 0.89255,0.543305 1.39224,1.050015 1.67383,2.21289 0.2816,1.162876 0.34236,2.983002 0.34571,6.144532 l 0.006,5.621093 -1.30469,0 -1.30469,0 -0.14648,-5.505859 c -0.053,-1.995755 -0.11732,-3.409283 -0.20313,-4.365234 -0.0429,-0.477976 -0.091,-0.841557 -0.14648,-1.107422 -0.0555,-0.265865 -0.1171,-0.433481 -0.19141,-0.521485 -0.2711,-0.321064 -0.83423,-0.607703 -1.43164,-0.789062 -0.59741,-0.181359 -1.22835,-0.256634 -1.63867,-0.142578 -0.76342,0.2122 -1.34847,0.397416 -1.80078,0.654297 -0.45232,0.256881 -0.77191,0.585787 -1,1.083984 -0.45619,0.996395 -0.55355,2.665283 -0.6543,5.794922 l -0.15625,4.898437 -1.02344,0.08594 c -0.28445,0.02357 -0.56806,0.02173 -0.79297,0 -0.11245,-0.01086 -0.21057,-0.02689 -0.28711,-0.04687 -0.0765,-0.01999 -0.13159,-0.04605 -0.15625,-0.07031 8e-5,-3.67e-4 -0.003,-0.0055 -0.006,-0.01563 -0.003,-0.01127 -0.006,-0.02846 -0.01,-0.04883 -0.007,-0.04074 -0.0147,-0.09803 -0.0215,-0.171875 -0.0136,-0.147684 -0.0265,-0.359062 -0.0391,-0.626953 -0.025,-0.535781 -0.0474,-1.297307 -0.0664,-2.228515 -0.038,-1.862418 -0.0625,-4.402766 -0.0625,-7.171876 l 0,-10.054687 z m 0.55664,0.257813 0,9.845703 0,9.84375 0.71875,0 0.71875,0 0.10351,-4.697266 0.002,-0.01563 c 0.0447,-2.031205 0.0897,-3.238411 0.1875,-4.042969 0.0978,-0.804558 0.24703,-1.205914 0.5,-1.628906 0.4748,-0.793933 0.95429,-1.324679 1.55078,-1.658203 0.59648,-0.333525 1.31065,-0.470703 2.25586,-0.470703 0.73581,0 1.17612,0.02636 1.5332,0.152343 0.35707,0.125985 0.63393,0.353331 1.04492,0.757813 l 0.92383,0.908203 0.0918,5.335938 0.0898,5.359375 0.87891,0 0.8789,0 0,-4.457032 c 0,-3.739552 -0.14798,-5.961522 -0.71289,-7.304687 -0.28245,-0.671583 -0.67037,-1.123515 -1.19531,-1.431641 -0.52494,-0.308125 -1.18535,-0.474 -2.01563,-0.576172 -1.97506,-0.243045 -3.10348,-0.01735 -4.4707,0.896485 -0.28832,0.19271 -0.58173,0.369212 -0.82226,0.496094 -0.12027,0.06344 -0.22638,0.115048 -0.3125,0.15039 -0.0861,0.03534 -0.15245,0.05273 -0.18555,0.05273 -0.004,0 -0.009,-0.0018 -0.0176,-0.01172 -0.008,-0.0099 -0.0183,-0.02623 -0.0273,-0.04883 -0.0182,-0.04519 -0.0359,-0.115259 -0.0527,-0.205078 -0.0338,-0.17964 -0.0631,-0.443219 -0.0879,-0.775391 -0.0496,-0.664345 -0.0801,-1.60333 -0.0801,-2.701172 l 0,-3.773437 -0.74804,0 -0.75,0 z m 0.0312,0.03125 0.71875,0 0.71679,0 0,3.742187 c 0,1.098408 0.0285,2.03943 0.0781,2.705078 0.0248,0.332824 0.0557,0.595501 0.0898,0.777344 0.0171,0.09092 0.0351,0.162136 0.0547,0.210937 0.01,0.0244 0.0197,0.0426 0.0312,0.05664 0.0116,0.01404 0.0264,0.02539 0.043,0.02539 0.044,0 0.10969,-0.0207 0.19726,-0.05664 0.0876,-0.03594 0.19552,-0.08857 0.31641,-0.152344 0.24178,-0.127538 0.53696,-0.302784 0.82617,-0.496093 1.36251,-0.910687 2.47603,-1.135153 4.44727,-0.892579 0.82817,0.101914 1.48479,0.267559 2.0039,0.572266 0.51912,0.304707 0.90125,0.749342 1.18164,1.416016 0.56079,1.333347 0.70899,3.554261 0.70899,7.292968 l 0,4.425782 -0.8457,0 -0.84571,0 -0.0918,-5.328125 -0.0918,-5.34961 -0.93359,-0.917968 c -0.41186,-0.405339 -0.69312,-0.635412 -1.05664,-0.763672 -0.36353,-0.128261 -0.80641,-0.154297 -1.54297,-0.154297 -0.94828,0 -1.66874,0.137584 -2.27149,0.474609 -0.60275,0.337026 -1.08605,0.873235 -1.5625,1.669922 -0.2547,0.425898 -0.40575,0.833448 -0.5039,1.640625 -0.0978,0.804067 -0.14487,2.013986 -0.18946,4.03125 -1.7e-4,0.0078 1.7e-4,0.0078 0,0.01563 l -0.10351,4.681641 -0.6875,0 -0.6875,0 0,-9.8125 0,-9.814453 z m -59.970706,0.257812 0.105468,3.486328 c 0.04735,1.575045 0.06142,2.441208 0.0059,2.91211 -0.02778,0.23545 -0.07276,0.370514 -0.136719,0.445312 -0.06396,0.0748 -0.148882,0.09375 -0.263672,0.09375 -0.139013,0 -0.265294,-0.02799 -0.355469,-0.07422 -0.09017,-0.04622 -0.140624,-0.107983 -0.140624,-0.171875 0,-0.02366 -0.01234,-0.04913 -0.03125,-0.07617 -0.01891,-0.02705 -0.04551,-0.05739 -0.08008,-0.08984 -0.06913,-0.06491 -0.169044,-0.140551 -0.291015,-0.222657 -0.243944,-0.164212 -0.579844,-0.353186 -0.949219,-0.529296 -1.62708,-0.775785 -3.220529,-0.700125 -4.511719,0.07031 -1.29119,0.770437 -2.278432,2.234093 -2.699218,4.230469 -0.319007,1.51347 -0.276952,3.240002 0.03906,4.757812 0.316014,1.51781 0.905106,2.827332 1.683594,3.507813 1.502806,1.313618 3.837454,1.55209 5.734375,0.585937 0.230154,-0.117223 0.457232,-0.270271 0.638672,-0.423828 0.181439,-0.153557 0.318201,-0.307011 0.365234,-0.427734 0.07093,-0.182057 0.177735,-0.300664 0.304687,-0.363281 0.126953,-0.06262 0.274935,-0.06924 0.423829,-0.02539 0.297787,0.0877 0.604044,0.381368 0.765625,0.837891 0.07022,0.198405 0.130234,0.35244 0.203125,0.472656 0.07289,0.120216 0.159213,0.205333 0.273437,0.265625 0.228449,0.120584 0.570998,0.138672 1.181641,0.138672 l 1.351562,0 0,-9.699219 0,-9.701172 -1.808593,0 -1.808594,0 z m 45.183596,0 c -0.75244,0 -1.3019,0.458784 -1.52344,1.052734 -0.22062,0.591466 -0.11422,1.316497 0.42969,1.857422 l 0,0.0039 0.004,0.0039 c 0.35883,0.353389 0.70962,0.539923 1.0625,0.55664 0.35289,0.01672 0.70583,-0.137368 1.06446,-0.457031 1.06265,-0.947179 0.35183,-3.017578 -1.03711,-3.017578 z m -45.150393,0.03125 1.775391,0 1.77539,0 0,9.669922 0,9.667969 -1.318359,0 c -0.609988,0 -0.950173,-0.0198 -1.167969,-0.134766 -0.108898,-0.05748 -0.189023,-0.139186 -0.259766,-0.255859 -0.07074,-0.116674 -0.131179,-0.269043 -0.201172,-0.466797 -0.164379,-0.464428 -0.476553,-0.765967 -0.787109,-0.857422 -0.155278,-0.04573 -0.310447,-0.03722 -0.445312,0.0293 -0.134866,0.06652 -0.249032,0.190938 -0.322266,0.378906 -0.04265,0.109467 -0.174105,0.262222 -0.353516,0.414062 -0.17941,0.151841 -0.405146,0.303966 -0.632812,0.419922 -1.88556,0.960367 -4.207345,0.723984 -5.699219,-0.580078 -0.769162,-0.672329 -1.358684,-1.976604 -1.673828,-3.490234 -0.315144,-1.51363 -0.356936,-3.236041 -0.03906,-4.744141 0.419353,-1.989574 1.403504,-3.445959 2.685546,-4.210937 1.282043,-0.764979 2.86144,-0.840305 4.480469,-0.06836 0.368115,0.17551 0.703183,0.364354 0.945313,0.527344 0.121064,0.0815 0.220056,0.155788 0.287109,0.21875 0.03353,0.03148 0.05921,0.06168 0.07617,0.08594 0.01696,0.02426 0.02344,0.0441 0.02344,0.05664 0,0.08092 0.06414,0.149997 0.160157,0.199219 0.09602,0.04922 0.225653,0.08008 0.36914,0.08008 0.118435,3e-6 0.215786,-0.02205 0.28711,-0.105469 0.07132,-0.08342 0.116445,-0.224866 0.144531,-0.46289 0.05617,-0.476048 0.04149,-1.342764 -0.0059,-2.917969 L 64.248047,12.0625 Z m 45.150393,0 c 1.35703,0 2.05563,2.03589 1.01562,2.962891 -0.35467,0.316137 -0.69836,0.465451 -1.04101,0.449218 -0.34266,-0.01623 -0.68562,-0.198817 -1.04102,-0.548828 -0.54113,-0.532981 -0.64317,-1.24725 -0.42578,-1.830078 0.21739,-0.582827 0.75274,-1.033203 1.49219,-1.033203 z m -0.0508,0.691406 c -0.34905,0 -0.578,0.03462 -0.73047,0.138672 -0.15248,0.104052 -0.22356,0.275863 -0.26172,0.541016 -0.0826,0.573647 0.10526,1.035692 0.43164,1.28125 0.32638,0.245557 0.78941,0.273183 1.25195,-0.01563 0.11656,-0.07278 0.20466,-0.228288 0.25782,-0.423828 0.0532,-0.195541 0.0707,-0.432499 0.043,-0.671875 -0.0415,-0.358353 -0.0969,-0.571086 -0.24218,-0.695313 -0.14527,-0.124226 -0.37264,-0.154297 -0.75,-0.154297 z m 0,0.03125 c 0.37565,0 0.59403,0.03148 0.72851,0.146485 0.13449,0.115008 0.19113,0.319294 0.23242,0.675781 0.0273,0.235393 0.009,0.469181 -0.043,0.660156 -0.0519,0.190975 -0.137,0.338621 -0.24218,0.404297 -0.45367,0.283262 -0.90111,0.255091 -1.2168,0.01758 -0.31569,-0.237512 -0.50117,-0.685497 -0.41992,-1.25 0.0376,-0.261528 0.10524,-0.424031 0.24805,-0.521484 0.1428,-0.09745 0.36598,-0.132813 0.71289,-0.132813 z m 7.04296,1.414063 c -0.19947,0 -0.35758,0.0078 -0.49023,0.04101 -0.13264,0.03317 -0.2387,0.09273 -0.33203,0.191407 -0.18665,0.197356 -0.32054,0.551793 -0.52539,1.189453 -0.18056,0.562048 -0.34391,0.936516 -0.5625,1.216797 -0.21859,0.280281 -0.4927,0.466514 -0.89649,0.654297 -0.37961,0.176545 -0.63543,0.341603 -0.79687,0.53125 -0.16144,0.189646 -0.22656,0.404517 -0.22656,0.675781 0,0.301899 0.0395,0.490874 0.18359,0.613281 0.14405,0.122407 0.38625,0.175016 0.78516,0.212891 l 0.9375,0.08984 0,4.173828 c 0,3.026307 0.14739,4.942158 0.5957,6.171876 0.44831,1.229717 1.20135,1.773337 2.40625,2.044921 l 0.0137,0.002 0,-0.002 c 0.47939,0.105937 1.31183,0.131997 2.08789,0.0957 0.39057,-0.01826 0.76545,-0.0529 1.07227,-0.09961 0.30681,-0.04671 0.54427,-0.104814 0.66406,-0.177734 0.0375,-0.02282 0.0677,-0.07198 0.0957,-0.140625 0.028,-0.06865 0.0533,-0.156267 0.0742,-0.259766 0.0419,-0.206997 0.0684,-0.473484 0.0684,-0.748047 l 0,-1.009765 -1.61523,0 c -0.59654,0 -1.05056,-0.01916 -1.39453,-0.128907 -0.34397,-0.10975 -0.57696,-0.30792 -0.74024,-0.677734 -0.32656,-0.739628 -0.35937,-2.16367 -0.35937,-4.867187 l 0,-4.386719 1.96484,-0.08594 1.99609,-0.08594 0,-1.027344 0,-1.027344 -1.98046,-0.08398 -1.95313,-0.08594 -0.0859,-1.490234 c -0.0428,-0.73011 -0.07,-1.105946 -0.19922,-1.306641 -0.0646,-0.100347 -0.15642,-0.154062 -0.2832,-0.18164 -0.12678,-0.02758 -0.29019,-0.03125 -0.50391,-0.03125 z m 0,0.03125 c 0.21344,0 0.37647,0.0048 0.49805,0.03125 0.12158,0.02645 0.20162,0.07461 0.26172,0.167969 0.12021,0.186712 0.15055,0.561095 0.19336,1.291015 l 0.0898,1.519531 1.98047,0.08594 1.95117,0.08398 0,0.996094 0,0.998047 -1.96679,0.08398 -1.9961,0.08594 0,4.417969 c 0,2.703762 0.031,4.126214 0.36328,4.878906 0.16617,0.376346 0.40902,0.585351 0.75977,0.697265 0.35075,0.111915 0.80713,0.128907 1.4043,0.128907 l 1.58203,0 0,0.978515 c 0,0.272547 -0.025,0.535942 -0.0664,0.740235 -0.0207,0.102146 -0.0454,0.190041 -0.0723,0.255859 -0.0269,0.06582 -0.0583,0.109351 -0.084,0.125 -0.10997,0.06694 -0.34515,0.127357 -0.65039,0.173828 -0.30524,0.04647 -0.68062,0.07943 -1.07031,0.09766 -0.77938,0.03645 -1.62084,0.01241 -2.0918,-0.09375 -1.19882,-0.270215 -1.93935,-0.80168 -2.38476,-2.023437 -0.44541,-1.221757 -0.5918,-3.136836 -0.5918,-6.16211 l 0,-4.203124 -0.96875,-0.0918 c -0.39734,-0.03773 -0.63178,-0.09135 -0.76563,-0.205079 -0.13384,-0.113732 -0.17382,-0.290742 -0.17382,-0.589843 0,-0.266157 0.0622,-0.472372 0.21875,-0.65625 0.15653,-0.183879 0.4094,-0.34583 0.78711,-0.521485 0.40616,-0.188887 0.68589,-0.379006 0.9082,-0.664062 0.22231,-0.285057 0.38734,-0.663091 0.56836,-1.226563 0.20465,-0.63705 0.3389,-0.988808 0.51758,-1.177734 0.0893,-0.09446 0.18837,-0.149624 0.3164,-0.181641 0.12803,-0.03202 0.28385,-0.04101 0.48242,-0.04101 z m -0.0644,0.457031 c -0.141,0.02706 -0.29651,0.179302 -0.4414,0.404297 -0.1449,0.224994 -0.27915,0.524657 -0.3711,0.847656 -0.22353,0.785157 -0.64335,1.353892 -1.33984,1.814453 -0.3377,0.223306 -0.5944,0.407391 -0.77149,0.560547 -0.17708,0.153156 -0.27606,0.274943 -0.29492,0.378906 -0.009,0.05198 0.004,0.09877 0.0371,0.138672 0.0331,0.03991 0.0855,0.07371 0.15625,0.101563 0.14154,0.05571 0.35783,0.09343 0.65039,0.121094 l 0.95703,0.08984 0.14844,5.044922 c 0.0885,3.014138 0.19386,4.692956 0.55664,5.691406 0.18139,0.499226 0.42945,0.828517 0.76953,1.066407 0.34009,0.23789 0.77217,0.383613 1.32617,0.521484 1.04796,0.260801 1.30167,0.263453 2.28907,0.07031 l -0.004,0.0078 0.0332,-0.0078 c 0.31929,-0.06289 0.55007,-0.148934 0.70313,-0.269531 0.15305,-0.120597 0.22656,-0.276853 0.22656,-0.46875 0,-0.113131 -0.0134,-0.204114 -0.0527,-0.279297 -0.0393,-0.07518 -0.10464,-0.132974 -0.20118,-0.173828 -0.19306,-0.08171 -0.51417,-0.103515 -1.04296,-0.103515 -0.99351,0 -1.44588,-0.169836 -2.05078,-0.765625 l -0.7754,-0.763672 0.0801,-4.789063 0.0801,-4.78125 1.9668,-0.08398 c 0.86201,-0.03721 1.35683,-0.07669 1.64062,-0.167969 0.1419,-0.04564 0.23153,-0.105306 0.28516,-0.185547 0.0536,-0.08024 0.0703,-0.179345 0.0703,-0.300781 0,-0.121434 -0.0167,-0.218587 -0.0703,-0.298828 -0.0536,-0.08024 -0.14326,-0.139907 -0.28516,-0.185547 -0.28379,-0.09128 -0.77861,-0.130774 -1.64062,-0.167969 l -1.9668,-0.08398 -0.0898,-1.521484 c -0.0357,-0.614274 -0.0803,-0.995836 -0.16602,-1.216797 -0.0429,-0.110481 -0.0971,-0.18211 -0.16601,-0.220703 -0.0689,-0.03859 -0.14981,-0.04191 -0.2461,-0.02344 z m 0.006,0.03125 c 0.0921,-0.01767 0.16422,-0.01233 0.22461,0.02148 0.0604,0.03382 0.11105,0.09668 0.15234,0.203125 0.0826,0.212896 0.12839,0.591632 0.16407,1.205079 l 0.0898,1.550781 1.99609,0.08594 c 0.86158,0.03718 1.35691,0.07728 1.63282,0.166016 0.13795,0.04437 0.22099,0.101208 0.26953,0.173828 0.0485,0.07262 0.0645,0.162679 0.0645,0.28125 0,0.118574 -0.0159,0.210584 -0.0645,0.283203 -0.0485,0.07262 -0.13158,0.129459 -0.26953,0.173828 -0.27591,0.08874 -0.77124,0.126872 -1.63282,0.164063 l -1.99609,0.08789 -0.0801,4.810547 -0.0801,4.802735 0.78516,0.773437 c 0.60848,0.599311 1.07509,0.773438 2.07227,0.773438 0.52783,0 0.84808,0.02405 1.03125,0.101562 0.0916,0.03876 0.14785,0.08983 0.18359,0.158203 0.0357,0.06837 0.0508,0.155167 0.0508,0.265625 0,0.183913 -0.0683,0.327871 -0.21484,0.44336 -0.14657,0.115488 -0.3728,0.201296 -0.68946,0.263671 -1.01846,0.200668 -1.24426,0.193592 -2.30468,-0.07031 -0.55263,-0.137529 -0.98172,-0.281507 -1.31641,-0.515625 -0.33469,-0.234118 -0.5761,-0.557993 -0.75586,-1.052734 -0.35952,-0.989482 -0.46812,-2.667909 -0.55664,-5.681641 l -0.14844,-5.072266 -0.98633,-0.09375 c -0.29133,-0.02755 -0.50498,-0.0638 -0.64062,-0.117187 -0.0678,-0.02669 -0.11669,-0.0582 -0.14453,-0.0918 -0.0278,-0.0336 -0.0373,-0.06915 -0.0293,-0.113281 0.016,-0.08827 0.11004,-0.207916 0.28516,-0.359375 0.17512,-0.151459 0.43042,-0.335645 0.76758,-0.558594 0.70169,-0.463999 1.1282,-1.042561 1.35351,-1.833984 0.0911,-0.320101 0.22441,-0.616175 0.36719,-0.837891 0.14278,-0.221716 0.29727,-0.367086 0.41992,-0.390625 z m -81.587889,1.972656 c -1.712478,-0.199233 -3.558589,0.174295 -4.730469,1.21875 -0.304072,0.271008 -0.477515,0.405516 -0.607422,0.419922 -0.06495,0.0072 -0.121176,-0.01389 -0.183594,-0.06445 -0.06242,-0.05056 -0.129337,-0.131064 -0.21289,-0.240234 -0.559763,-0.731389 -1.770622,-1.180234 -3.125,-1.306641 -1.354379,-0.126407 -2.853141,0.06973 -3.994141,0.638672 -0.675814,0.336987 -1.030623,0.507317 -1.224609,0.52539 -0.09699,0.009 -0.151505,-0.01572 -0.195313,-0.07617 -0.04381,-0.06046 -0.07394,-0.159518 -0.109375,-0.292969 -0.03188,-0.120093 -0.07571,-0.217996 -0.148437,-0.294922 -0.07273,-0.07693 -0.173819,-0.13161 -0.320313,-0.171875 -0.292987,-0.08053 -0.767435,-0.101563 -1.568359,-0.101563 l -1.888672,0 0,7.533204 0,7.53125 2.363281,0 2.365234,0 0,-4.50586 c 0,-2.480071 0.07562,-4.040956 0.3125,-5.052734 0.236882,-1.011779 0.632043,-1.474085 1.277344,-1.763672 0.970218,-0.435398 2.101552,0.04745 2.494141,1.064453 0.03786,0.09808 0.07504,0.331598 0.109375,0.662109 0.03433,0.330512 0.06574,0.760755 0.0918,1.259766 0.05211,0.998023 0.08398,2.2724 0.08398,3.582031 l 0,4.779297 2.292969,-0.08594 2.289062,-0.08398 0.146485,-4.798828 c 0.06004,-1.957323 0.120785,-3.189561 0.21875,-4.009765 0.09796,-0.820205 0.233461,-1.228012 0.443359,-1.542969 0.523587,-0.785632 1.310944,-1.075282 2.013672,-0.941406 0.702728,0.133875 1.320809,0.692346 1.507812,1.613281 0.05074,0.249791 0.09886,0.982172 0.132813,1.957031 0.03396,0.974859 0.05469,2.192522 0.05469,3.417969 l 0,4.474609 2.291016,-0.08594 2.291016,-0.08398 0,-5.941406 c 0,-2.588915 -0.01751,-4.105544 -0.09375,-5.091797 -0.07624,-0.986252 -0.21214,-1.44454 -0.449219,-1.914062 -0.634455,-1.256525 -2.215256,-2.027329 -3.927734,-2.226563 z m 12.941406,0.01953 c -1.909083,-0.09868 -2.869003,0.0084 -4.505859,0.498046 -0.571887,0.171091 -1.09131,0.359724 -1.46875,0.525391 -0.188721,0.08283 -0.342554,0.159562 -0.449219,0.226563 -0.05333,0.0335 -0.09586,0.06331 -0.125,0.0918 -0.02914,0.02849 -0.04687,0.05622 -0.04687,0.08398 0,0.04559 0.02209,0.122801 0.06055,0.232422 0.03845,0.10962 0.09373,0.248948 0.162109,0.408203 0.136757,0.31851 0.325842,0.718051 0.533203,1.121094 0.324499,0.630713 0.534131,0.990883 0.736328,1.173828 0.101099,0.09147 0.201258,0.138455 0.310547,0.15039 0.10929,0.01194 0.22634,-0.01067 0.365234,-0.05469 1.539397,-0.487838 2.537513,-0.761145 3.242188,-0.851563 0.704675,-0.09042 1.115941,-5.6e-5 1.488281,0.240235 0.458897,0.296153 0.732422,0.741548 0.732422,1.18164 0,0.170111 -0.0045,0.299016 -0.03711,0.394531 -0.0326,0.09552 -0.08993,0.159472 -0.201172,0.205079 -0.222479,0.09121 -0.660773,0.09961 -1.492188,0.09961 -2.757147,0 -4.655398,0.517779 -5.849609,1.595703 -0.489045,0.441417 -0.757257,0.712841 -0.914063,1.111328 -0.156805,0.398487 -0.202058,0.91962 -0.255859,1.857422 -0.07942,1.384428 0.10668,2.483793 0.568359,3.3125 0.46168,0.828707 1.198918,1.386492 2.21875,1.6875 0.982606,0.290021 2.204157,0.315016 3.330079,0.132813 1.125922,-0.182204 2.155921,-0.571518 2.755859,-1.119141 l 0.679688,-0.621094 0.304687,0.791016 c 0.07289,0.190194 0.134165,0.337283 0.212891,0.451172 0.07872,0.113888 0.174886,0.194719 0.308593,0.25 0.267414,0.11056 0.687687,0.123047 1.460938,0.123047 l 1.671875,0 -0.08984,-6.210938 C 53.350868,22.91322 53.317252,21.349754 53.222656,20.412109 53.12806,19.474465 52.970209,19.160187 52.681641,18.779297 52.148737,18.0759 51.56596,17.59322 50.783203,17.269531 50.000446,16.945842 49.018259,16.779834 47.685547,16.710938 Z m -12.945313,0.01172 c 1.705285,0.198397 3.275159,0.968812 3.902344,2.210938 0.235532,0.466458 0.371193,0.918239 0.447266,1.902344 0.07607,0.984104 0.0918,2.499115 0.0918,5.08789 l 0,5.910156 -2.257813,0.08398 -2.259766,0.08398 0,-4.441406 c 0,-1.225814 -0.02071,-2.442643 -0.05469,-3.417969 -0.03397,-0.975326 -0.08043,-1.706995 -0.132813,-1.964844 -0.189246,-0.931985 -0.817775,-1.500424 -1.533203,-1.636718 -0.715427,-0.136295 -1.517092,0.160149 -2.046875,0.955078 -0.213461,0.320303 -0.349037,0.734227 -0.447265,1.55664 -0.09823,0.822414 -0.158702,2.054152 -0.21875,4.011719 l -0.146485,4.769531 -2.259765,0.08398 -2.257813,0.08398 0,-4.746094 c 0,-1.310158 -0.03184,-2.585234 -0.08398,-3.583984 -0.02607,-0.499375 -0.05737,-0.93034 -0.0918,-1.261719 -0.03442,-0.331379 -0.07205,-0.5631 -0.113281,-0.669922 -0.398811,-1.033118 -1.550347,-1.5229 -2.53711,-1.080078 -0.652489,0.292813 -1.056721,0.765789 -1.294922,1.783203 -0.2382,1.017414 -0.314453,2.579828 -0.314453,5.060547 l 0,4.47461 -2.332031,0 -2.332031,0 0,-7.5 0,-7.5 1.857422,0 c 0.800386,0 1.274833,0.01912 1.560547,0.09766 0.142856,0.03927 0.2388,0.09231 0.30664,0.164062 0.06784,0.07176 0.107521,0.163918 0.138672,0.28125 0.03557,0.133984 0.06603,0.234832 0.115234,0.302735 0.0492,0.0679 0.120444,0.09955 0.22461,0.08984 0.208331,-0.01941 0.558429,-0.19029 1.234375,-0.527343 1.133609,-0.565253 2.629381,-0.762637 3.978515,-0.636719 1.349135,0.125918 2.551526,0.57624 3.101563,1.294922 0.08398,0.109724 0.152236,0.192215 0.21875,0.246094 0.06651,0.05388 0.133122,0.07851 0.207031,0.07031 0.147818,-0.01639 0.320452,-0.156302 0.625,-0.427734 1.16223,-1.035855 2.999794,-1.409334 4.705078,-1.210938 z m 42.519532,0.0059 c -3.472637,-0.242085 -5.78589,0.891748 -7.189454,3.523437 -0.260852,0.489093 -0.418974,0.913479 -0.513671,1.513672 -0.0947,0.600193 -0.125859,1.376109 -0.13086,2.568359 -0.01006,2.466153 0.09009,3.099989 0.679688,4.279297 0.824352,1.648856 2.229914,2.775231 4.111328,3.300781 0.851831,0.23795 2.284086,0.313985 3.691406,0.253907 1.407321,-0.06008 2.78647,-0.256 3.53125,-0.5625 0.262301,-0.107899 0.461381,-0.188856 0.611328,-0.279297 0.149947,-0.09044 0.252309,-0.191456 0.320313,-0.332031 0.136008,-0.281151 0.136718,-0.720216 0.136718,-1.587891 0,-0.491423 -0.0055,-0.861519 -0.04297,-1.132812 -0.03744,-0.271294 -0.10771,-0.44459 -0.246094,-0.533204 -0.138384,-0.08861 -0.337579,-0.09029 -0.625,-0.02734 -0.287421,0.06295 -0.664657,0.190416 -1.162109,0.363281 -0.683089,0.23738 -1.953783,0.433594 -2.816407,0.433594 -0.654991,0 -1.081337,-0.03343 -1.433593,-0.148438 -0.352257,-0.115008 -0.631581,-0.311884 -0.990235,-0.642578 -0.236153,-0.217738 -0.4721,-0.488857 -0.662109,-0.75 -0.190009,-0.261143 -0.333746,-0.514327 -0.384766,-0.689453 l -0.183593,-0.628906 4.732421,0 4.769532,0 -0.128907,-2.408203 C 83.221068,21.123272 82.701256,19.564199 81.708984,18.5 80.716713,17.435801 79.252456,16.867433 77.259766,16.728516 Z m -29.576172,0.01563 c 1.330898,0.0688 2.310333,0.233148 3.08789,0.554687 0.777558,0.321539 1.35438,0.799927 1.884766,1.5 0.286871,0.37865 0.440842,0.682342 0.535156,1.617188 0.09431,0.934845 0.128213,2.49728 0.169922,5.382812 l 0.08789,6.179688 -1.638672,0 c -0.772879,0 -1.192063,-0.01478 -1.449219,-0.121094 -0.128578,-0.05316 -0.217034,-0.12843 -0.292969,-0.238281 -0.07593,-0.109852 -0.138285,-0.253794 -0.210937,-0.44336 l -0.320313,-0.835937 -0.714843,0.652344 c -0.592032,0.540406 -1.618399,0.929786 -2.740235,1.111328 -1.121835,0.181541 -2.338258,0.155316 -3.314453,-0.132813 l -0.002,0 C 41.753,31.671418 41.023731,31.119719 40.566406,30.298828 c -0.4576,-0.821385 -0.643658,-1.91431 -0.564453,-3.294922 0.05378,-0.937418 0.101752,-1.456026 0.255859,-1.847656 0.154108,-0.39163 0.415832,-0.658716 0.904297,-1.099609 1.185449,-1.070016 3.074973,-1.585938 5.828125,-1.585938 0.831635,0 1.268838,-0.0071 1.503907,-0.103515 0.117534,-0.04819 0.183711,-0.121952 0.21875,-0.22461 0.03504,-0.102658 0.04102,-0.233532 0.04102,-0.404297 0,-0.453407 -0.283736,-0.908077 -0.75,-1.208984 -0.378289,-0.24413 -0.798862,-0.335108 -1.507812,-0.244141 -0.708951,0.09097 -1.708134,0.363561 -3.248047,0.851563 -0.136911,0.04339 -0.249088,0.06393 -0.351563,0.05273 -0.102474,-0.01119 -0.195561,-0.05249 -0.292968,-0.140625 -0.194815,-0.176265 -0.406288,-0.535919 -0.730469,-1.166016 -0.207039,-0.402417 -0.394877,-0.799569 -0.53125,-1.117187 -0.06819,-0.158809 -0.122085,-0.297718 -0.160156,-0.40625 -0.03807,-0.108532 -0.05859,-0.18839 -0.05859,-0.222656 0,-0.01216 0.01066,-0.03469 0.03711,-0.06055 0.02645,-0.02586 0.06697,-0.05512 0.119141,-0.08789 0.104346,-0.06554 0.255507,-0.142157 0.443359,-0.224609 0.375704,-0.164905 0.89403,-0.352668 1.464844,-0.523438 1.634783,-0.489059 2.588737,-0.594689 4.496094,-0.496093 z m 29.574218,0.01563 c 1.98775,0.138572 3.442291,0.704842 4.427735,1.761718 0.985444,1.056877 1.504504,2.608123 1.617187,4.722657 l 0.126954,2.375 -4.736329,0 -4.77539,0 0.195312,0.669921 c 0.0532,0.182614 0.199394,0.434444 0.390625,0.697266 0.191231,0.262823 0.427949,0.536357 0.666016,0.75586 0.360076,0.332006 0.644172,0.531625 1.001953,0.648437 0.357781,0.116812 0.787291,0.150391 1.443359,0.150391 0.867437,0 2.13664,-0.193975 2.826172,-0.433594 0.497308,-0.172815 0.873873,-0.301011 1.158203,-0.363281 0.28433,-0.06227 0.474992,-0.05956 0.601563,0.02148 0.126571,0.08105 0.195486,0.244054 0.232422,0.511719 0.03693,0.267665 0.04102,0.637659 0.04102,1.128906 0,0.867625 -0.0025,1.304942 -0.132812,1.574219 -0.06513,0.134638 -0.161984,0.229931 -0.308594,0.318359 -0.14661,0.08843 -0.343225,0.169468 -0.605469,0.277344 -0.7363,0.30301 -2.11623,0.498604 -3.521484,0.558594 -1.405254,0.05999 -2.837112,-0.01409 -3.681641,-0.25 -1.873966,-0.52347 -3.269376,-1.646026 -4.089843,-3.28711 -0.588206,-1.176531 -0.687793,-1.798404 -0.677735,-4.263672 0.005,-1.19176 0.03666,-1.965453 0.13086,-2.5625 0.0942,-0.597047 0.251941,-1.018782 0.511718,-1.505859 1.398497,-2.62219 3.69344,-3.747395 7.158203,-3.505859 z m 9.707032,0.470703 c -0.303625,-0.02888 -0.608929,-0.02695 -0.857422,0.01367 -0.248494,0.04062 -0.441211,0.118167 -0.521484,0.246093 -0.0056,0.0089 -0.0073,0.01821 -0.0078,0.0293 -5.27e-4,0.01109 6.44e-4,0.02447 0.002,0.04102 0.0026,0.03309 0.0083,0.07687 0.01758,0.132812 0.01856,0.111896 0.05106,0.26918 0.09375,0.464844 0.08538,0.391328 0.215376,0.938609 0.376953,1.589844 0.323156,1.302469 0.770149,3.022345 1.234375,4.753906 0.464227,1.731561 0.945189,3.474495 1.332032,4.820313 0.193421,0.672908 0.362943,1.24613 0.496093,1.669922 0.06658,0.211895 0.12347,0.386893 0.169922,0.517578 0.04469,0.125732 0.07889,0.204624 0.103516,0.246093 1.66e-4,2.8e-4 -1.65e-4,0.0017 0,0.002 8e-4,0.0013 0.0031,0.0066 0.0039,0.0078 l 0.0293,0.04687 0,-0.0293 c 0.03261,0.03353 0.07628,0.06258 0.152344,0.08594 0.09092,0.02792 0.209861,0.05004 0.349609,0.06641 0.279497,0.03273 0.640613,0.04158 1.017578,0.01758 l 1.378907,-0.08789 1.763671,-5.232422 1.746094,-5.171874 1.611328,5.171874 1.628907,5.232422 1.589842,0 1.5918,0 1.98633,-7.083984 c 0.54534,-1.945293 1.02562,-3.73928 1.35937,-5.0625 0.16688,-0.66161 0.29705,-1.205265 0.38086,-1.591797 0.0419,-0.193266 0.0705,-0.347167 0.0879,-0.457031 0.009,-0.05493 0.0155,-0.100101 0.0176,-0.132813 0.001,-0.01636 7.6e-4,-0.0299 0,-0.04102 -7.7e-4,-0.01112 -0.002,-0.01875 -0.008,-0.02734 -0.0238,-0.0379 -0.077,-0.06821 -0.1543,-0.0957 -0.0773,-0.02749 -0.17803,-0.05168 -0.29688,-0.07227 -0.23769,-0.04117 -0.54651,-0.06641 -0.86718,-0.06641 -0.37531,0 -0.63842,-0.0515 -0.86719,0.03516 -0.22877,0.08666 -0.41435,0.311219 -0.63477,0.84961 -0.44083,1.076781 -1.02439,3.422057 -2.35546,8.513671 -0.0374,0.142923 -0.0697,0.269005 -0.10157,0.367188 -0.0318,0.09818 -0.0647,0.169623 -0.0957,0.205078 -0.0155,0.01773 -0.029,0.02606 -0.043,0.02734 -0.0139,0.0013 -0.0307,-0.0051 -0.0508,-0.02148 -0.0402,-0.03277 -0.0911,-0.10822 -0.15234,-0.234376 -0.24514,-0.504621 -0.662498,-1.803232 -1.492191,-4.390624 l -1.669922,-5.207032 -1.464844,0 -1.464844,0 -1.625,4.996094 c -0.445814,1.37086 -0.867113,2.618044 -1.1875,3.521484 -0.160193,0.451721 -0.294787,0.817444 -0.394531,1.070313 -0.04987,0.126434 -0.0921,0.224876 -0.123047,0.291015 -0.01547,0.03307 -0.02917,0.05806 -0.03906,0.07422 -0.0037,0.006 -0.0052,0.01035 -0.0078,0.01367 -0.0022,-0.0029 -0.0047,-0.0062 -0.0078,-0.01172 -0.0082,-0.01449 -0.01897,-0.0363 -0.03125,-0.06641 -0.02456,-0.06021 -0.056,-0.150252 -0.09375,-0.265625 -0.07549,-0.230745 -0.176061,-0.564179 -0.292969,-0.976562 C 90.34431,25.200624 90.042978,24.062208 89.728516,22.810547 89.413991,21.558635 89.098364,20.364178 88.84375,19.447266 88.716443,18.988809 88.60495,18.598487 88.515625,18.306641 88.4263,18.014794 88.360015,17.823207 88.322266,17.75 c -0.07279,-0.141151 -0.260756,-0.254282 -0.50586,-0.341797 -0.245104,-0.08751 -0.547937,-0.148856 -0.851562,-0.177734 z m -0.0039,0.03125 c 0.301407,0.02867 0.602098,0.0895 0.84375,0.175781 0.241651,0.08628 0.422786,0.199168 0.488281,0.326172 0.03399,0.06592 0.102216,0.261329 0.191406,0.552734 0.08919,0.291406 0.200866,0.680388 0.328125,1.138672 0.254518,0.916568 0.5703,2.111603 0.884766,3.363281 0.314527,1.251919 0.617615,2.389613 0.851562,3.214844 0.116974,0.412616 0.215275,0.747014 0.291016,0.978516 0.03787,0.115751 0.0706,0.206019 0.0957,0.267578 0.01255,0.03078 0.02373,0.0536 0.0332,0.07031 0.0047,0.0084 0.0089,0.01612 0.01367,0.02148 0.0024,0.0027 0.0046,0.0057 0.0078,0.0078 0.0016,0.0011 0.0052,0.0017 0.0059,0.002 6.91e-4,2.48e-4 0.0072,0.002 0.0078,0.002 6.31e-4,-1e-6 0.0051,-0.0017 0.0059,-0.002 7.17e-4,-2.74e-4 0.0043,-0.0028 0.0059,-0.0039 0.0032,-0.0022 0.0072,-0.0031 0.0098,-0.0059 0.005,-0.0056 0.0081,-0.01245 0.01367,-0.02148 0.01106,-0.01806 0.02527,-0.04448 0.04102,-0.07813 0.03149,-0.06729 0.07305,-0.16621 0.123047,-0.292968 0.1,-0.253516 0.234267,-0.620346 0.394531,-1.072266 0.320528,-0.903839 0.743567,-2.150404 1.189453,-3.521484 l 1.617188,-4.972657 1.441406,0 1.441406,0 1.66211,5.183594 c 0.829694,2.587397 1.245831,3.88338 1.494141,4.394531 0.0621,0.127788 0.11385,0.20674 0.16211,0.246094 0.0241,0.01968 0.0479,0.0296 0.0723,0.02734 0.0244,-0.0023 0.0476,-0.01561 0.0664,-0.03711 0.0376,-0.043 0.0673,-0.117193 0.0996,-0.216796 0.0323,-0.0996 0.0661,-0.22424 0.10352,-0.367188 1.3311,-5.091726 1.91511,-7.44087 2.35351,-8.511719 0.2192,-0.535424 0.40009,-0.747836 0.61719,-0.830078 0.2171,-0.08224 0.47734,-0.0332 0.85547,-0.0332 0.31897,0 0.62602,0.02369 0.86133,0.06445 0.11765,0.02038 0.21829,0.04573 0.29296,0.07227 0.0747,0.02654 0.12345,0.05582 0.13868,0.08008 -5.2e-4,-8.24e-4 0.001,0.0048 0.002,0.01367 6.1e-4,0.0088 -9.6e-4,0.02163 -0.002,0.03711 -0.002,0.03096 -0.007,0.07453 -0.0156,0.128906 -0.0172,0.108761 -0.0461,0.262132 -0.0879,0.455079 -0.0837,0.385892 -0.21403,0.930388 -0.38086,1.591797 -0.33365,1.322817 -0.8141,3.115479 -1.35937,5.060546 l -1.98047,7.0625 -1.56641,0 -1.566405,0 -1.623047,-5.210937 -1.640625,-5.267578 -1.775391,5.267578 -1.757812,5.210937 -1.357422,0.08594 c -0.375205,0.02389 -0.734776,0.01681 -1.011719,-0.01563 -0.138471,-0.01622 -0.255748,-0.03938 -0.34375,-0.06641 -0.088,-0.02703 -0.145474,-0.06022 -0.164062,-0.08984 -0.0206,-0.03284 -0.05729,-0.119951 -0.103516,-0.25 -0.04623,-0.130049 -0.103417,-0.303952 -0.169922,-0.515625 -0.13301,-0.423347 -0.302714,-0.997159 -0.496093,-1.669922 -0.386759,-1.345526 -0.867843,-3.086943 -1.332032,-4.818359 -0.464188,-1.731417 -0.911299,-3.451758 -1.234375,-4.753907 -0.161538,-0.651074 -0.291698,-1.199076 -0.376953,-1.589843 -0.04263,-0.195384 -0.07536,-0.351995 -0.09375,-0.462891 -0.0092,-0.05545 -0.01509,-0.0994 -0.01758,-0.130859 -0.0012,-0.01573 -4.22e-4,-0.02823 0,-0.03711 4.23e-4,-0.0089 0.001,-0.01333 0,-0.01172 0.07073,-0.112719 0.257331,-0.190483 0.501953,-0.230468 0.244622,-0.03998 0.546249,-0.04429 0.847657,-0.01563 z m -61.945313,0.01367 c -1.256093,-0.0011 -2.539457,0.380407 -3.427734,1.148437 -0.305386,0.264091 -0.552467,0.461266 -0.75586,0.591797 -0.203392,0.130531 -0.36184,0.193471 -0.486328,0.191406 -0.124487,-0.0021 -0.21863,-0.06602 -0.298828,-0.199219 -0.0802,-0.133201 -0.14494,-0.335787 -0.205078,-0.605468 -0.04489,-0.201317 -0.08551,-0.355535 -0.140625,-0.476563 -0.05512,-0.121027 -0.125537,-0.207675 -0.228516,-0.267578 -0.205958,-0.119807 -0.534944,-0.134766 -1.136718,-0.134765 l -1.314454,0 0,6.955078 0,6.953125 1.777344,0 1.777344,0 0,-4.525391 c 0,-3.471569 0.105852,-4.724521 0.453125,-5.445312 0.478424,-0.993022 1.458385,-1.591797 2.603515,-1.591797 0.544891,0 0.971186,0.05464 1.304688,0.226562 0.333502,0.171926 0.57624,0.460031 0.751953,0.935547 0.351426,0.951032 0.431641,2.644974 0.431641,5.599609 l 0,4.800782 1.777344,0 1.777343,0 0,-4.453125 c 0,-1.250833 0.03537,-2.460647 0.09375,-3.421875 0.02919,-0.480615 0.06447,-0.899916 0.103516,-1.230469 0.03904,-0.330553 0.08214,-0.572599 0.126953,-0.699219 0.254133,-0.718015 0.913237,-1.272437 1.685547,-1.554687 0.77231,-0.282251 1.656435,-0.291381 2.357422,0.07813 0.459123,0.242012 0.75365,0.719736 0.933593,1.736328 0.179944,1.016591 0.244141,2.568908 0.244141,4.947265 l 0,4.597657 1.806641,0 1.808594,0 -0.115235,-5.580079 c -0.06261,-3.018591 -0.141846,-4.735158 -0.398437,-5.822265 -0.256592,-1.087107 -0.692878,-1.545351 -1.460938,-2.041016 -0.511184,-0.329889 -1.349058,-0.556356 -2.21875,-0.648437 -0.869692,-0.09208 -1.7715,-0.04939 -2.410156,0.158203 -0.567101,0.184344 -1.33503,0.654629 -1.712891,1.050781 -0.218397,0.228969 -0.403907,0.39955 -0.574219,0.509766 -0.170311,0.110216 -0.32316,0.16065 -0.482421,0.152344 -0.318523,-0.01661 -0.66402,-0.271401 -1.179688,-0.779297 -0.782134,-0.770343 -2.011485,-1.155137 -3.267578,-1.15625 z m 0,0.03125 c 1.249575,0.0011 2.472128,0.384187 3.246094,1.146484 0.516892,0.509103 0.865021,0.771631 1.199219,0.789063 0.167098,0.0087 0.32794,-0.04364 0.501953,-0.15625 0.174012,-0.112611 0.360905,-0.285844 0.580078,-0.515626 0.371619,-0.389607 1.139339,-0.860972 1.699219,-1.042968 0.631403,-0.205236 1.530099,-0.246028 2.396484,-0.154297 0.866385,0.09173 1.701732,0.317747 2.205078,0.642578 0.76518,0.493805 1.192065,0.940271 1.447266,2.021484 0.2552,1.081213 0.335835,2.796175 0.398437,5.814453 l 0.115235,5.548829 -1.777344,0 -1.775391,0 0,-4.566407 c 0,-2.378933 -0.06345,-3.932324 -0.244141,-4.953125 -0.180688,-1.0208 -0.479632,-1.512238 -0.949218,-1.759765 -0.710983,-0.374775 -1.605278,-0.364953 -2.384766,-0.08008 -0.779488,0.284874 -1.446871,0.844694 -1.705078,1.574218 -0.0469,0.132525 -0.08975,0.377514 -0.128906,0.708985 -0.03915,0.33147 -0.0743,0.749435 -0.103516,1.230469 -0.05843,0.962066 -0.09375,2.17239 -0.09375,3.423828 l 0,4.421875 -1.74414,0 -1.746094,0 0,-4.769532 c 0,-2.955215 -0.07845,-4.650242 -0.433594,-5.611328 -0.177571,-0.480543 -0.4247,-0.777372 -0.765625,-0.953125 -0.340925,-0.175752 -0.773298,-0.230468 -1.320313,-0.230468 -1.156309,0 -2.149157,0.607449 -2.632812,1.611328 -0.352447,0.731528 -0.455078,1.986773 -0.455078,5.458984 l 0,4.494141 -1.746094,0 -1.74414,0 0,-6.921875 0,-6.923828 1.28125,0 c 0.601215,0 0.927191,0.01807 1.121093,0.130859 0.09695,0.0564 0.161578,0.13694 0.214844,0.253906 0.05327,0.116967 0.09391,0.26997 0.138672,0.470703 0.06045,0.271089 0.125355,0.476334 0.208984,0.615235 0.08363,0.1389 0.188685,0.212595 0.324219,0.214843 0.135534,0.0022 0.298125,-0.0652 0.503906,-0.197265 0.205782,-0.132065 0.45582,-0.329216 0.761719,-0.59375 0.880713,-0.76149 2.156675,-1.143685 3.40625,-1.142578 z m 50.853516,0.01367 c -2.239183,0.18433 -4.214422,1.385982 -5.160157,3.28711 -0.458157,0.920985 -0.706039,2.358623 -0.734375,3.765625 -0.02834,1.407001 0.161527,2.783297 0.585938,3.582031 0.879467,1.655131 2.213437,2.758945 3.941406,3.291016 1.727969,0.532071 3.849182,0.491816 6.304688,-0.134766 0.266697,-0.06805 0.470252,-0.122347 0.625,-0.185547 0.154747,-0.0632 0.262796,-0.135189 0.335937,-0.240234 0.146282,-0.21009 0.152344,-0.540042 0.152344,-1.169922 0,-0.294242 -0.003,-0.520169 -0.01563,-0.691406 -0.01261,-0.171237 -0.03472,-0.287856 -0.07422,-0.361328 -0.01975,-0.03674 -0.04372,-0.06278 -0.07422,-0.07813 -0.0305,-0.01534 -0.06622,-0.02046 -0.105468,-0.01563 -0.0785,0.0097 -0.175161,0.05395 -0.298829,0.11914 -0.569115,0.299995 -1.650762,0.528437 -2.736328,0.632813 -1.085566,0.104376 -2.175644,0.08548 -2.757812,-0.103516 -0.644889,-0.209359 -1.25807,-0.685802 -1.708984,-1.263672 -0.450915,-0.577869 -0.740235,-1.257181 -0.740235,-1.873047 l 0,-0.808593 4.720703,0 4.753906,0 -0.15039,-1.832032 C 82.598548,21.597561 82.172952,20.321649 81.421875,19.375 80.670798,18.428351 79.595532,17.810883 78.167969,17.486328 77.391328,17.30976 76.615535,17.258869 75.869141,17.320312 Z m 0.002,0.03125 c 0.743022,-0.06114 1.515598,-0.0098 2.289062,0.166016 1.422417,0.323385 2.490288,0.936652 3.236328,1.876953 0.746041,0.940301 1.171152,2.209129 1.304688,3.847657 l 0.146484,1.798828 -4.71875,0 -4.751953,0 0,0.839843 c 0,0.625845 0.291773,1.310343 0.746094,1.892579 0.454321,0.582235 1.071858,1.061526 1.724609,1.273437 0.592642,0.1924 1.681573,0.210075 2.769532,0.105469 1.087958,-0.104607 2.172045,-0.330111 2.75,-0.634766 0.122742,-0.0647 0.217308,-0.106637 0.287109,-0.115234 0.0349,-0.0043 0.0642,-0.0022 0.08789,0.0098 0.02369,0.01192 0.04303,0.03383 0.06055,0.06641 0.03503,0.06516 0.05783,0.17809 0.07031,0.347656 0.01249,0.169566 0.01563,0.395445 0.01563,0.689453 0,0.62959 -0.01099,0.954941 -0.148438,1.152344 -0.06872,0.0987 -0.168707,0.166599 -0.320312,0.228515 -0.151605,0.06192 -0.354581,0.115588 -0.621094,0.183594 -2.451535,0.625569 -4.566601,0.66454 -6.287109,0.134766 -1.720509,-0.529774 -3.045932,-1.626891 -3.921875,-3.275391 -0.419109,-0.788755 -0.612254,-2.162725 -0.583985,-3.566406 0.02827,-1.403681 0.276187,-2.838759 0.730469,-3.751953 0.940215,-1.890032 2.905698,-3.086096 5.134766,-3.269532 z m -28.97461,0.02148 c -1.488746,-0.0075 -2.997642,0.161509 -3.818359,0.515625 l -1.117187,0.482422 0.507812,1.048828 c 0.175959,0.363424 0.336034,0.611514 0.494141,0.753906 0.158106,0.142392 0.317948,0.177987 0.482421,0.115234 1.265669,-0.482867 3.271004,-0.767357 4.189454,-0.597656 0.654552,0.120942 1.089822,0.311864 1.367187,0.640625 0.277365,0.328762 0.399128,0.796917 0.419922,1.476563 l 0.0332,1.064453 -2.658203,0.183594 c -1.617077,0.112168 -2.906037,0.352796 -3.875,0.724609 -0.968963,0.371813 -1.61871,0.876916 -1.955078,1.517578 -0.464441,0.884584 -0.555177,2.042304 -0.349609,3.091797 0.205567,1.049493 0.705853,1.99144 1.433593,2.441406 1.477209,0.913365 3.869299,0.974002 5.519531,0.152344 l 0.002,0.0059 0.01953,-0.0078 c 0.417485,-0.210291 0.929621,-0.585164 1.142578,-0.837891 0.293172,-0.347927 0.583629,-0.478268 0.841797,-0.408203 0.258168,0.07006 0.490518,0.344583 0.658203,0.81836 0.135453,0.382699 0.246884,0.60419 0.455078,0.728515 0.208195,0.124325 0.506817,0.148438 1.011719,0.148438 l 1.162109,0 0,-5.375 c 0,-3.097272 -0.06643,-4.883463 -0.382812,-6.019532 -0.316385,-1.136069 -0.886576,-1.621991 -1.886719,-2.111328 -0.741008,-0.362554 -2.208519,-0.545276 -3.697266,-0.552734 z m 61.261716,0.0059 -0.0801,6.949219 c -0.0217,1.906492 -0.0246,3.681445 -0.0117,5.007813 0.006,0.663183 0.0173,1.215032 0.0312,1.613281 0.007,0.199124 0.0147,0.360427 0.0234,0.478515 0.004,0.05904 0.009,0.107386 0.0137,0.144532 0.005,0.03715 0.009,0.06171 0.0156,0.07813 0.0514,0.131874 0.19218,0.223066 0.40625,0.273437 0.21407,0.05037 0.50379,0.06053 0.86328,0.03125 l 1.11719,-0.08984 0,-7.242187 0,-7.244141 -1.18945,0 -1.18946,0 z m -0.008,14.271485 0.002,0.0059 0.006,0.002 -0.008,-0.0078 z M 46.896484,17.404297 c 1.486194,0.0074 2.953782,0.193705 3.683594,0.550781 0.996987,0.487793 1.554778,0.962991 1.869141,2.091797 0.314362,1.128806 0.380859,2.912947 0.380859,6.009766 l 0,5.34375 -1.128906,0 c -0.503808,0 -0.795953,-0.02618 -0.994141,-0.144532 -0.198188,-0.118349 -0.308472,-0.331789 -0.443359,-0.71289 -0.169485,-0.478863 -0.405996,-0.763613 -0.679688,-0.837891 -0.273692,-0.07428 -0.577601,0.06503 -0.875,0.417969 -0.206642,0.245233 -0.717664,0.621948 -1.130859,0.830078 -1.639018,0.825602 -4.039593,0.760577 -5.509766,-0.148437 -0.716319,-0.442905 -1.215551,-1.376543 -1.419921,-2.419922 -0.204371,-1.04338 -0.114187,-2.19635 0.345703,-3.072266 0.331692,-0.631758 0.975051,-1.131891 1.939453,-1.501953 0.964401,-0.370062 2.250131,-0.608672 3.865234,-0.720703 l 2.689453,-0.1875 -0.0332,-1.09375 c -0.0209,-0.683004 -0.143679,-1.159403 -0.427734,-1.496094 -0.284055,-0.336691 -0.728721,-0.530765 -1.386719,-0.652344 -0.932831,-0.172358 -2.934799,0.114238 -4.207031,0.59961 -0.154476,0.05894 -0.296878,0.02782 -0.449219,-0.109375 -0.152341,-0.137201 -0.311207,-0.382446 -0.486328,-0.744141 l -0.492188,-1.019531 1.085938,-0.46875 c 0.811002,-0.349924 2.318494,-0.521117 3.804687,-0.513672 z m 61.292966,0.0078 1.15821,0 1.1582,0 0,7.210938 0,7.210937 -1.08789,0.08984 c -0.35745,0.02912 -0.64668,0.01788 -0.85547,-0.03125 -0.20879,-0.04913 -0.33679,-0.13578 -0.38281,-0.253906 -3.4e-4,-8.58e-4 -0.002,-0.0048 -0.002,-0.0059 -0.004,-0.01152 -0.007,-0.03136 -0.0117,-0.06445 -0.005,-0.03619 -0.009,-0.08585 -0.0137,-0.144531 -0.009,-0.117366 -0.0165,-0.277675 -0.0234,-0.476562 -0.0139,-0.397774 -0.0229,-0.948306 -0.0293,-1.611328 -0.0129,-1.326045 -0.01,-3.101515 0.0117,-5.007813 l 0.0781,-6.916016 z m -2.57031,0.367188 -0.91797,0.08984 -0.90429,0.08984 -1.4004,5.320313 c -0.65562,2.48848 -1.08542,4.037558 -1.35156,4.841797 -0.0665,0.201059 -0.12292,0.356284 -0.16992,0.466797 -0.047,0.110512 -0.0861,0.176385 -0.11133,0.199218 -0.006,0.0057 -0.0106,0.0089 -0.0137,0.0098 -0.003,8.29e-4 -0.004,0.0012 -0.006,0 -0.004,-0.0024 -0.0146,-0.01533 -0.0215,-0.03906 -0.0137,-0.04746 -0.0202,-0.135635 -0.0215,-0.257812 -0.001,-0.08382 -0.005,-0.14696 -0.0137,-0.191406 -0.004,-0.02222 -0.01,-0.03901 -0.0176,-0.05273 -0.008,-0.01372 -0.02,-0.02389 -0.0352,-0.02539 -0.0152,-0.0015 -0.0306,0.0052 -0.0449,0.01563 -0.0143,0.01039 -0.028,0.02514 -0.0449,0.04492 -0.0337,0.03956 -0.0764,0.09716 -0.12695,0.175781 -0.0428,0.06654 -0.081,0.105643 -0.11328,0.117187 -0.0162,0.0058 -0.0301,0.0057 -0.0449,0 -0.0149,-0.0057 -0.0326,-0.01742 -0.0488,-0.03711 -0.0651,-0.07877 -0.13047,-0.276375 -0.19532,-0.595703 -0.05116,-0.251979 -0.264895,-0.996213 -0.568354,-1.996094 -0.303459,-0.999881 -0.69573,-2.25398 -1.105469,-3.521484 l -1.494141,-4.621094 -0.996094,0 -0.996093,0 -1.044922,3.119141 c -0.573101,1.70949 -1.362756,4.214477 -1.753906,5.566406 -0.214524,0.741427 -0.430113,1.353525 -0.621094,1.78125 -0.09549,0.213862 -0.184434,0.381144 -0.263672,0.494141 -0.03962,0.0565 -0.07597,0.100767 -0.109375,0.128906 -0.03341,0.02814 -0.0643,0.04102 -0.08789,0.04102 -0.0509,0 -0.108697,-0.03867 -0.171875,-0.117187 -0.06318,-0.07852 -0.129311,-0.195526 -0.195312,-0.345703 -0.132002,-0.300354 -0.264847,-0.733737 -0.378906,-1.259766 -0.207023,-0.95473 -0.815513,-3.425072 -1.351563,-5.492187 l -0.976562,-3.769532 -0.945313,-0.0918 c -0.335767,-0.03248 -0.562858,-0.02874 -0.697266,0.01953 -0.0672,0.02414 -0.111982,0.05949 -0.132812,0.109375 -0.02083,0.04988 -0.01623,0.111542 0.0078,0.18164 0.01726,0.05031 0.07633,0.255835 0.167969,0.580078 0.09164,0.324244 0.215693,0.768635 0.363281,1.300782 0.295178,1.064294 0.685607,2.479783 1.097657,3.990234 1.085825,3.980292 1.564667,5.821117 1.923828,6.671875 0.17958,0.425379 0.330138,0.60635 0.513672,0.677735 0.183533,0.07138 0.393516,0.0332 0.689453,0.0332 0.391189,0 0.662311,-0.03666 0.861328,-0.138672 0.199017,-0.102015 0.322993,-0.269195 0.421875,-0.521485 l 0.002,-0.002 0,-0.0039 c 0.07173,-0.183669 0.311017,-0.900732 0.640625,-1.917969 0.330615,-1.020343 0.750139,-2.337838 1.181641,-3.707031 0.509073,-1.615345 0.920201,-2.816279 1.21875,-3.572266 0.149274,-0.377993 0.269956,-0.644181 0.361328,-0.794921 0.04569,-0.07537 0.08531,-0.121488 0.111328,-0.136719 0.01301,-0.0076 0.02092,-0.0088 0.02734,-0.0059 0.0064,0.0029 0.01418,0.01312 0.02148,0.03125 0.04397,0.109194 0.07881,0.190472 0.107422,0.244141 0.01431,0.02683 0.02643,0.04684 0.03906,0.06055 0.0063,0.0069 0.01199,0.01205 0.01953,0.01563 0.0075,0.0036 0.01701,0.0048 0.02539,0.002 0.01676,-0.0056 0.02613,-0.0216 0.0332,-0.04102 0.0071,-0.01942 0.01243,-0.04492 0.01758,-0.07813 0.01031,-0.0664 0.01716,-0.162321 0.02539,-0.289062 0.0011,-0.01642 0.0062,-0.02381 0.0078,-0.02734 0.0052,0.0038 0.01469,0.01204 0.02539,0.02734 0.01149,0.01644 0.02595,0.03817 0.04102,0.06641 0.06027,0.11295 0.145786,0.316994 0.25,0.591797 0.208428,0.549605 0.490705,1.387357 0.796875,2.380859 0.612489,1.987498 1.410881,4.556182 1.773438,5.708985 l 0.662109,2.107422 1.156253,0 c 0.31582,0 0.60461,-0.02488 0.81445,-0.06445 0.10492,-0.01979 0.18937,-0.04159 0.25,-0.06836 0.0303,-0.01339 0.0547,-0.02907 0.0723,-0.04492 0.0176,-0.01585 0.0289,-0.03402 0.0293,-0.05469 5e-5,-0.003 0.003,-0.0231 0.01,-0.05273 0.006,-0.02963 0.0167,-0.07004 0.0293,-0.121093 0.0251,-0.102118 0.0618,-0.245495 0.10937,-0.425782 0.0951,-0.360573 0.23119,-0.869308 0.40039,-1.486328 0.33841,-1.234039 0.80615,-2.905983 1.31836,-4.71875 l 1.86914,-6.615234 z m 2.97852,0.0332 0,6.810547 0,6.808594 0.75,0 0.75,0 0,-6.808594 0,-6.810547 -0.75,0 -0.75,0 z m -3.02149,0.0039 -1.85742,6.570313 c -0.51223,1.812833 -0.97797,3.484592 -1.31641,4.71875 -0.16922,0.617079 -0.30723,1.123615 -0.40234,1.484375 -0.0476,0.18038 -0.0842,0.325303 -0.10938,0.427734 -0.0126,0.05122 -0.0227,0.09097 -0.0293,0.121094 -0.007,0.03012 -0.01,0.04868 -0.01,0.06055 -1.8e-4,0.0091 -0.006,0.01895 -0.0195,0.03125 -0.0136,0.0123 -0.0341,0.02653 -0.0625,0.03906 -0.0567,0.02505 -0.14066,0.04689 -0.24414,0.06641 -0.20695,0.03903 -0.49442,0.06445 -0.80859,0.06445 l -1.132816,0 -0.65625,-2.085938 c -0.362504,-1.152637 -1.159013,-3.721542 -1.771484,-5.708984 -0.30631,-0.993957 -0.589976,-1.832088 -0.798828,-2.382813 -0.104426,-0.275362 -0.190143,-0.477917 -0.251953,-0.59375 -0.01545,-0.02896 -0.03033,-0.05224 -0.04297,-0.07031 -0.01264,-0.01808 -0.02274,-0.03133 -0.03516,-0.03906 -0.0062,-0.0039 -0.01319,-0.0067 -0.02148,-0.0059 -0.0083,8.72e-4 -0.0151,0.0056 -0.01953,0.01172 -0.0089,0.01218 -0.0123,0.02769 -0.01367,0.04883 -0.0082,0.126439 -0.01542,0.220904 -0.02539,0.285156 -0.005,0.03213 -0.0118,0.05835 -0.01758,0.07422 -0.0058,0.01587 -0.01176,0.01954 -0.01172,0.01953 0,0 -0.002,0 -0.002,0 -0.002,-9.49e-4 -0.0052,-0.0029 -0.0098,-0.0078 -0.0091,-0.0099 -0.02148,-0.02904 -0.03516,-0.05469 -0.02735,-0.0513 -0.06163,-0.131368 -0.105469,-0.240234 -0.009,-0.02226 -0.02159,-0.04087 -0.03906,-0.04883 -0.01747,-0.008 -0.03627,-0.003 -0.05469,0.0078 -0.03683,0.02156 -0.07629,0.06935 -0.123047,0.146484 -0.09351,0.154271 -0.215671,0.422057 -0.365234,0.800782 -0.299126,0.757448 -0.707611,1.958514 -1.216797,3.574218 -0.431478,1.369117 -0.853014,2.686798 -1.183594,3.707032 -0.33058,1.020234 -0.571326,1.745075 -0.640625,1.921875 l -0.002,0.002 c -0.09708,0.246459 -0.215747,0.404303 -0.40625,0.501953 -0.191313,0.09807 -0.456563,0.136719 -0.845703,0.136719 -0.298579,0 -0.50561,0.0357 -0.677734,-0.03125 -0.172125,-0.06695 -0.317748,-0.237702 -0.496094,-0.660157 -0.356692,-0.844909 -0.837974,-2.68757 -1.923828,-6.667968 -0.412061,-1.510489 -0.800509,-2.927832 -1.095704,-3.992188 -0.147597,-0.532178 -0.271614,-0.976451 -0.363281,-1.300781 -0.09167,-0.324331 -0.151378,-0.526017 -0.169922,-0.580078 -0.02259,-0.06584 -0.02449,-0.118269 -0.0078,-0.158203 0.01668,-0.03993 0.05329,-0.0715 0.115234,-0.09375 0.123895,-0.0445 0.347508,-0.0499 0.681641,-0.01758 l 0.923828,0.08984 0.972656,3.748047 c 0.53597,2.066805 1.142912,4.538957 1.34961,5.492188 0.11437,0.527461 0.24746,0.960138 0.380859,1.263672 0.0667,0.151766 0.133166,0.271421 0.199219,0.353515 0.06605,0.08209 0.130881,0.128906 0.197265,0.128906 0.03472,0 0.07075,-0.01794 0.107422,-0.04883 0.03668,-0.03089 0.0746,-0.07487 0.115235,-0.132812 0.08126,-0.115886 0.171594,-0.285034 0.267578,-0.5 0.191966,-0.429933 0.408241,-1.044707 0.623047,-1.78711 0.39089,-1.35103 1.179033,-3.855503 1.751953,-5.564453 l 1.039062,-3.095703 0.972656,0 0.972657,0 1.486328,4.597656 c 0.409681,1.267326 0.804034,2.519885 1.107422,3.519532 0.303388,0.999646 0.516261,1.747179 0.566406,1.99414 0.06515,0.320832 0.128495,0.519075 0.203125,0.609375 0.0187,0.02257 0.0389,0.03856 0.0606,0.04687 0.0217,0.0083 0.044,0.008 0.0664,0 0.0447,-0.01596 0.0863,-0.05972 0.13086,-0.128906 0.0503,-0.07813 0.0912,-0.136508 0.12305,-0.173828 0.0159,-0.01866 0.0301,-0.03111 0.041,-0.03906 0.0109,-0.008 0.018,-0.01011 0.0215,-0.0098 0.003,3.41e-4 0.007,0.0014 0.0117,0.0098 0.005,0.0084 0.01,0.02272 0.0137,0.04297 0.008,0.0405 0.0107,0.104419 0.0117,0.1875 0.001,0.123313 0.01,0.211469 0.0254,0.265625 0.008,0.02708 0.0153,0.04644 0.0332,0.05664 0.009,0.0051 0.0213,0.0066 0.0312,0.0039 0.01,-0.0027 0.0186,-0.0077 0.0273,-0.01563 0.0348,-0.03152 0.0716,-0.10098 0.11914,-0.212891 0.0476,-0.111911 0.10518,-0.267214 0.17187,-0.46875 0.26677,-0.806141 0.69394,-2.35511 1.34961,-4.84375 l 1.39649,-5.298828 0.88281,-0.08594 0.87109,-0.08594 z m 3.05274,0.0293 0.71875,0 0.71679,0 0,6.777344 0,6.777344 -0.71679,0 -0.71875,0 0,-6.777344 0,-6.777344 z m -32.115238,1.701172 c -0.86477,0 -1.460652,0.189902 -1.919922,0.611328 -0.385012,0.353285 -0.712449,0.835976 -0.916016,1.300781 -0.203566,0.464806 -0.284746,0.910625 -0.173828,1.195313 0.02997,0.07692 0.10591,0.139313 0.234375,0.189453 0.128465,0.05014 0.309336,0.08884 0.556641,0.119141 0.494611,0.0606 1.251058,0.08594 2.355469,0.08594 l 3.001953,0 -0.179688,-1.103516 C 79.22964,20.442029 78.125481,19.546875 76.513672,19.546875 Z m 0,0.0332 c 1.60001,0 2.68683,0.880878 2.927734,2.371094 l 0.171875,1.064453 -2.96289,0 c -1.10393,0 -1.859814,-0.02374 -2.351563,-0.08398 -0.245875,-0.03012 -0.424673,-0.06873 -0.548828,-0.117188 -0.124155,-0.04846 -0.191412,-0.106712 -0.216797,-0.171875 -0.104772,-0.268912 -0.02796,-0.711128 0.173828,-1.171875 0.201789,-0.460747 0.527266,-0.939517 0.908203,-1.289062 0.45263,-0.415334 1.038307,-0.601563 1.898438,-0.601563 z m -15.167969,0.31836 c -0.932945,0.01035 -1.868024,0.410567 -2.462891,1.195312 -0.476351,0.628407 -0.63995,1.330351 -0.708984,3.041016 -0.05072,1.257745 0.05732,2.250948 0.337891,3.011718 0.280569,0.760771 0.73351,1.289862 1.371093,1.617188 l 0.02344,0.01172 0,-0.0078 c 0.468415,0.233109 1.158399,0.302399 1.830078,0.228516 0.680326,-0.07484 1.336537,-0.291278 1.710938,-0.625 0.657823,-0.586346 1.035292,-2.030043 1.105468,-3.521485 0.07018,-1.491441 -0.168251,-3.030223 -0.759765,-3.810547 -0.585105,-0.771849 -1.514321,-1.150976 -2.447266,-1.140624 z m 0,0.0332 c 0.923553,-0.01028 1.8436,0.364112 2.421875,1.126953 0.581716,0.767396 0.823873,2.304022 0.753906,3.791015 -0.06997,1.486994 -0.452926,2.925113 -1.095703,3.498047 -0.365599,0.325878 -1.0175,0.542845 -1.693359,0.617188 -0.675859,0.07434 -1.374955,0.0052 -1.833984,-0.230469 -0.630627,-0.323754 -1.079057,-0.844815 -1.357422,-1.599609 -0.278366,-0.754795 -0.386552,-1.742812 -0.335938,-2.998047 0.06897,-1.708996 0.231576,-2.401365 0.703125,-3.023438 0.588264,-0.776035 1.513948,-1.171364 2.4375,-1.18164 z M 76.484375,20.125 c -0.428793,0 -0.984433,0.29079 -1.433594,0.669922 -0.44916,0.379132 -0.792969,0.846865 -0.792969,1.21289 0,0.09454 0.02812,0.17436 0.101563,0.236329 0.07345,0.06197 0.188575,0.10543 0.363281,0.138671 0.349412,0.06648 0.937113,0.08789 1.898438,0.08789 0.741178,0 1.329323,-0.02859 1.732422,-0.08203 0.201549,-0.02672 0.356467,-0.06047 0.46289,-0.09961 0.05321,-0.01957 0.09423,-0.04067 0.123047,-0.06445 0.02882,-0.02378 0.04492,-0.0516 0.04492,-0.08203 0,-0.162325 -0.109293,-0.366027 -0.283203,-0.583984 -0.17391,-0.217958 -0.412446,-0.450077 -0.675781,-0.66211 C 77.762055,20.684451 77.473447,20.493353 77.203125,20.353516 76.932803,20.213679 76.681594,20.125 76.484375,20.125 Z m 0,0.0332 c 0.187646,0 0.437188,0.08408 0.705078,0.222656 0.26789,0.138579 0.552605,0.33018 0.814453,0.541016 0.261849,0.210836 0.500006,0.440849 0.671875,0.65625 0.17187,0.215401 0.277344,0.416893 0.277344,0.564453 0,0.01867 -0.0108,0.03849 -0.03516,0.05859 -0.02436,0.0201 -0.06211,0.03977 -0.113281,0.05859 -0.102353,0.03765 -0.256752,0.06915 -0.457032,0.0957 -0.400559,0.05311 -0.986211,0.08203 -1.726562,0.08203 -0.960875,0 -1.5485,-0.02047 -1.892578,-0.08594 -0.17204,-0.03273 -0.283133,-0.07672 -0.34961,-0.132812 -0.06648,-0.05609 -0.08984,-0.122608 -0.08984,-0.210938 0,-0.345524 0.337829,-0.811564 0.783204,-1.1875 0.445374,-0.375935 0.997922,-0.662109 1.412109,-0.662109 z m -14.708984,0.419922 c -0.579175,-0.143171 -1.117653,0.0026 -1.576172,0.34375 -0.45852,0.341132 -0.837111,0.877992 -1.09961,1.517578 -0.524996,1.279172 -0.586146,2.972337 0.117188,4.353516 0.459055,0.901484 1.09082,1.431477 1.769531,1.560547 0.678712,0.12907 1.401768,-0.143053 2.042969,-0.835938 0.881097,-0.952113 1.116521,-2.54914 0.859375,-3.976562 -0.257146,-1.427422 -1.008458,-2.689775 -2.113281,-2.962891 z m -0.0078,0.03125 c 1.085766,0.268404 1.834045,1.517552 2.089844,2.9375 0.255799,1.419948 0.01933,3.008132 -0.851563,3.949219 -0.635898,0.687155 -1.347161,0.952922 -2.013671,0.826172 -0.666511,-0.12675 -1.290119,-0.647533 -1.746094,-1.542969 -0.698187,-1.371071 -0.638744,-3.057337 -0.117188,-4.328125 0.260778,-0.635394 0.637446,-1.167329 1.089844,-1.503906 0.452398,-0.336578 0.979027,-0.478745 1.548828,-0.337891 z m -13.810547,4.199219 c -0.963957,-0.05502 -1.850598,0.07523 -2.527343,0.339844 -0.676746,0.264611 -1.145662,0.664289 -1.269532,1.15039 -0.162704,0.638485 -0.171543,1.223971 -0.04102,1.699219 0.130528,0.475247 0.40038,0.841502 0.794921,1.037109 2.236663,1.108899 4.956925,-0.851558 4.66211,-3.359375 -0.02074,-0.176451 -0.04324,-0.314507 -0.08984,-0.423828 -0.04661,-0.10932 -0.117338,-0.191027 -0.228516,-0.25 -0.222355,-0.117945 -0.603265,-0.153546 -1.300781,-0.193359 z m -0.002,0.0332 c 0.697054,0.03979 1.075952,0.07745 1.28711,0.189453 0.105578,0.056 0.170528,0.128482 0.214843,0.232422 0.04431,0.103939 0.06725,0.238504 0.08789,0.414062 0.291924,2.483223 -2.401277,4.425767 -4.615234,3.328125 -0.385559,-0.191153 -0.650645,-0.547207 -0.779297,-1.015625 -0.128652,-0.468417 -0.120601,-1.049379 0.04102,-1.683593 0.120121,-0.471389 0.578766,-0.86645 1.25,-1.128907 0.671235,-0.262456 1.5537,-0.390733 2.513672,-0.335937 z m 0.0625,0.488281 c -0.790276,0 -1.553292,0.174148 -2.146484,0.457031 -0.593193,0.282884 -1.018055,0.674355 -1.128906,1.109375 -0.05123,0.201039 -0.0739,0.419289 -0.07031,0.611328 0.0036,0.19204 0.03233,0.356374 0.0918,0.451172 0.294891,0.469945 0.936505,0.668159 1.617187,0.621094 0.675757,-0.04672 1.389113,-0.339914 1.853516,-0.851562 4.04e-4,-4.46e-4 0.0015,4.45e-4 0.002,0 0.003,-0.0033 0.0088,-0.0026 0.01172,-0.0059 l 0.02344,-0.02734 -0.01172,0 c 0.240965,-0.28116 0.52085,-0.898419 0.630859,-1.408203 0.04983,-0.230904 0.08715,-0.403916 0.09766,-0.537109 0.01051,-0.133193 -0.0057,-0.228554 -0.06445,-0.292969 -0.05878,-0.06442 -0.156469,-0.09522 -0.302734,-0.111328 -0.146266,-0.0161 -0.343012,-0.01563 -0.603516,-0.01563 z m 0,0.03125 c 0.260421,0 0.456325,0.0018 0.59961,0.01758 0.143284,0.01577 0.23298,0.04457 0.283203,0.09961 0.05022,0.05504 0.06491,0.138038 0.05469,0.267578 -0.01022,0.12954 -0.0459,0.30435 -0.0957,0.535156 -0.11089,0.513869 -0.399136,1.15658 -0.634766,1.419922 -0.457013,0.510784 -1.172575,0.801114 -1.845703,0.847656 -0.673127,0.04654 -1.301972,-0.151776 -1.58789,-0.607422 -0.05293,-0.08438 -0.08436,-0.244606 -0.08789,-0.433594 -0.0035,-0.188987 0.01988,-0.405624 0.07031,-0.603515 0.107128,-0.420409 0.523125,-0.807387 1.111328,-1.087891 0.588202,-0.280504 1.347268,-0.455078 2.132812,-0.455078 z m 29.101563,13.84375 c -0.02363,0 -0.05997,0.0061 -0.113282,0.01758 -0.05331,0.01145 -0.121485,0.02859 -0.205078,0.05078 -0.167186,0.04439 -0.395095,0.10924 -0.673828,0.193359 -0.557465,0.168238 -1.323158,0.412734 -2.244141,0.712891 -1.841965,0.600312 -4.300052,1.427107 -6.929687,2.33789 -5.259086,1.821495 -16.150241,5.586237 -24.203125,8.365234 -4.026484,1.389514 -7.714449,2.678159 -10.410156,3.636719 -1.347854,0.47928 -2.447524,0.877306 -3.21875,1.16211 -0.385613,0.142402 -0.689314,0.256857 -0.900391,0.339843 -0.105538,0.04149 -0.187812,0.07424 -0.246094,0.09961 -0.02914,0.01269 -0.05126,0.02263 -0.06836,0.03125 -0.0171,0.0086 -0.02718,0.0153 -0.03516,0.02344 -4.96e-4,5.07e-4 -0.0029,0.0021 -0.0039,0.0039 -9.73e-4,0.0018 -0.0033,0.0041 -0.0039,0.0059 -0.0013,0.0035 -0.0012,0.0076 -0.002,0.01172 -0.0016,0.0083 -0.0032,0.01862 -0.0039,0.03125 -0.0014,0.02526 -0.0011,0.05892 0,0.103515 0.0022,0.08919 0.0096,0.21742 0.02148,0.382813 0.02382,0.330785 0.06712,0.811452 0.126953,1.423828 0.119659,1.224751 0.306981,2.980144 0.548829,5.136719 0.483695,4.313149 1.183112,10.229812 1.980468,16.708984 1.594709,12.958254 3.327379,27.107225 3.851563,31.443355 0.262103,2.16817 0.518927,4.16796 0.720703,5.64258 0.100888,0.73731 0.188301,1.34482 0.255859,1.77539 0.03378,0.21529 0.06274,0.38572 0.08594,0.50782 0.0116,0.061 0.02055,0.11056 0.0293,0.14648 0.0087,0.0359 0.01456,0.0564 0.02344,0.0703 3.44e-4,5.4e-4 0.0029,0.003 0.0039,0.004 0.001,0.001 0.0028,0.003 0.0039,0.004 0.0023,0.002 0.0047,0.003 0.0078,0.006 0.0062,0.005 0.01318,0.0124 0.02344,0.0195 0.02052,0.0142 0.05062,0.0312 0.08789,0.0547 0.07453,0.0469 0.182543,0.11243 0.322266,0.19532 0.279446,0.16577 0.685107,0.40262 1.205078,0.70117 1.039943,0.5971 2.532982,1.44379 4.369141,2.47851 3.672316,2.06944 8.716407,4.8902 14.24414,7.96094 5.527747,3.07075 10.588112,5.84867 14.28711,7.85156 1.849498,1.00145 3.358441,1.8081 4.416015,2.36133 0.528788,0.27662 0.943318,0.49084 1.232422,0.63281 0.144552,0.071 0.258216,0.1236 0.337891,0.15821 0.03984,0.0173 0.07034,0.0291 0.09375,0.0371 0.01171,0.004 0.02314,0.008 0.03125,0.01 0.0041,8.4e-4 0.0061,0.002 0.0098,0.002 0.0018,8e-5 0.0039,2e-4 0.0059,0 0.002,-2.1e-4 0.0072,-0.002 0.0078,-0.002 0.02183,-0.008 0.07913,-0.0371 0.175782,-0.0859 0.09665,-0.0488 0.229219,-0.1173 0.398437,-0.20507 0.338436,-0.17556 0.817325,-0.42692 1.416016,-0.74219 1.197382,-0.63053 2.876251,-1.51777 4.873047,-2.57813 3.993591,-2.1207 9.264109,-4.92899 14.521484,-7.73632 5.257378,-2.80734 10.500788,-5.61537 14.443358,-7.73243 1.97129,-1.05852 3.61822,-1.94447 4.77735,-2.57226 0.57956,-0.3139 1.03739,-0.56237 1.35351,-0.73633 0.15806,-0.087 0.28052,-0.15512 0.36523,-0.20313 0.0424,-0.024 0.0745,-0.0428 0.0977,-0.0566 0.0116,-0.007 0.0205,-0.0132 0.0273,-0.0176 0.003,-0.002 0.007,-0.004 0.01,-0.006 0.002,-0.002 0.005,-0.003 0.006,-0.004 0.012,-0.0122 0.0178,-0.0317 0.0273,-0.0606 0.01,-0.0289 0.0196,-0.0668 0.0312,-0.11523 0.0233,-0.0969 0.0509,-0.23221 0.082,-0.40234 0.0624,-0.34028 0.13999,-0.81857 0.22656,-1.4004 0.17314,-1.16364 0.38436,-2.74183 0.59179,-4.45117 0.41484,-3.41841 1.48149,-12.13478 2.3711,-19.369138 1.85305,-15.068985 3.00305,-24.474154 3.67578,-30.126953 0.33636,-2.826399 0.55324,-4.714361 0.67969,-5.902343 0.0632,-0.593991 0.1036,-1.013082 0.125,-1.28711 0.0107,-0.137014 0.018,-0.238082 0.0195,-0.30664 7.8e-4,-0.03428 -5.5e-4,-0.06097 -0.002,-0.08008 -7.1e-4,-0.0096 -5.1e-4,-0.01689 -0.002,-0.02344 -7.2e-4,-0.0033 -0.003,-0.0068 -0.004,-0.0098 -6.1e-4,-0.0015 -0.001,-0.0024 -0.002,-0.0039 -9.2e-4,-0.0015 -0.003,-0.0035 -0.004,-0.0039 -2.5e-4,-2.39e-4 -0.001,-0.0033 -0.002,-0.0039 -8.7e-4,-6.22e-4 -0.003,-0.0014 -0.004,-0.002 -0.002,-0.001 -0.004,-8.84e-4 -0.006,-0.002 -0.004,-0.0021 -0.009,-0.0049 -0.0156,-0.0078 -0.0135,-0.0058 -0.0325,-0.01404 -0.0566,-0.02344 -0.0482,-0.0188 -0.117,-0.0433 -0.20703,-0.07617 -0.18006,-0.06575 -0.44295,-0.159673 -0.77734,-0.277344 -0.66879,-0.235342 -1.62703,-0.568264 -2.80664,-0.97461 -2.35923,-0.812691 -5.598,-1.918571 -9.14649,-3.121093 -7.09693,-2.405028 -18.03831,-6.118247 -24.314451,-8.251953 -3.138141,-1.066883 -6.059222,-2.037041 -8.236328,-2.740235 -1.088553,-0.351597 -1.991238,-0.636928 -2.642579,-0.833984 -0.32567,-0.09853 -0.589358,-0.174587 -0.78125,-0.226563 -0.09595,-0.02599 -0.172801,-0.0452 -0.232421,-0.05859 -0.05962,-0.01339 -0.100854,-0.02148 -0.125,-0.02148 z m 0,0.03125 c 0.01709,0 0.05832,0.0083 0.117187,0.02148 0.05886,0.01322 0.136745,0.03268 0.232422,0.05859 0.191353,0.05183 0.453796,0.128086 0.779297,0.226563 0.651001,0.196954 1.554137,0.482424 2.642578,0.833984 2.176881,0.703121 5.096366,1.671444 8.234375,2.738281 6.276159,2.133713 17.21751,5.846921 24.31445,8.251954 3.54845,1.202507 6.78734,2.308428 9.14649,3.121093 1.17957,0.406333 2.13993,0.739312 2.80859,0.97461 0.33433,0.117649 0.59555,0.211675 0.77539,0.277343 0.0899,0.03283 0.1592,0.05949 0.20703,0.07813 0.0239,0.0093 0.0439,0.01595 0.0566,0.02148 0.006,0.0028 0.0104,0.0061 0.0137,0.0078 0.002,8.35e-4 0.003,0.0016 0.004,0.002 1.3e-4,4.9e-4 -1.3e-4,0.0013 0,0.002 9e-4,0.0041 0.001,0.009 0.002,0.01758 0.001,0.01725 7.8e-4,0.04441 0,0.07813 -0.002,0.06743 -0.007,0.166021 -0.0176,0.302734 -0.0214,0.273425 -0.0618,0.693262 -0.125,1.287109 -0.12642,1.187695 -0.34333,3.076 -0.67969,5.902344 -0.67272,5.652689 -1.82273,15.057978 -3.67578,30.126953 -0.88961,7.234364 -1.95625,15.950674 -2.3711,19.369144 -0.2074,1.70909 -0.41872,3.28599 -0.59179,4.44922 -0.0865,0.58161 -0.16432,1.06074 -0.22657,1.40039 -0.0311,0.16982 -0.0571,0.30452 -0.0801,0.40039 -0.0115,0.0479 -0.0222,0.0859 -0.0312,0.11328 -0.009,0.0274 -0.0197,0.0451 -0.0215,0.0469 0,0 -0.002,0.002 -0.002,0.002 -0.002,0.001 -0.005,0.002 -0.008,0.004 -0.006,0.004 -0.014,0.0108 -0.0254,0.0176 -0.0228,0.0136 -0.0554,0.0327 -0.0977,0.0566 -0.0845,0.0479 -0.20723,0.11618 -0.36523,0.20313 -0.316,0.17389 -0.77399,0.42245 -1.35352,0.73632 -1.15906,0.62776 -2.80607,1.51375 -4.77734,2.57227 -3.94254,2.11703 -9.186,4.92314 -14.443363,7.73047 -5.257359,2.80732 -10.527928,5.61564 -14.521485,7.73633 -1.996778,1.06034 -3.673773,1.94957 -4.871093,2.58008 -0.59866,0.31525 -1.077691,0.56473 -1.416016,0.74023 -0.169163,0.0877 -0.30392,0.15828 -0.400391,0.20703 -0.09647,0.0488 -0.155909,0.076 -0.171874,0.082 -0.0012,-5e-5 -0.0029,6.1e-4 -0.0059,0 -0.0059,-0.001 -0.01443,-0.004 -0.02539,-0.008 -0.02192,-0.007 -0.05435,-0.02 -0.09375,-0.0371 -0.0788,-0.0342 -0.189668,-0.0873 -0.333985,-0.1582 -0.288633,-0.14175 -0.705714,-0.35431 -1.234375,-0.63086 -1.057322,-0.5531 -2.566593,-1.36188 -4.416016,-2.36328 -3.698845,-2.00281 -8.757492,-4.78086 -14.285156,-7.85157 -5.527686,-3.07071 -10.571909,-5.88959 -14.24414,-7.95898 -1.836116,-1.0347 -3.329337,-1.8815 -4.369141,-2.47852 -0.519902,-0.29851 -0.925883,-0.53554 -1.205078,-0.70117 -0.139598,-0.0828 -0.248174,-0.14678 -0.322266,-0.19336 -0.03705,-0.0233 -0.06417,-0.0429 -0.08398,-0.0566 -0.0099,-0.007 -0.01815,-0.0134 -0.02344,-0.0176 -0.0026,-0.002 -0.0046,-0.003 -0.0059,-0.004 0,0 -0.002,-0.002 -0.002,-0.002 -0.0021,-0.003 -0.01101,-0.0255 -0.01953,-0.0605 -0.0085,-0.035 -0.01776,-0.0838 -0.0293,-0.14453 -0.02309,-0.12149 -0.05219,-0.29272 -0.08594,-0.50782 -0.0675,-0.43019 -0.154988,-1.03625 -0.255859,-1.77343 -0.201742,-1.47438 -0.456664,-3.4726 -0.71875,-5.64063 -0.524197,-4.33624 -2.258805,-18.487045 -3.853516,-31.445311 -0.797344,-6.479078 -1.496792,-12.396007 -1.980468,-16.708985 -0.241839,-2.156489 -0.429198,-3.912251 -0.548829,-5.136718 -0.05982,-0.612234 -0.103172,-1.091615 -0.126953,-1.421875 -0.01189,-0.165131 -0.01929,-0.292622 -0.02148,-0.38086 -0.0011,-0.04412 5.96e-4,-0.0779 0.002,-0.101562 6.78e-4,-0.01183 8.25e-4,-0.02131 0.002,-0.02734 5.64e-4,-0.003 0.0016,-0.0048 0.002,-0.0059 0,0 0,-0.002 0,-0.002 0.0016,-0.0011 0.01059,-0.0062 0.02539,-0.01367 0.01617,-0.0082 0.03954,-0.0187 0.06836,-0.03125 0.05764,-0.02509 0.138798,-0.05819 0.244141,-0.09961 0.210686,-0.08283 0.514889,-0.197483 0.90039,-0.339843 0.771003,-0.284722 1.870967,-0.680902 3.21875,-1.160157 2.695568,-0.95851 6.381798,-2.249185 10.408204,-3.638672 8.052896,-2.779002 18.94401,-6.541776 24.203125,-8.363281 2.629475,-0.910727 5.08799,-1.739618 6.929687,-2.339844 0.920849,-0.300112 1.687071,-0.542818 2.244141,-0.710937 0.278535,-0.08406 0.505296,-0.149132 0.671875,-0.193359 0.08329,-0.02211 0.150635,-0.03951 0.203125,-0.05078 0.05249,-0.01127 0.08982,-0.01758 0.107422,-0.01758 z m 0.01758,0.28711 -19.707031,6.80664 c -10.836883,3.742947 -21.862125,7.541952 -24.5,8.441406 l -4.808594,1.638672 0.189453,1.748047 c 0.103535,0.954577 0.645232,5.44121 1.203125,9.972656 0.557879,4.531406 2.196568,17.867024 3.642578,29.632813 1.245586,10.135038 1.910689,15.487508 2.341797,18.359378 0.215554,1.43593 0.373866,2.25092 0.515625,2.73437 0.07088,0.24173 0.137632,0.40162 0.207031,0.51367 0.0694,0.11206 0.140801,0.1763 0.21875,0.22852 0.07122,0.0477 0.285136,0.17492 0.625,0.37109 0.339865,0.19618 0.805475,0.46185 1.378906,0.78711 1.146862,0.65053 2.723343,1.5388 4.585938,2.58399 3.725191,2.09037 8.590867,4.80715 13.429687,7.50195 4.838821,2.6948 9.651542,5.36696 13.271485,7.36719 1.809971,1.00011 3.322693,1.83309 4.390625,2.41601 0.533966,0.29146 0.956156,0.52099 1.25,0.67774 0.146921,0.0784 0.261637,0.13875 0.341797,0.17969 0.04008,0.0205 0.07105,0.0362 0.09375,0.0469 0.01135,0.005 0.02021,0.009 0.02734,0.0117 0.0036,0.001 0.007,0.003 0.0098,0.004 0.0027,9.2e-4 0.0067,0.002 0.0078,0.002 5.6e-4,5e-5 0.0044,1.3e-4 0.0059,0 0.0015,-1.3e-4 0.0025,-0.002 0.0039,-0.002 0.0028,-5.4e-4 0.0065,-9.8e-4 0.0098,-0.002 0.0066,-0.002 0.01364,-0.004 0.02344,-0.008 0.01959,-0.008 0.04657,-0.0201 0.08008,-0.0352 0.06702,-0.0302 0.161553,-0.0752 0.283203,-0.13476 0.243302,-0.11903 0.594107,-0.29412 1.039063,-0.52149 0.889913,-0.45473 2.158754,-1.11515 3.714844,-1.92968 3.11218,-1.62908 7.369227,-3.87884 12.019531,-6.35743 9.30053,-4.95714 18.79439,-9.9973 21.0957,-11.20117 1.42818,-0.7471 2.48426,-1.34066 3.19727,-1.79687 0.3565,-0.22811 0.62861,-0.42194 0.8164,-0.58399 0.1878,-0.16205 0.2927,-0.29259 0.31836,-0.39844 0.0103,-0.0423 0.0298,-0.16514 0.0586,-0.36523 0.0288,-0.20008 0.0676,-0.47549 0.11328,-0.81836 0.0914,-0.68573 0.21355,-1.64022 0.35937,-2.79297 0.29165,-2.3055 0.6742,-5.40517 1.07813,-8.74414 0.80786,-6.677861 2.32371,-19.101091 3.36719,-27.60742 1.04349,-8.506342 2.07717,-16.942188 2.29687,-18.746094 l 0.40039,-3.292968 -0.76367,-0.289063 c -0.20948,-0.07941 -1.88173,-0.654162 -4.41211,-1.517578 -2.53037,-0.863416 -5.91858,-2.014551 -9.55078,-3.246094 C 104.14187,48.695125 93.462338,45.0691 87.671875,43.101562 L 77.136719,39.523438 Z m 0.002,0.0332 10.521484,3.576171 c 5.790477,1.967543 16.471944,5.591607 23.736324,8.054688 3.63219,1.231537 7.01849,2.38464 9.54883,3.248047 2.53035,0.863406 4.20764,1.43811 4.41211,1.515625 l 0.74024,0.28125 L 125.69922,59.5 c -0.2197,1.803835 -1.25339,10.239755 -2.29688,18.746094 -1.04348,8.506351 -2.55737,20.929522 -3.36523,27.607426 -0.40393,3.33891 -0.78649,6.43872 -1.07813,8.74414 -0.14581,1.1527 -0.26999,2.10735 -0.36132,2.79296 -0.0457,0.34281 -0.0826,0.61847 -0.11133,0.81836 -0.0287,0.19989 -0.0496,0.32609 -0.0586,0.36329 -0.0222,0.0914 -0.12275,0.21854 -0.30859,0.3789 -0.18584,0.16037 -0.45479,0.3544 -0.81055,0.58203 -0.71151,0.45527 -1.7695,1.04804 -3.19726,1.79492 -2.3018,1.20412 -11.79319,6.24597 -21.093752,11.20313 -4.650246,2.47855 -8.907457,4.7284 -12.019531,6.35742 -1.556037,0.81451 -2.827058,1.47309 -3.716797,1.92774 -0.444869,0.22732 -0.794129,0.40456 -1.037109,0.52343 -0.121491,0.0594 -0.216768,0.10287 -0.283203,0.13282 -0.03322,0.015 -0.05951,0.0279 -0.07813,0.0352 -0.0093,0.004 -0.01626,0.006 -0.02148,0.008 -0.0026,7.8e-4 -0.0046,-2.3e-4 -0.0059,0 0,0 -0.002,0 -0.002,0 -0.0017,-5.6e-4 -0.0027,-6.5e-4 -0.0059,-0.002 -0.0063,-0.003 -0.01627,-0.006 -0.02734,-0.0117 -0.02215,-0.0104 -0.05383,-0.0265 -0.09375,-0.0469 -0.07984,-0.0408 -0.19301,-0.10136 -0.339843,-0.17969 -0.293668,-0.15665 -0.718034,-0.3863 -1.251953,-0.67773 -1.067839,-0.58287 -2.578727,-1.41397 -4.388672,-2.41407 -3.619891,-2.00019 -8.432687,-4.6724 -13.271485,-7.36718 -4.838797,-2.69479 -9.704545,-5.41161 -13.429687,-7.50196 -1.862571,-1.04517 -3.439154,-1.9335 -4.585938,-2.58398 -0.573391,-0.32524 -1.039166,-0.59101 -1.378906,-0.78711 -0.33974,-0.1961 -0.554771,-0.3234 -0.623047,-0.36914 -0.07538,-0.0505 -0.141858,-0.11232 -0.208984,-0.2207 -0.06713,-0.10839 -0.13467,-0.26379 -0.205078,-0.50391 -0.140816,-0.48024 -0.296239,-1.29503 -0.511719,-2.73047 C 35.100291,113.24826 34.433084,107.89478 33.1875,97.759766 31.74149,85.993975 30.102802,72.658368 29.544922,68.126953 28.987035,63.595559 28.445202,59.10768 28.341797,58.154297 l -0.185547,-1.720703 4.783203,-1.632813 c 2.638144,-0.899546 13.663102,-4.6965 24.5,-8.439453 l 19.699219,-6.804687 z m -1.121094,4.779297 -1.683594,0.597656 c -0.923496,0.327998 -10.661385,3.73661 -21.638672,7.574218 -5.488674,1.918816 -10.508407,3.691495 -14.173828,5.001954 -1.83271,0.655229 -3.327875,1.195536 -4.373046,1.580078 -0.522586,0.192271 -0.932475,0.345269 -1.216797,0.455078 -0.142162,0.0549 -0.252512,0.100308 -0.330079,0.132812 -0.03878,0.01625 -0.06959,0.02853 -0.0918,0.03906 -0.0222,0.01053 -0.03371,0.01653 -0.04297,0.02539 -0.0079,0.0076 -0.01073,0.01593 -0.01367,0.02734 -0.0029,0.01141 -0.006,0.02557 -0.0078,0.04297 -0.0036,0.0348 -0.0056,0.08205 -0.0059,0.142578 -4.65e-4,0.12105 0.0053,0.294323 0.01758,0.515625 0.02458,0.442604 0.07512,1.080485 0.146485,1.886719 0.142728,1.612468 0.373446,3.901171 0.669922,6.658203 0.592951,5.514064 1.448072,12.901458 2.388671,20.507813 0.226074,1.828249 1.026236,8.593839 1.777344,15.033202 0.408381,3.50114 0.786075,6.46497 1.087891,8.58203 0.150907,1.05853 0.282928,1.90577 0.390625,2.50195 0.05385,0.2981 0.101515,0.53291 0.142578,0.70118 0.02053,0.0841 0.0394,0.15092 0.05664,0.20117 0.01724,0.0503 0.03121,0.0832 0.04883,0.10156 0.0084,0.009 0.02096,0.0201 0.04297,0.0352 0.02201,0.015 0.05284,0.0335 0.08984,0.0566 0.07401,0.0463 0.178292,0.10974 0.310547,0.1875 0.264509,0.15552 0.641955,0.37114 1.121094,0.64258 0.958277,0.54288 2.320025,1.30338 3.986328,2.22656 3.332606,1.84636 7.88155,4.34184 12.839844,7.04101 4.958295,2.69918 9.510938,5.15393 12.851562,6.9336 1.670312,0.88983 3.03642,1.61047 4,2.10937 0.48179,0.24946 0.863435,0.44453 1.130859,0.57617 0.133713,0.0658 0.238864,0.11646 0.314454,0.1504 0.03779,0.017 0.06885,0.0283 0.0918,0.0371 0.02295,0.009 0.03537,0.0155 0.04883,0.0156 0.0073,7e-5 0.01178,-0.003 0.01953,-0.006 0.0078,-0.003 0.01771,-0.005 0.0293,-0.01 0.02316,-0.009 0.05443,-0.0228 0.09375,-0.041 0.07864,-0.0365 0.188985,-0.0915 0.330078,-0.16211 0.282185,-0.14127 0.686328,-0.3491 1.193359,-0.61328 1.014063,-0.52837 2.443472,-1.28375 4.152344,-2.19336 3.417744,-1.81922 7.952225,-4.25344 12.509766,-6.71289 4.55754,-2.45946 9.137244,-4.94334 12.648434,-6.86328 1.7556,-0.95997 3.24399,-1.7789 4.32813,-2.38281 0.54207,-0.30196 0.98362,-0.55101 1.30664,-0.73633 0.32302,-0.18533 0.5279,-0.30578 0.59961,-0.35743 0.0971,-0.0699 0.18289,-0.20753 0.26953,-0.43554 0.0866,-0.22802 0.17338,-0.54759 0.26367,-0.98633 0.18059,-0.87749 0.37994,-2.22966 0.64063,-4.26367 2.56124,-19.984205 4.19203,-32.812066 5.16015,-40.664064 0.48406,-3.926 0.80172,-6.607991 0.98828,-8.31836 0.0933,-0.855184 0.15404,-1.467437 0.18555,-1.871094 0.0158,-0.201828 0.0235,-0.351025 0.0254,-0.453124 9.4e-4,-0.05105 4.7e-4,-0.09085 -0.002,-0.119141 -0.001,-0.01415 -0.004,-0.02585 -0.006,-0.03516 -0.001,-0.0047 -0.002,-0.0078 -0.004,-0.01172 -8.7e-4,-0.0019 -7.2e-4,-0.004 -0.002,-0.0059 -0.001,-0.0018 -0.005,-0.0052 -0.006,-0.0059 -0.005,-0.0041 -0.007,-0.0066 -0.0137,-0.0098 -0.006,-0.0032 -0.0136,-0.0055 -0.0234,-0.0098 -0.0197,-0.0086 -0.0472,-0.0196 -0.082,-0.0332 -0.0696,-0.0272 -0.17028,-0.06457 -0.29883,-0.111328 -0.2571,-0.09352 -0.629,-0.22507 -1.10351,-0.390625 -0.94904,-0.331111 -2.30853,-0.799239 -3.97657,-1.367188 -3.33607,-1.135897 -7.90773,-2.675613 -12.91211,-4.347656 C 92.299899,49.794603 82.290252,46.44526 80.066406,45.697266 l -4.048828,-1.361328 z m 0.002,0.0332 4.03711,1.359375 c 2.223994,0.748045 12.233485,4.095382 22.242189,7.439453 5.00433,1.672027 9.57613,3.213741 12.91211,4.349609 1.66799,0.567934 3.02767,1.034172 3.97656,1.365234 0.47445,0.165532 0.84667,0.297194 1.10352,0.390626 0.12842,0.04671 0.2277,0.0843 0.29687,0.111328 0.0346,0.01351 0.0611,0.0249 0.0801,0.0332 0.009,0.0042 0.0162,0.0071 0.0215,0.0098 0.005,0.0027 0.009,0.0048 0.008,0.0039 6e-4,0.0013 0.003,0.0045 0.004,0.0078 0.002,0.0067 0.003,0.01615 0.004,0.0293 0.002,0.0263 0.003,0.06479 0.002,0.115234 -0.002,0.100884 -0.0116,0.251624 -0.0273,0.453125 -0.0315,0.403002 -0.0903,1.014116 -0.1836,1.869141 -0.18652,1.710051 -0.50618,4.392425 -0.99023,8.318359 -0.9681,7.85187 -2.59696,20.679875 -5.1582,40.664061 -0.26066,2.03375 -0.46041,3.38604 -0.64063,4.26172 -0.0901,0.43784 -0.17612,0.75521 -0.26172,0.98047 -0.0856,0.22525 -0.17145,0.35632 -0.25976,0.41992 -0.0676,0.0487 -0.27289,0.17222 -0.59571,0.35742 -0.32281,0.18521 -0.76464,0.43246 -1.30664,0.73438 -1.084,0.60384 -2.57062,1.42286 -4.32617,2.38281 -3.51111,1.9199 -8.092889,4.4058 -12.650389,6.86523 -4.557501,2.45944 -9.092111,4.89372 -12.509766,6.7129 -1.708827,0.90958 -3.13844,1.66507 -4.152344,2.19336 -0.506951,0.26414 -0.909519,0.4702 -1.191406,0.61132 -0.140944,0.0706 -0.251971,0.12584 -0.330078,0.16211 -0.03905,0.0181 -0.06951,0.032 -0.0918,0.041 -0.01114,0.005 -0.0208,0.008 -0.02734,0.01 -0.0065,0.002 -0.01135,0.002 -0.0098,0.002 -3.17e-4,-1e-5 -0.0171,-0.003 -0.03906,-0.0117 -0.02197,-0.008 -0.05041,-0.0203 -0.08789,-0.0371 -0.07495,-0.0336 -0.180926,-0.0847 -0.314454,-0.15039 -0.267055,-0.13146 -0.647219,-0.32482 -1.128906,-0.57422 -0.963374,-0.4988 -2.331704,-1.21957 -4.001953,-2.10938 -3.340498,-1.7796 -7.893338,-4.23445 -12.851563,-6.93359 -4.958235,-2.69914 -9.505386,-5.19471 -12.83789,-7.04102 -1.666252,-0.92315 -3.028213,-1.68377 -3.986328,-2.22656 -0.479058,-0.27139 -0.856861,-0.48917 -1.121094,-0.64453 -0.132116,-0.0777 -0.235024,-0.13957 -0.308594,-0.18555 -0.03679,-0.023 -0.06648,-0.042 -0.08789,-0.0566 -0.02141,-0.0146 -0.03522,-0.0253 -0.03906,-0.0293 -0.009,-0.009 -0.02625,-0.0411 -0.04297,-0.0899 -0.01671,-0.0487 -0.03429,-0.11565 -0.05469,-0.19922 -0.04079,-0.16713 -0.08879,-0.40148 -0.142578,-0.69921 -0.107568,-0.59548 -0.239749,-1.4417 -0.390625,-2.5 -0.301752,-2.11662 -0.679532,-5.08108 -1.087891,-8.58204 -0.751112,-6.439394 -1.551218,-13.204528 -1.777344,-15.033199 -0.94058,-7.606195 -1.795745,-14.993981 -2.388671,-20.507812 -0.296464,-2.756916 -0.527226,-5.046104 -0.669922,-6.658203 -0.07135,-0.80605 -0.119989,-1.442833 -0.144532,-1.884766 -0.01227,-0.220966 -0.01804,-0.393816 -0.01758,-0.513672 2.3e-4,-0.05993 4.59e-4,-0.105786 0.0039,-0.138672 0.0017,-0.01644 0.0055,-0.03013 0.0078,-0.03906 0.0023,-0.0089 0.0049,-0.01267 0.0039,-0.01172 -1.84e-4,1.76e-4 0.01373,-0.0094 0.03516,-0.01953 0.02142,-0.01016 0.05132,-0.02292 0.08984,-0.03906 0.07705,-0.03229 0.188069,-0.07601 0.330078,-0.130859 0.28402,-0.109692 0.694297,-0.264792 1.216797,-0.457031 1.045001,-0.38448 2.538437,-0.922915 4.371094,-1.578125 3.665315,-1.310421 8.685213,-3.083159 14.173828,-5.001954 10.977294,-3.837611 20.714208,-7.245877 21.638672,-7.574218 l 1.675781,-0.595703 z m -0.0957,0.61914 -14.552734,5.09375 c -12.843667,4.495381 -19.906715,6.969044 -23.779297,8.339844 -1.936291,0.6854 -3.073464,1.095675 -3.738281,1.34375 -0.332409,0.124038 -0.547373,0.207819 -0.683594,0.265625 -0.136221,0.05781 -0.193724,0.08668 -0.21875,0.111328 -0.01126,0.01109 -0.01293,0.02354 -0.01563,0.04297 -0.0027,0.01943 -0.0032,0.04702 -0.0039,0.08008 -0.0013,0.06611 0.0013,0.160152 0.0078,0.285156 0.013,0.250009 0.04191,0.621473 0.08789,1.125 0.09196,1.007055 0.252001,2.54175 0.490234,4.69336 0.476466,4.303218 1.265165,11.068883 2.441406,20.986328 0.39601,3.338928 1.320038,11.144962 2.054688,17.345701 0.405856,3.42565 0.775734,6.27687 1.070312,8.29688 0.14729,1.01 0.275377,1.81242 0.38086,2.375 0.05274,0.28128 0.09998,0.5024 0.140625,0.66015 0.02032,0.0789 0.03936,0.14059 0.05664,0.1875 0.01728,0.0469 0.03052,0.0787 0.04883,0.0957 0.02785,0.0259 0.101131,0.0745 0.220703,0.14843 0.119571,0.0739 0.284312,0.17192 0.488281,0.29102 0.407937,0.2382 0.974148,0.56097 1.658203,0.94531 1.36811,0.76868 3.206012,1.78227 5.183594,2.85742 3.955017,2.15024 11.946327,6.5122 17.757812,9.69336 2.905785,1.5906 5.574139,3.03956 7.53125,4.0918 0.978556,0.52612 1.779456,0.95369 2.34375,1.25 0.282147,0.14816 0.503623,0.26295 0.660157,0.3418 0.07827,0.0394 0.141292,0.0692 0.185546,0.0898 0.02213,0.0103 0.03923,0.0179 0.05273,0.0234 0.0135,0.006 0.02168,0.009 0.03125,0.01 4.96e-4,5e-5 0.0024,1.9e-4 0.0039,0 0.0015,-1.8e-4 0.0025,3.2e-4 0.0039,0 0.0028,-6.3e-4 0.0064,-8.4e-4 0.0098,-0.002 0.0066,-0.002 0.01523,-0.006 0.02539,-0.01 0.02033,-0.008 0.04842,-0.0222 0.08398,-0.0391 0.07113,-0.0337 0.17203,-0.0841 0.302734,-0.15039 0.261408,-0.13249 0.639883,-0.32738 1.121094,-0.58008 0.962421,-0.50538 2.338262,-1.2381 4.027344,-2.14257 3.378163,-1.80896 8.00649,-4.30617 13.068359,-7.05665 5.061857,-2.75046 9.676227,-5.2632 13.033207,-7.0957 1.67848,-0.91625 3.04181,-1.6627 3.99023,-2.18359 0.47421,-0.26045 0.84587,-0.46458 1.09961,-0.60547 0.12687,-0.0704 0.22396,-0.12607 0.29102,-0.16406 0.0335,-0.019 0.0601,-0.0324 0.0781,-0.043 0.009,-0.005 0.0163,-0.0104 0.0215,-0.0137 0.003,-0.002 0.004,-0.003 0.006,-0.004 0.002,-0.001 0.003,-0.003 0.004,-0.004 2.5e-4,-2.3e-4 0.004,-0.004 0.004,-0.004 0,0 0.002,-0.002 0.002,-0.002 0.001,-0.002 0.001,-0.004 0.002,-0.006 0.002,-0.004 0.002,-0.007 0.004,-0.0117 0.003,-0.0102 0.008,-0.0257 0.0117,-0.043 0.008,-0.0346 0.0179,-0.0833 0.0293,-0.14649 0.0227,-0.12633 0.0521,-0.30855 0.0879,-0.54101 0.0715,-0.46493 0.16767,-1.12913 0.28125,-1.94532 0.22714,-1.63237 0.52473,-3.86965 0.83789,-6.3164 2.23633,-17.472696 3.69113,-28.899096 4.58789,-36.041017 0.44838,-3.57096 0.7566,-6.069175 0.95312,-7.71875 0.0983,-0.824787 0.16916,-1.438065 0.21485,-1.865234 0.0457,-0.427169 0.0664,-0.668739 0.0664,-0.75586 0,-0.185003 -0.0122,-0.332291 -0.0977,-0.470703 -0.0854,-0.138412 -0.24121,-0.264782 -0.5254,-0.410156 -0.56836,-0.290749 -1.65111,-0.659528 -3.71679,-1.347656 -4.22422,-1.407189 -31.082132,-10.41094 -36.890627,-12.367188 l -2.921875,-0.984375 z m 0,0.0332 2.91211,0.980469 c 5.808624,1.956292 32.666162,10.959917 36.890622,12.367188 2.0656,0.688102 3.14748,1.057462 3.71094,1.345703 0.28173,0.14412 0.43287,0.267527 0.51367,0.398437 0.0808,0.130911 0.0937,0.271507 0.0937,0.455078 0,0.08179 -0.0208,0.325019 -0.0664,0.751953 -0.0457,0.426935 -0.1166,1.040516 -0.21485,1.865235 -0.1965,1.649439 -0.50475,4.14782 -0.95312,7.71875 -0.89675,7.141859 -2.35352,18.568329 -4.58985,36.041013 -0.31315,2.44665 -0.61076,4.68226 -0.83789,6.31446 -0.11356,0.81609 -0.20976,1.48262 -0.28125,1.94726 -0.0357,0.23232 -0.0653,0.41323 -0.0879,0.53906 -0.0113,0.0629 -0.0197,0.11277 -0.0273,0.14649 -0.004,0.0169 -0.007,0.0302 -0.01,0.0391 -0.001,0.004 -0.003,0.008 -0.004,0.01 0,0 -0.002,0.002 -0.002,0.002 -0.001,6.8e-4 -0.002,0.001 -0.004,0.002 -0.005,0.003 -0.0126,0.006 -0.0215,0.0117 -0.0178,0.0104 -0.0427,0.026 -0.0762,0.0449 -0.0669,0.0379 -0.16419,0.0917 -0.29102,0.16211 -0.25365,0.14084 -0.62542,0.34504 -1.0996,0.60547 -0.94838,0.52087 -2.31176,1.26735 -3.99024,2.18359 -3.35695,1.83249 -7.97136,4.34525 -13.033202,7.09571 -5.061821,2.75045 -9.690282,5.24968 -13.068359,7.05859 -1.689039,0.90446 -3.065065,1.63532 -4.027344,2.14063 -0.481139,0.25265 -0.857998,0.44967 -1.119141,0.58203 -0.130571,0.0662 -0.232093,0.11496 -0.302734,0.14844 -0.03532,0.0167 -0.06255,0.0309 -0.08203,0.0391 -0.0097,0.004 -0.01808,0.006 -0.02344,0.008 -0.0027,9e-4 -0.0046,0.002 -0.0059,0.002 0,0 -0.002,0 -0.002,0 -1.67e-4,-2.4e-4 -0.0079,-0.003 -0.01953,-0.008 -0.0127,-0.005 -0.02892,-0.0132 -0.05078,-0.0234 -0.04373,-0.0204 -0.10548,-0.0505 -0.183594,-0.0898 -0.156227,-0.0787 -0.380047,-0.19369 -0.662109,-0.3418 -0.564123,-0.29622 -1.365247,-0.72391 -2.34375,-1.25 -1.957006,-1.05218 -4.623571,-2.49928 -7.529297,-4.08984 -5.811515,-3.18118 -13.80273,-7.54309 -17.757812,-9.69336 -1.977469,-1.07509 -3.815669,-2.0908 -5.183594,-2.85937 -0.683962,-0.38429 -1.250536,-0.70728 -1.658203,-0.94532 -0.203834,-0.11902 -0.367159,-0.21537 -0.486328,-0.28906 -0.11917,-0.0737 -0.195607,-0.12486 -0.216797,-0.14453 -0.0088,-0.008 -0.02436,-0.0368 -0.04102,-0.082 -0.01666,-0.0452 -0.03453,-0.10729 -0.05469,-0.18555 -0.04033,-0.15651 -0.08796,-0.37731 -0.140625,-0.6582 -0.105337,-0.56179 -0.233605,-1.36524 -0.38086,-2.375 -0.294508,-2.01953 -0.664478,-4.86947 -1.070312,-8.29492 -0.73465,-6.200746 -1.658677,-14.006775 -2.054688,-17.345708 -1.176238,-9.917415 -1.964961,-16.681346 -2.441406,-20.984374 -0.238222,-2.151515 -0.398311,-3.688677 -0.490234,-4.695313 -0.04596,-0.503318 -0.07493,-0.873853 -0.08789,-1.123047 -0.0065,-0.124597 -0.0091,-0.218531 -0.0078,-0.283203 6.46e-4,-0.03234 0.0035,-0.05696 0.0059,-0.07422 0.0024,-0.01726 0.0083,-0.0278 0.0059,-0.02539 0.01536,-0.01513 0.07168,-0.04803 0.207032,-0.105469 0.135352,-0.05744 0.349435,-0.141664 0.68164,-0.265625 0.66441,-0.247923 1.804002,-0.656418 3.740235,-1.341797 3.872465,-1.370758 10.935633,-3.846417 23.779296,-8.341797 l 14.541016,-5.089844 z m 0.06055,2.919922 c -0.03896,-0.0077 -0.08275,0.0022 -0.128906,0.0293 -0.04616,0.02708 -0.09549,0.0701 -0.150391,0.128906 -0.109795,0.117614 -0.238805,0.29959 -0.386719,0.542969 -0.295828,0.486759 -0.668195,1.222136 -1.109375,2.197266 -1.424351,3.148185 -15.444371,33.80047 -23.759765,51.943356 -1.362499,2.97276 -2.601958,5.73432 -3.5,7.79102 -0.449021,1.02835 -0.812782,1.88084 -1.064453,2.49414 -0.125836,0.30665 -0.22266,0.55261 -0.289063,0.73242 -0.0332,0.0899 -0.05903,0.16321 -0.07617,0.21875 -0.01714,0.0555 -0.02734,0.0917 -0.02734,0.11524 0,0.0638 0.0056,0.12191 0.02539,0.17382 0.01976,0.0519 0.055,0.0982 0.111328,0.13672 0.112658,0.077 0.309537,0.12831 0.660156,0.16407 0.701239,0.0715 2.017669,0.0801 4.484376,0.0801 1.447842,0 2.840378,-0.0306 3.917968,-0.0781 0.538795,-0.0237 0.998722,-0.0526 1.347656,-0.084 0.348935,-0.0313 0.584868,-0.0635 0.683594,-0.10156 0.285491,-0.11009 0.589876,-0.51774 1.123047,-1.63281 0.533172,-1.11508 1.294288,-2.94004 2.480469,-5.89258 l 2.910156,-7.24414 13.38086,0 13.382812,0 3.253906,7.43359 3.261719,7.45313 4.072265,0.1582 c 2.23441,0.0864 4.756,0.1839 5.60352,0.2168 0.68283,0.0265 1.06906,0.0251 1.28906,-0.0488 0.11,-0.037 0.17905,-0.0933 0.21875,-0.17383 0.0397,-0.0805 0.0508,-0.18166 0.0508,-0.31054 0,-0.0198 -0.0102,-0.0484 -0.0254,-0.0937 -0.0152,-0.0454 -0.0367,-0.10654 -0.0664,-0.18164 -0.0593,-0.15021 -0.14706,-0.35887 -0.26172,-0.62305 -0.22931,-0.52836 -0.56597,-1.27742 -0.99414,-2.21485 -0.85633,-1.87486 -2.08074,-4.50376 -3.55078,-7.63476 C 99.911484,97.374724 95.986517,89.107299 92.046875,80.865234 88.107233,72.62317 84.153056,64.404744 81.154297,58.242188 c -1.49938,-3.081279 -2.759804,-5.646982 -3.660156,-7.447266 -0.450176,-0.900142 -0.809449,-1.608884 -1.064453,-2.09375 -0.127503,-0.242433 -0.22958,-0.429704 -0.302735,-0.556641 -0.03658,-0.06347 -0.06536,-0.11108 -0.08789,-0.144531 -0.01127,-0.01673 -0.0212,-0.0296 -0.0293,-0.03906 -0.004,-0.0047 -0.0079,-0.0085 -0.01172,-0.01172 -0.0038,-0.0032 -0.01184,-0.0074 -0.01367,-0.0078 z m -0.0059,0.03125 c 0.0018,0.0015 0.0045,0.0039 0.0078,0.0078 0.0067,0.0078 0.01451,0.02096 0.02539,0.03711 0.02175,0.03229 0.05151,0.07946 0.08789,0.142578 0.07276,0.126247 0.173379,0.312443 0.300782,0.554688 0.254805,0.484488 0.61628,1.193708 1.066406,2.09375 0.900252,1.800084 2.160804,4.367996 3.660156,7.449218 2.998705,6.162446 6.95296,14.37908 10.892578,22.621094 3.939619,8.242015 7.86466,16.5096 10.804689,22.771484 1.47001,3.13094 2.69258,5.7601 3.54883,7.63477 0.42812,0.93733 0.76498,1.68488 0.99414,2.21289 0.11458,0.264 0.20263,0.47345 0.26172,0.62304 0.0295,0.0748 0.0515,0.13524 0.0664,0.17969 0.0149,0.0444 0.0215,0.076 0.0215,0.084 0,0.12705 -0.011,0.224 -0.0469,0.29687 -0.0359,0.0729 -0.0966,0.12305 -0.20117,0.1582 -0.20917,0.0703 -0.59307,0.0734 -1.27539,0.0469 -0.84752,-0.0329 -3.36911,-0.13044 -5.60352,-0.2168 l -4.052731,-0.1582 -3.253906,-7.4336 -3.261719,-7.45312 -13.404296,0 -13.402344,0 -2.919922,7.26367 c -1.186119,2.95238 -1.946102,4.77714 -2.478516,5.89063 -0.532413,1.11349 -0.837839,1.51398 -1.105468,1.61718 -0.08814,0.034 -0.327638,0.0683 -0.675782,0.0996 -0.348143,0.0313 -0.807223,0.0603 -1.345703,0.084 -1.07696,0.0475 -2.468608,0.0762 -3.916015,0.0762 -2.466634,0 -3.783008,-0.009 -4.480469,-0.0801 -0.348731,-0.0356 -0.542964,-0.0874 -0.646485,-0.1582 -0.05176,-0.0354 -0.08201,-0.0749 -0.09961,-0.12109 -0.0176,-0.0462 -0.02148,-0.1001 -0.02148,-0.16211 0,-0.0134 0.0085,-0.0509 0.02539,-0.10547 0.01685,-0.0546 0.04114,-0.12722 0.07422,-0.2168 0.06617,-0.17917 0.163308,-0.42597 0.289062,-0.73242 0.25151,-0.61291 0.615489,-1.46397 1.064454,-2.49219 0.89793,-2.05644 2.137569,-4.82036 3.5,-7.79297 8.315405,-18.142911 22.335057,-48.79243 23.759765,-51.941404 0.440891,-0.974491 0.812855,-1.710629 1.107422,-2.195313 0.147284,-0.242342 0.275682,-0.420397 0.382813,-0.535156 0.05357,-0.05738 0.102467,-0.09837 0.144531,-0.123047 0.04206,-0.02467 0.07689,-0.03302 0.105469,-0.02734 z m -0.158204,0.863282 c -0.02008,-0.0073 -0.04129,-0.0065 -0.05664,0.0059 -0.01535,0.01234 -0.02546,0.03349 -0.03125,0.05859 -0.0058,0.0251 -0.0078,0.05561 -0.0078,0.09375 0,9.43e-4 -8.87e-4,0.0086 -0.0039,0.01953 -0.003,0.01094 -0.0075,0.0269 -0.01367,0.04492 -0.01243,0.03604 -0.03193,0.08577 -0.05664,0.148437 -0.04942,0.125338 -0.122709,0.301302 -0.21875,0.527344 -0.192084,0.452083 -0.473479,1.099132 -0.833985,1.914063 -0.721011,1.62986 -1.755829,3.933288 -3.007812,6.699218 -2.503967,5.53186 -5.879988,12.914552 -9.367188,20.470703 -1.550502,3.359681 -10.646702,23.255071 -13.945312,30.500001 l -2.117188,4.64648 1.667969,0.0781 c 0.905654,0.042 3.287004,-0.0231 5.294922,-0.14453 l 3.660156,-0.22266 2.933594,-7.23633 c 0.806045,-1.98735 1.575535,-3.81778 2.164062,-5.16601 0.294264,-0.67412 0.541994,-1.22703 0.728516,-1.619143 0.09326,-0.196056 0.17095,-0.352843 0.230469,-0.462891 0.02976,-0.05502 0.0559,-0.09759 0.07617,-0.128906 0.02027,-0.03131 0.03729,-0.05087 0.04297,-0.05469 0.0067,-0.0045 0.02734,-0.01256 0.05859,-0.01953 0.03125,-0.007 0.07329,-0.0146 0.125,-0.02148 0.103421,-0.01378 0.246747,-0.02627 0.423828,-0.03906 0.354162,-0.02559 0.84568,-0.04871 1.439453,-0.06836 1.187548,-0.03929 2.782991,-0.06519 4.498047,-0.06641 l 6.251953,-0.0039 0,-4.0625 0,-4.064453 -4.417968,0 c -2.024865,0 -3.126428,-0.0098 -3.71875,-0.08008 -0.296161,-0.03513 -0.464664,-0.08607 -0.556641,-0.154297 -0.09198,-0.06823 -0.111328,-0.153355 -0.111328,-0.271484 0,-0.01348 0.0069,-0.04841 0.02148,-0.09961 0.01455,-0.0512 0.03588,-0.11972 0.06445,-0.203125 0.05716,-0.166812 0.141356,-0.395757 0.25,-0.679688 0.217288,-0.567861 0.532038,-1.355061 0.919922,-2.304687 0.775768,-1.899252 1.846366,-4.447424 3.023438,-7.185547 2.35422,-5.476411 4.348705,-10.118743 4.433593,-10.31836 0.04141,-0.09739 0.10365,-0.186151 0.167969,-0.25 0.06379,-0.06333 0.12947,-0.100951 0.179688,-0.101562 0,0 0.002,0 0.002,0 0.0021,0.0017 0.0041,0.0057 0.0078,0.0098 0.0083,0.009 0.01978,0.02377 0.0332,0.04297 0.02684,0.0384 0.06306,0.09645 0.107421,0.171875 0.08873,0.150858 0.210921,0.371786 0.361329,0.654297 0.300815,0.565022 0.715937,1.372224 1.205078,2.34375 0.978282,1.943052 2.254612,4.540949 3.523437,7.15625 1.268825,2.615301 2.529972,5.249182 3.472656,7.265625 0.471343,1.008222 0.86258,1.862344 1.136719,2.482422 0.13707,0.310039 0.245115,0.561119 0.31836,0.744141 0.03662,0.09151 0.0652,0.164936 0.08398,0.220703 0.01878,0.05577 0.02734,0.09476 0.02734,0.107422 0,0.04921 -0.0095,0.09318 -0.0332,0.130859 -0.02367,0.03767 -0.06281,0.07107 -0.125,0.101562 -0.124376,0.06098 -0.34068,0.106211 -0.699218,0.138672 -0.717076,0.06492 -2.001617,0.07813 -4.263672,0.07813 l -5.152344,0 0,4.203125 0,4.203125 7.263672,0.07813 7.236328,0.07617 3.242188,7.421874 3.25,7.43945 4.119144,0.0937 c 2.25994,0.0516 4.53949,0.1233 5.0625,0.15821 0.26285,0.0175 0.50189,0.0215 0.67578,0.0117 0.0869,-0.005 0.15703,-0.0143 0.20703,-0.0254 0.025,-0.006 0.0456,-0.0116 0.0606,-0.0195 0.007,-0.004 0.0124,-0.008 0.0176,-0.0137 0.005,-0.006 0.01,-0.013 0.01,-0.0215 l 0,-0.002 c 0,-2.5e-4 2e-4,-0.003 0,-0.004 0,0 -0.002,-0.002 -0.002,-0.002 -4.9e-4,-0.002 -0.001,-0.004 -0.002,-0.006 -0.001,-0.004 -0.003,-0.009 -0.006,-0.0156 -0.005,-0.0132 -0.013,-0.0329 -0.0234,-0.0566 -0.0208,-0.0476 -0.0513,-0.11449 -0.0918,-0.20312 -0.081,-0.17727 -0.19994,-0.43483 -0.35352,-0.76368 -0.30716,-0.65768 -0.75264,-1.60242 -1.30078,-2.76172 -1.09627,-2.31858 -2.60818,-5.50069 -4.27148,-8.98632 C 95.470462,89.645741 81.887642,61.097337 78.162109,53.234375 c -0.865946,-1.827629 -1.467889,-3.038064 -1.853515,-3.71875 -0.192813,-0.340343 -0.329978,-0.546814 -0.423828,-0.634766 -0.02346,-0.02199 -0.04438,-0.03766 -0.06445,-0.04492 z m -0.01172,0.0293 c 0.01323,0.0048 0.03104,0.01678 0.05273,0.03711 0.08676,0.08131 0.227605,0.289439 0.419922,0.628906 0.384634,0.678934 0.985729,1.889406 1.851562,3.716797 3.725588,7.863078 17.310282,36.411315 22.951168,48.232423 1.6633,3.4856 3.17524,6.6678 4.27149,8.98633 0.54812,1.15926 0.9917,2.10411 1.29883,2.76172 0.15356,0.3288 0.27263,0.58461 0.35351,0.76171 0.0404,0.0885 0.0711,0.15783 0.0918,0.20508 0.0103,0.0236 0.0183,0.042 0.0234,0.0547 0.003,0.006 0.005,0.0103 0.006,0.0137 5.8e-4,0.002 0.002,0.003 0.002,0.004 0,0 -0.002,0 -0.002,0 -0.001,0.002 -0.005,0.005 -0.01,0.008 -0.0105,0.006 -0.0293,0.0104 -0.0527,0.0156 -0.0469,0.0104 -0.11522,0.0186 -0.20118,0.0234 -0.1719,0.01 -0.41008,0.008 -0.67187,-0.01 -0.52629,-0.0351 -2.80433,-0.1066 -5.06445,-0.15821 l -4.09766,-0.0937 -3.242188,-7.42187 -3.25,-7.439454 -7.257812,-0.07813 -7.230469,-0.07617 0,-4.171875 0,-4.169922 5.119141,0 c 2.262185,10e-7 3.547499,-0.01488 4.267578,-0.08008 0.36004,-0.0326 0.579146,-0.07601 0.710938,-0.140625 0.06589,-0.03231 0.109232,-0.07148 0.136718,-0.115234 0.02749,-0.04376 0.03711,-0.09329 0.03711,-0.146484 0,-0.02403 -0.01019,-0.06045 -0.0293,-0.117188 -0.01911,-0.05673 -0.04723,-0.130823 -0.08398,-0.222656 -0.0735,-0.183666 -0.181205,-0.435864 -0.318359,-0.746094 -0.274308,-0.62046 -0.665324,-1.474087 -1.136719,-2.482422 -0.94279,-2.016669 -2.20378,-4.650218 -3.472656,-7.265625 -1.268876,-2.615406 -2.546991,-5.212965 -3.525391,-7.15625 -0.489199,-0.971642 -0.904042,-1.780268 -1.205078,-2.345703 -0.150518,-0.282718 -0.272155,-0.504634 -0.361328,-0.65625 -0.04459,-0.07581 -0.07968,-0.134128 -0.107422,-0.173828 -0.01387,-0.01985 -0.02712,-0.03406 -0.03711,-0.04492 -0.005,-0.0054 -0.0089,-0.0102 -0.01367,-0.01367 -0.0024,-0.0017 -0.005,-0.0026 -0.0078,-0.0039 -0.0028,-0.0013 -0.0087,-0.002 -0.0098,-0.002 -0.06534,0 -0.13744,0.04223 -0.205078,0.109375 -0.06764,0.06714 -0.130736,0.160363 -0.173828,0.261719 -0.08415,0.197883 -2.079375,4.84195 -4.433594,10.318359 -1.177138,2.738276 -2.247563,5.286034 -3.023438,7.185547 -0.387937,0.949756 -0.702482,1.736429 -0.919922,2.304687 -0.108719,0.28413 -0.192623,0.51419 -0.25,0.681641 -0.02869,0.08373 -0.05159,0.151012 -0.06641,0.203125 -0.01481,0.05211 -0.02148,0.08695 -0.02148,0.109375 0,0.122046 0.02427,0.22215 0.125,0.296875 0.100732,0.07473 0.272041,0.124772 0.570312,0.160156 0.596543,0.07077 1.697681,0.08203 3.722657,0.08203 l 4.386718,0 0,4.03125 0,4.03125 -6.220703,0.0039 c -1.715353,0.0012 -3.310001,0.02515 -4.498047,0.06445 -0.594022,0.01965 -1.086508,0.04272 -1.441406,0.06836 -0.177449,0.01282 -0.321235,0.02709 -0.425781,0.04102 -0.05227,0.007 -0.09422,0.01419 -0.126953,0.02148 -0.03273,0.0073 -0.05531,0.01336 -0.07031,0.02344 -0.01606,0.01079 -0.0317,0.03195 -0.05273,0.06445 -0.02104,0.0325 -0.04618,0.0754 -0.07617,0.130859 -0.05999,0.110922 -0.137074,0.268508 -0.230469,0.464844 -0.186789,0.392675 -0.436123,0.944835 -0.730469,1.619145 -0.58869,1.3486 -1.357927,3.18039 -2.164062,5.16796 l -2.927734,7.2168 -3.638672,0.2207 c -2.007082,0.12142 -4.391443,0.18634 -5.292969,0.14454 l -1.619141,-0.0742 2.097657,-4.60352 c 3.29857,-7.24485 12.394995,-27.140719 13.945312,-30.499999 3.487231,-7.556219 6.863177,-14.938745 9.367188,-20.470703 1.252005,-2.765979 2.28478,-5.069205 3.005859,-6.699219 0.360539,-0.815007 0.643737,-1.461703 0.835938,-1.914062 0.0961,-0.226179 0.169133,-0.403474 0.21875,-0.529297 0.02481,-0.06291 0.04394,-0.113574 0.05664,-0.150391 0.0063,-0.01841 0.01232,-0.03292 0.01563,-0.04492 0.0033,-0.012 0.0039,-0.021 0.0039,-0.0293 0,-0.03663 0.0029,-0.0665 0.0078,-0.08789 0.0049,-0.02139 0.01305,-0.03385 0.01953,-0.03906 0.0065,-0.0052 0.01216,-0.0067 0.02539,-0.002 z m 0.04102,0.847657 c -0.01401,-0.0021 -0.02883,0.0036 -0.03906,0.01367 -0.02047,0.02017 -0.03275,0.05401 -0.04297,0.105469 -0.0094,0.04753 -0.01382,0.113558 -0.01758,0.189453 l -0.002,0 0,0.01563 c -0.0064,0.153701 0.0075,0.274668 0.03711,0.347657 0.01483,0.03649 0.03365,0.06251 0.06055,0.07227 0.0269,0.0098 0.05725,-0.0029 0.08398,-0.0293 0.05353,-0.05269 0.07968,-0.141236 0.08398,-0.24414 0.0043,-0.102904 -0.01527,-0.219562 -0.05859,-0.326172 -0.0238,-0.05855 -0.04557,-0.09931 -0.06836,-0.123047 -0.01139,-0.01187 -0.0231,-0.01939 -0.03711,-0.02148 z m -0.0039,0.03125 c 0.0038,5.64e-4 0.0091,0.0048 0.01758,0.01367 0.01705,0.01776 0.03943,0.05457 0.0625,0.111329 0.04148,0.102069 0.06074,0.214551 0.05664,0.3125 -0.0041,0.09795 -0.0321,0.181229 -0.07617,0.224609 -0.02201,0.0217 -0.03765,0.0243 -0.05078,0.01953 -0.01314,-0.0048 -0.0279,-0.0224 -0.04102,-0.05469 -0.02623,-0.06457 -0.04147,-0.181003 -0.03516,-0.332032 0.0035,-0.08367 0.0098,-0.150325 0.01953,-0.199218 0.0097,-0.04889 0.02478,-0.07962 0.03516,-0.08984 0.0052,-0.0051 0.0079,-0.0064 0.01172,-0.0059 z m 0.132813,20.916015 c -0.0065,-2.76e-4 -0.01465,0.0011 -0.01953,0.0059 -0.01568,0.01544 -0.03374,0.04711 -0.0625,0.09961 -0.02876,0.0525 -0.06578,0.125612 -0.111328,0.21875 -0.0911,0.186275 -0.215363,0.455006 -0.375,0.806641 -0.319273,0.70327 -0.778179,1.739675 -1.378906,3.121093 -1.201454,2.762837 -2.973969,6.903214 -5.357422,12.507813 l -1.148437,2.697266 9.117187,0 9.117188,0 -0.404297,-0.81836 c -0.216677,-0.436427 -2.365881,-4.856899 -4.773438,-9.820312 -1.203835,-2.481825 -2.322897,-4.713898 -3.15625,-6.310547 -0.416676,-0.798325 -0.760996,-1.436387 -1.009765,-1.869141 -0.124385,-0.216377 -0.225522,-0.380919 -0.298828,-0.488281 -0.03665,-0.05368 -0.0663,-0.09421 -0.08984,-0.119141 -0.01177,-0.01247 -0.02099,-0.02168 -0.03125,-0.02734 -0.0051,-0.0028 -0.01112,-0.0036 -0.01758,-0.0039 z m 0.002,0.0332 c 0.0048,0.0027 0.01283,0.0083 0.02344,0.01953 0.02122,0.02247 0.0517,0.06224 0.08789,0.115234 0.07237,0.105993 0.172697,0.270311 0.296875,0.486328 0.248356,0.432034 0.5932,1.071029 1.009766,1.869141 0.83313,1.596223 1.950572,3.826998 3.154296,6.308594 2.407563,4.963426 4.555954,9.382259 4.773438,9.820312 l 0.382812,0.771484 -9.066406,0 -9.068359,0 1.128906,-2.652343 c 2.383437,-5.604561 4.156038,-9.745137 5.357422,-12.507813 0.600692,-1.381338 1.057816,-2.418124 1.376953,-3.121094 0.159568,-0.351485 0.286101,-0.618922 0.376953,-0.804687 0.04543,-0.09288 0.08103,-0.165044 0.109375,-0.216797 0.02721,-0.04969 0.04809,-0.0786 0.05664,-0.08789 z"
     id="path4146"
     inkscape:connector-curvature="0" />
</svg>
