<?xml version="1.0" encoding="UTF-8" standalone="no"?>
<svg
   xmlns:dc="http://purl.org/dc/elements/1.1/"
   xmlns:cc="http://creativecommons.org/ns#"
   xmlns:rdf="http://www.w3.org/1999/02/22-rdf-syntax-ns#"
   xmlns:svg="http://www.w3.org/2000/svg"
   xmlns="http://www.w3.org/2000/svg"
   version="1.1"
   class="svg4563"
   viewBox="0 0 19 23"
   height="23"
   width="19">
  <defs
     id="defs4565" />
  <metadata
     id="metadata4568">
    <rdf:RDF>
      <cc:Work
         rdf:about="">
        <dc:format>image/svg+xml</dc:format>
        <dc:type
           rdf:resource="http://purl.org/dc/dcmitype/StillImage" />
        <dc:title></dc:title>
      </cc:Work>
    </rdf:RDF>
  </metadata>
  <g
     transform="translate(0,-1029.3622)"
     id="layer1">
    <g
       transform="translate(-2.1875,1.5178571)"
       id="g5792">
      <text
         xml:space="preserve"
         style="font-style:normal;font-variant:normal;font-weight:bold;font-stretch:normal;font-size:4.04612494px;line-height:125%;font-family:'Segoe UI';-inkscape-font-specification:'Segoe UI, Bold';text-align:start;letter-spacing:0px;word-spacing:0px;writing-mode:lr-tb;text-anchor:start;fill:#666666;fill-opacity:1;stroke:#6f6666;stroke-width:0;stroke-linecap:butt;stroke-linejoin:miter;stroke-miterlimit:4;stroke-dasharray:none;stroke-opacity:1"
         x="3.4402525"
         y="984.68762"
         id="text5111"
         transform="scale(0.9540338,1.0481809)"><tspan
           id="tspan5113"
           x="3.4402525"
           y="984.68762"
           style="font-style:normal;font-variant:normal;font-weight:bold;font-stretch:normal;font-size:4.04612494px;line-height:125%;font-family:'Segoe UI';-inkscape-font-specification:'Segoe UI, Bold';text-align:start;writing-mode:lr-tb;text-anchor:start;fill:#666666">made</tspan></text>
      <text
         xml:space="preserve"
         style="font-style:italic;font-variant:normal;font-weight:600;font-stretch:normal;font-size:4.04612494px;line-height:125%;font-family:'Segoe UI';-inkscape-font-specification:'Segoe UI, Semi-Bold Italic';text-align:start;letter-spacing:0px;word-spacing:0px;writing-mode:lr-tb;text-anchor:start;fill:#666666;fill-opacity:1;stroke:#6f6666;stroke-width:0;stroke-linecap:butt;stroke-linejoin:miter;stroke-miterlimit:4;stroke-dasharray:none;stroke-opacity:1"
         x="14.429675"
         y="984.70306"
         id="text5111-5"
         transform="scale(0.9540338,1.0481809)"><tspan
           id="tspan5113-8"
           x="14.429675"
           y="984.70306"
           style="font-style:normal;font-variant:normal;font-weight:normal;font-stretch:normal;font-size:4.04612494px;line-height:125%;font-family:'Segoe UI';-inkscape-font-specification:'Segoe UI, Normal';text-align:start;writing-mode:lr-tb;text-anchor:start;fill:#999999">with</tspan></text>
    </g>
    <g
       transform="translate(-2.6339286,1.2946429)"
       id="g5798">
      <path
         id="path5741"
         d="m 8.3940182,1048.7553 c -2.0166495,-1.0597 -3.6943484,-1.9536 -3.7282197,-1.9865 -0.033871,-0.033 -0.1253405,-0.5496 -0.2032648,-1.1482 -0.077924,-0.5986 -0.2395478,-1.84 -0.3591635,-2.7587 -0.898441,-6.9007 -0.9206324,-7.0864 -0.8543012,-7.1465 0.036289,-0.033 1.0070833,-0.3665 2.1573204,-0.7414 1.150237,-0.375 3.1437746,-1.0257 4.4300838,-1.4462 1.2863088,-0.4205 2.3896798,-0.7645 2.4519368,-0.7645 0.06226,0 1.857575,0.5605 3.989597,1.2455 2.132023,0.6851 4.145291,1.3306 4.473931,1.4345 0.370911,0.1173 0.603566,0.2178 0.613454,0.2651 0.0088,0.042 -0.206853,1.7939 -0.479141,3.8933 -0.272288,2.0993 -0.588308,4.5425 -0.702268,5.4292 -0.137961,1.0734 -0.231976,1.635 -0.281347,1.6804 -0.04078,0.038 -0.453033,0.2596 -0.916115,0.4933 -4.363219,2.2025 -6.8976,3.4779 -6.910444,3.4776 -0.0085,0 -1.665409,-0.8673 -3.6820588,-1.9269 z m 0.1178147,-3.0259 c 0.019984,-0.018 0.2730862,-0.5854 0.5624494,-1.2606 0.2893633,-0.6753 0.554122,-1.2448 0.5883522,-1.2655 0.03423,-0.021 0.5877875,-0.049 1.2301275,-0.063 l 1.167892,-0.025 0,-0.6834 0,-0.6834 -0.803495,-0.014 c -0.640862,-0.011 -0.809598,-0.029 -0.833646,-0.087 -0.02844,-0.069 1.510691,-3.5393 1.615317,-3.6421 0.07792,-0.076 0.0634,-3.4322 -0.01475,-3.4079 -0.06801,0.021 -5.4226412,11.0483 -5.4226412,11.1672 0,0.059 0.1539879,0.064 0.9370291,0.034 0.5153662,-0.02 0.9533795,-0.051 0.973363,-0.069 z"
         style="fill:#e1989e" />
      <path
         id="path5739"
         d="m 8.3940182,1048.7553 c -2.0166495,-1.0597 -3.6943484,-1.9536 -3.7282197,-1.9865 -0.033871,-0.033 -0.1253405,-0.5496 -0.2032648,-1.1482 -0.077924,-0.5986 -0.2395478,-1.84 -0.3591635,-2.7587 -0.898441,-6.9007 -0.9206324,-7.0864 -0.8543012,-7.1465 0.036289,-0.033 1.0070833,-0.3665 2.1573204,-0.7414 1.150237,-0.375 3.1437746,-1.0257 4.4300838,-1.4462 1.2863088,-0.4205 2.3896798,-0.7645 2.4519368,-0.7645 0.06226,0 1.857575,0.5605 3.989597,1.2455 2.132023,0.6851 4.145291,1.3306 4.473931,1.4345 0.370911,0.1173 0.603566,0.2178 0.613454,0.2651 0.0088,0.042 -0.206853,1.7939 -0.479141,3.8933 -0.272288,2.0993 -0.588308,4.5425 -0.702268,5.4292 -0.137961,1.0734 -0.231976,1.635 -0.281347,1.6804 -0.04078,0.038 -0.453033,0.2596 -0.916115,0.4933 -4.363219,2.2025 -6.8976,3.4779 -6.910444,3.4776 -0.0085,0 -1.665409,-0.8673 -3.6820588,-1.9269 z m 0.079897,-2.9277 c 0.077734,-0.028 0.2562755,-0.3843 0.6518463,-1.2999 l 0.5447888,-1.2609 1.1792077,-0.014 1.179208,-0.014 0.03294,-0.1636 c 0.01812,-0.09 0.02525,-0.4313 0.01584,-0.7584 -0.01046,-0.3641 0.004,-0.603 0.03722,-0.616 0.02988,-0.012 -0.300121,-0.023 -0.733327,-0.026 -0.433206,0 -0.817476,-0.022 -0.853933,-0.044 -0.04814,-0.028 0.150206,-0.5167 0.724461,-1.7833 0.43491,-0.9592 0.81918,-1.7609 0.853933,-1.7815 0.03475,-0.021 0.03874,-0.038 0.0089,-0.038 -0.03542,-5e-4 -0.0491,-0.5937 -0.0393,-1.7053 0.01057,-1.1994 -0.0027,-1.7148 -0.04475,-1.7391 -0.04065,-0.023 -0.03118,-0.061 0.0296,-0.1177 0.07267,-0.068 0.07474,-0.083 0.01111,-0.083 -0.04313,0 -0.139948,0.1307 -0.215675,0.2911 -0.07558,0.1601 -0.650245,1.3503 -1.277039,2.6449 -3.4334389,7.0914 -4.0870686,8.4616 -4.0576782,8.5059 0.038347,0.058 1.7946307,0.06 1.9526734,0 z"
         style="fill:#b2afb0" />
      <path
         id="path5737"
         d="m 8.6694575,1048.052 c -1.8352815,-0.9455 -3.367509,-1.7484 -3.4049498,-1.7842 -0.04173,-0.04 -0.1516962,-0.7311 -0.284152,-1.7861 -0.7865034,-6.2645 -1.0046347,-8.1276 -0.9568028,-8.1721 0.028591,-0.027 0.919754,-0.3357 1.9803622,-0.6868 1.0606082,-0.3511 2.8591347,-0.9463 3.9967259,-1.3226 l 2.068347,-0.6843 1.679769,0.5314 c 5.924872,1.8743 6.549081,2.0784 6.590044,2.1544 0.05106,0.095 -1.259295,9.8615 -1.331509,9.9243 -0.09311,0.081 -6.86977,3.5454 -6.934892,3.5453 -0.03634,0 -1.567661,-0.7737 -3.4029425,-1.7193 z m -0.1955421,-2.2244 c 0.077734,-0.028 0.2562755,-0.3843 0.6518463,-1.2999 l 0.5447888,-1.2609 1.6567765,-0.038 c 0.911226,-0.021 2.057684,-0.032 2.547683,-0.025 l 0.890908,0.012 0.582438,1.2565 c 0.320341,0.6911 0.603872,1.2756 0.630067,1.2989 0.0262,0.023 0.450959,0.049 0.943918,0.058 0.765486,0.013 0.893833,0 0.879461,-0.059 -0.0093,-0.041 -1.015527,-2.0561 -2.23616,-4.4782 -3.1304,-6.2118 -3.423508,-6.7989 -3.423508,-6.8575 0,-0.029 -0.03347,-0.052 -0.07438,-0.052 -0.04091,0 -0.136217,0.131 -0.211795,0.2911 -0.07558,0.1601 -0.650245,1.3503 -1.277039,2.6449 -3.4334387,7.0914 -4.0870684,8.4616 -4.057678,8.5059 0.038347,0.058 1.7946307,0.06 1.9526734,0 z m 2.8713166,-4.1527 c -0.453234,-0.015 -0.837344,-0.04 -0.853576,-0.056 -0.01623,-0.015 0.328964,-0.819 0.767105,-1.7861 0.553379,-1.2214 0.819802,-1.754 0.872549,-1.744 0.09642,0.018 1.874196,3.4701 1.835541,3.564 -0.03068,0.074 -0.860032,0.081 -2.621619,0.022 z"
         style="fill:#c97b82" />
      <path
         id="path5735"
         d="m 8.6521528,1047.9838 c -1.8447989,-0.9517 -3.3661136,-1.7646 -3.380699,-1.8064 -0.014585,-0.042 -0.2825071,-2.1374 -0.5953814,-4.6569 -0.3128743,-2.5196 -0.5854478,-4.7119 -0.6057187,-4.8718 l -0.036856,-0.2908 0.1897948,-0.074 c 0.5953683,-0.2318 7.7514655,-2.5729 7.8645215,-2.5728 0.187556,0 8.159371,2.5306 8.209314,2.6059 0.02215,0.033 0.02909,0.1187 0.0154,0.1897 -0.02579,0.1336 -0.964864,7.0849 -1.172018,8.6756 -0.08105,0.6224 -0.144394,0.9324 -0.203709,0.9971 -0.09687,0.1056 -6.768952,3.5431 -6.867343,3.5381 -0.03472,0 -1.572508,-0.782 -3.417307,-1.7338 z m 9.2479572,-2.1454 c 0,-0.014 -1.109505,-2.2263 -2.465567,-4.9173 -1.356062,-2.6911 -2.655496,-5.2744 -2.887632,-5.7407 -0.232136,-0.4663 -0.448834,-0.8479 -0.48155,-0.8479 -0.05951,0 -5.5299983,11.2509 -5.5627592,11.4407 -0.016792,0.097 0.015323,0.1005 0.9846986,0.1005 0.8507116,0 1.0129096,-0.012 1.0739168,-0.081 0.039524,-0.044 0.3088812,-0.6309 0.598573,-1.3034 l 0.5267123,-1.2228 2.4874965,-0.013 c 1.540312,-0.01 2.507396,0.01 2.539755,0.036 0.02874,0.027 0.314352,0.6135 0.634691,1.3039 l 0.582433,1.2553 0.916715,0.025 c 0.879481,0.024 1.052517,0.018 1.052517,-0.035 z m -6.586364,-4.2039 c -0.493072,-0.01 -0.801227,-0.035 -0.801227,-0.067 0,-0.056 1.506564,-3.3917 1.550536,-3.4326 0.01504,-0.014 0.05956,0.01 0.09893,0.047 0.123538,0.1258 1.77807,3.3901 1.744197,3.4412 -0.03061,0.046 -0.628246,0.049 -2.59244,0.011 z"
         style="fill:#d95863" />
      <path
         id="path5733"
         d="m 12.060654,1049.6702 c 0.01846,-0.028 0.0029,-0.051 -0.03456,-0.051 -0.100586,0 -6.6810236,-3.3992 -6.7046176,-3.4633 -0.011066,-0.03 -0.2659317,-2.0478 -0.5663688,-4.4839 -0.3004371,-2.436 -0.5726401,-4.6186 -0.6048958,-4.85 -0.032256,-0.2315 -0.048322,-0.4305 -0.035703,-0.4423 0.012619,-0.012 0.7423391,-0.259 1.6216004,-0.5494 0.8792614,-0.2904 2.6365174,-0.8716 3.9050133,-1.2915 1.2684965,-0.4199 2.3393745,-0.7634 2.3797295,-0.7634 0.04035,0 0.05664,-0.025 0.0362,-0.056 -0.04852,-0.073 -0.385433,-0.1753 4.210334,1.2764 2.194201,0.6932 4.007582,1.2876 4.029737,1.321 0.02215,0.033 0.02909,0.1187 0.0154,0.1897 -0.02579,0.1336 -0.964864,7.0849 -1.172018,8.6756 -0.08105,0.6224 -0.144394,0.9324 -0.203709,0.9971 -0.08732,0.095 -6.759941,3.5413 -6.856969,3.5413 -0.02901,0 -0.03764,-0.023 -0.01918,-0.051 z m -3.4904457,-3.8091 c 0.048573,-0.035 0.3246799,-0.6158 0.6135721,-1.2911 0.2888917,-0.6753 0.5410428,-1.2367 0.5603349,-1.2477 0.019292,-0.011 1.1377177,-0.037 2.4853907,-0.057 2.058788,-0.031 2.458051,-0.026 2.498728,0.033 0.02663,0.038 0.308103,0.6281 0.625503,1.3102 l 0.577091,1.2402 0.935822,0.025 c 0.514703,0.014 0.960298,0.011 0.990212,-0.01 0.03143,-0.018 -0.988438,-2.1012 -2.416467,-4.9354 -1.35897,-2.6971 -2.673336,-5.3092 -2.920815,-5.8047 -0.363008,-0.7268 -0.463063,-0.8882 -0.517766,-0.8352 -0.03729,0.036 -0.854781,1.6943 -1.81664,3.6849 -0.9618583,1.9906 -2.1983525,4.5495 -2.7477642,5.6865 -0.5494117,1.137 -0.9989305,2.1108 -0.9989305,2.164 0,0.092 0.052108,0.097 1.0217078,0.097 0.7340519,0 1.0465718,-0.018 1.1100212,-0.063 z m 3.5176057,-4.2394 c 0,-0.031 -0.289709,-0.051 -0.760487,-0.051 -0.418269,0 -0.760488,-0.01 -0.760488,-0.023 0,-0.033 1.268962,-2.8357 1.427947,-3.1541 0.09668,-0.1936 0.147255,-0.2489 0.185202,-0.2025 0.130663,0.1599 1.754786,3.389 1.726198,3.4322 -0.04412,0.066 -1.818372,0.064 -1.818372,0 z"
         style="fill:#b45b62" />
      <path
         id="path5731"
         d="m 8.6656208,1047.925 c -1.8075155,-0.9314 -3.3045952,-1.7227 -3.326844,-1.7585 -0.022249,-0.036 -0.2855818,-2.0581 -0.5851844,-4.4942 -0.2996026,-2.436 -0.5711229,-4.6186 -0.6033786,-4.85 -0.032256,-0.2315 -0.048322,-0.4305 -0.035703,-0.4423 0.012619,-0.012 0.7423391,-0.259 1.6216004,-0.5494 0.8792614,-0.2904 2.6365174,-0.8716 3.9050133,-1.2915 1.2684965,-0.4199 2.3684875,-0.7634 2.4444235,-0.7633 0.07594,0 1.042504,0.2869 2.147927,0.6375 1.105422,0.3506 2.572076,0.8155 3.259231,1.0331 2.980339,0.9439 2.743247,0.857 2.742656,1.0053 -7.22e-4,0.1809 -1.286545,9.6765 -1.313748,9.7018 -0.11151,0.104 -6.753135,3.4659 -6.846035,3.4655 -0.06796,-4e-4 -1.602443,-0.7627 -3.4099581,-1.694 z m 9.2769972,-2.0562 c 0.0091,-0.044 -0.683103,-1.4681 -1.538261,-3.1637 -0.855157,-1.6956 -2.155051,-4.2787 -2.888653,-5.7404 -0.733602,-1.4616 -1.355162,-2.6793 -1.381244,-2.7059 -0.02967,-0.03 -0.07607,-0.021 -0.123937,0.025 -0.04208,0.04 -0.86349,1.7024 -1.825349,3.693 -0.9618583,1.9906 -2.1983525,4.5495 -2.7477642,5.6865 -0.5494117,1.137 -0.9989305,2.1108 -0.9989305,2.164 0,0.092 0.051768,0.097 1.0185098,0.096 0.5601806,-4e-4 1.0551762,-0.022 1.0999906,-0.048 0.044815,-0.026 0.3259232,-0.6124 0.6246861,-1.3027 l 0.5432052,-1.2551 2.476173,-0.013 2.476174,-0.013 0.55576,1.2027 c 0.305668,0.6615 0.590806,1.2532 0.63364,1.3148 0.07001,0.1007 0.131398,0.1138 0.607541,0.1295 1.085764,0.036 1.450452,0.019 1.468459,-0.069 z m -6.574551,-4.285 c -0.440675,-0.01 -0.801228,-0.025 -0.801228,-0.037 0,-0.04 1.314951,-2.9351 1.422906,-3.1329 0.05878,-0.1077 0.126663,-0.1761 0.150853,-0.1519 0.07458,0.075 1.685473,3.2216 1.685473,3.2927 0,0.069 -0.247439,0.072 -2.458004,0.029 z"
         style="fill:#e32939" />
      <path
         id="path5729"
         d="m 12.087814,1046.4558 0,-3.1637 1.295225,0 1.295224,0 0.565254,1.2245 c 0.310889,0.6735 0.601919,1.2639 0.646734,1.3121 0.06897,0.074 0.229462,0.093 1.045142,0.1223 0.871694,0.032 0.96699,0.027 0.998527,-0.05 0.02154,-0.052 -0.131588,-0.4172 -0.400537,-0.9545 -0.477282,-0.9535 -5.03171,-9.9941 -5.287001,-10.4948 -0.164617,-0.3228 -0.212007,-0.6761 -0.09067,-0.676 0.03734,0 0.972337,0.2869 2.07776,0.6375 1.105422,0.3506 2.572076,0.8155 3.259231,1.0331 2.980339,0.9439 2.743247,0.857 2.742656,1.0053 -7.22e-4,0.1809 -1.286545,9.6765 -1.313748,9.7018 -0.05841,0.055 -6.730103,3.466 -6.778134,3.466 -0.03741,0 -0.05567,-1.0373 -0.05567,-3.1637 z m 0.03621,-4.8679 c -0.01992,-0.018 -0.03621,-0.7862 -0.03621,-1.7058 0,-0.9802 0.02002,-1.6522 0.04838,-1.6241 0.07726,0.077 1.689875,3.2229 1.689875,3.2968 0,0.053 -0.178861,0.067 -0.832915,0.067 -0.458103,0 -0.849211,-0.015 -0.869128,-0.034 z"
         style="fill:#b62833" />
    </g>
  </g>
</svg>
