<?xml version="1.0" encoding="UTF-8" standalone="no"?>
<!-- Created with Inkscape (http://www.inkscape.org/) -->
<svg id="svg2" xmlns:rdf="http://www.w3.org/1999/02/22-rdf-syntax-ns#" xmlns="http://www.w3.org/2000/svg" height="50" width="730" version="1.1" xmlns:cc="http://creativecommons.org/ns#" xmlns:dc="http://purl.org/dc/elements/1.1/" viewBox="0 0 730.00001 50.000001">
 <metadata id="metadata7">
  <rdf:RDF>
   <cc:Work rdf:about="">
    <dc:format>image/svg+xml</dc:format>
    <dc:type rdf:resource="http://purl.org/dc/dcmitype/StillImage"/>
    <dc:title/>
   </cc:Work>
  </rdf:RDF>
 </metadata>
 <g id="layer1" transform="translate(0 -1002.4)">
  <text id="text4136" style="word-spacing:0px;letter-spacing:0px" xml:space="preserve" font-size="27.5px" y="1034.505" x="32.857143" font-family="sans-serif" line-height="125%" fill="#000000"><tspan id="tspan4138" x="32.857143" y="1034.505"/></text>
  <g id="text4140" stroke="#000" stroke-width="1px">
   <path id="path4145" style="" d="m32.732 1036.6h-3.2129v-10.869q0-1.2305-0.11963-2.3755-0.10254-1.145-0.46143-1.8286-0.39307-0.7349-1.1279-1.1109-0.73486-0.3759-2.1191-0.3759-1.3501 0-2.7002 0.6836-1.3501 0.6665-2.7002 1.7089 0.05127 0.3931 0.08545 0.9229 0.03418 0.5127 0.03418 1.0254v12.219h-3.2129v-10.869q0-1.2647-0.11963-2.3926-0.10254-1.145-0.46142-1.8286-0.39307-0.7349-1.1279-1.0938-0.73486-0.3759-2.1191-0.3759-1.3159 0-2.6489 0.6494-1.3159 0.6494-2.6318 1.6577v14.253h-3.2129v-19.089h3.2129v2.1191q1.5039-1.2475 2.9907-1.9482 1.5039-0.7007 3.1958-0.7007 1.9482 0 3.2983 0.8203 1.3672 0.8203 2.0337 2.2729 1.9482-1.6406 3.5547-2.3584 1.6064-0.7348 3.4351-0.7348 3.1445 0 4.6313 1.914 1.5039 1.897 1.5039 5.315v12.39z"/>
   <path id="path4147" style="" d="m42.371 1014.4h-3.623v-3.3325h3.623v3.3325zm-0.20508 22.285h-3.2129v-19.089h3.2129v19.089z"/>
   <path id="path4149" style="" d="m62.537 1035.5q-1.6064 0.7691-3.0591 1.1963-1.4355 0.4273-3.0591 0.4273-2.0679 0-3.7939-0.5982-1.7261-0.6152-2.9565-1.8457-1.2476-1.2304-1.9312-3.1103-0.68359-1.8799-0.68359-4.3921 0-4.6826 2.5635-7.3486 2.5806-2.6661 6.8018-2.6661 1.6406 0 3.2129 0.4615 1.5894 0.4614 2.9053 1.1279v3.5718h-0.1709q-1.4697-1.1451-3.042-1.7603-1.5552-0.6152-3.042-0.6152-2.7344 0-4.3237 1.8457-1.5723 1.8286-1.5723 5.3833 0 3.4521 1.5381 5.3149 1.5552 1.8457 4.3579 1.8457 0.97412 0 1.9824-0.2563 1.0083-0.2564 1.8115-0.6665 0.70068-0.3589 1.3159-0.752 0.61524-0.4101 0.97412-0.7007h0.1709v3.5376z"/>
   <path id="path4151" style="" d="m82.635 1036.6h-3.2129v-10.869q0-1.3159-0.15381-2.461-0.15381-1.1621-0.56396-1.8115-0.42725-0.7177-1.2305-1.0595-0.80322-0.3589-2.085-0.3589-1.3159 0-2.7515 0.6494-1.4355 0.6494-2.7515 1.6577v14.253h-3.2129v-26.592h3.2129v9.6216q1.5039-1.2475 3.1104-1.9482 1.6064-0.7007 3.2983-0.7007 3.0933 0 4.7168 1.8628t1.6235 5.3662v12.39z"/>
   <path id="path4153" style="" d="m103.66 1036.6h-3.1958v-2.0337q-0.42724 0.2906-1.1621 0.8203-0.71777 0.5127-1.4014 0.8204-0.80322 0.393-1.8457 0.6494-1.0425 0.2734-2.4438 0.2734-2.5806 0-4.375-1.709t-1.7944-4.3579q0-2.1704 0.92285-3.5034 0.93994-1.3501 2.666-2.1191 1.7432-0.7691 4.187-1.0425 2.4438-0.2735 5.2466-0.4102v-0.4956q0-1.0937-0.39306-1.8115-0.37598-0.7178-1.0938-1.1279-0.68359-0.3931-1.6406-0.5298-0.95703-0.1367-1.9995-0.1367-1.2646 0-2.8198 0.3418-1.5552 0.3247-3.2129 0.957h-0.1709v-3.2642q0.93994-0.2563 2.7173-0.5639 1.7773-0.3077 3.5034-0.3077 2.0166 0 3.5034 0.3418 1.5039 0.3247 2.5977 1.128 1.0767 0.7861 1.6406 2.0337 0.56396 1.2475 0.56396 3.0932v12.954zm-3.1958-4.6997v-5.3149q-1.4697 0.085-3.4692 0.2563-1.9824 0.1709-3.1445 0.4956-1.3843 0.3931-2.2388 1.2305-0.85449 0.8203-0.85449 2.2729 0 1.6407 0.99121 2.4781 0.99121 0.8203 3.0249 0.8203 1.6919 0 3.0933-0.6494 1.4014-0.6665 2.5977-1.5894z"/>
   <path id="path4155" style="" d="m125.85 1027.4h-14.065q0 1.7603 0.52978 3.0762 0.52979 1.2988 1.4526 2.1362 0.88867 0.8203 2.102 1.2305 1.2305 0.4101 2.7002 0.4101 1.9482 0 3.9136-0.769 1.9824-0.7861 2.8198-1.5381h0.17089v3.5034q-1.6235 0.6836-3.3154 1.145-1.6919 0.4615-3.5547 0.4615-4.751 0-7.417-2.5635-2.666-2.5806-2.666-7.3145 0-4.6826 2.5464-7.434 2.5635-2.7515 6.7334-2.7515 3.8623 0 5.9473 2.2558 2.102 2.2559 2.102 6.4087v1.7432zm-3.1274-2.4609q-0.0171-2.5293-1.2817-3.9136-1.2476-1.3843-3.811-1.3843-2.5806 0-4.1187 1.521-1.521 1.521-1.7261 3.7769h10.938z"/>
   <path id="path4157" style="" d="m133.97 1036.6h-3.2129v-26.592h3.2129v26.592z"/>
   <path id="path4159" style="" d="m166.65 1035.5q-1.6064 0.7691-3.0591 1.1963-1.4356 0.4273-3.0591 0.4273-2.0679 0-3.7939-0.5982-1.7261-0.6152-2.9565-1.8457-1.2476-1.2304-1.9312-3.1103-0.68359-1.8799-0.68359-4.3921 0-4.6826 2.5635-7.3486 2.5806-2.6661 6.8018-2.6661 1.6406 0 3.2129 0.4615 1.5894 0.4614 2.9053 1.1279v3.5718h-0.1709q-1.4697-1.1451-3.042-1.7603-1.5552-0.6152-3.042-0.6152-2.7344 0-4.3237 1.8457-1.5723 1.8286-1.5723 5.3833 0 3.4521 1.5381 5.3149 1.5552 1.8457 4.3579 1.8457 0.97412 0 1.9824-0.2563 1.0083-0.2564 1.8115-0.6665 0.70068-0.3589 1.3159-0.752 0.61523-0.4101 0.97412-0.7007h0.1709v3.5376z"/>
   <path id="path4161" style="" d="m187.05 1027.1q0 4.6655-2.3926 7.3657t-6.4087 2.7002q-4.0503 0-6.4429-2.7002-2.3755-2.7002-2.3755-7.3657t2.3755-7.3657q2.3926-2.7173 6.4429-2.7173 4.0161 0 6.4087 2.7173 2.3926 2.7002 2.3926 7.3657zm-3.3154 0q0-3.7085-1.4526-5.5029-1.4526-1.8116-4.0332-1.8116-2.6147 0-4.0674 1.8116-1.4356 1.7944-1.4356 5.5029 0 3.5889 1.4526 5.4517 1.4526 1.8457 4.0503 1.8457 2.5635 0 4.0161-1.8287 1.4697-1.8457 1.4697-5.4687z"/>
   <path id="path4163" style="" d="m203.96 1021.1h-0.1709q-0.71778-0.1709-1.4014-0.2393-0.6665-0.085-1.5894-0.085-1.4868 0-2.8711 0.6665-1.3843 0.6494-2.666 1.6919v13.552h-3.2129v-19.089h3.2129v2.8198q1.9141-1.5381 3.3667-2.1704 1.4697-0.6494 2.9907-0.6494 0.8374 0 1.2134 0.051 0.37597 0.034 1.1279 0.1538v3.2984z"/>
   <path id="path4165" style="" d="m223.81 1027q0 2.3926-0.6836 4.3066-0.6665 1.9141-1.8115 3.2129-1.2134 1.3501-2.666 2.0337-1.4526 0.6665-3.1958 0.6665-1.6235 0-2.8369-0.3931-1.2134-0.3759-2.3926-1.0253l-0.20508 0.8886h-3.0078v-26.592h3.2129v9.502q1.3501-1.1109 2.8711-1.8115 1.521-0.7178 3.418-0.7178 3.3838 0 5.332 2.5976 1.9653 2.5977 1.9653 7.3316zm-3.3154 0.085q0-3.4179-1.1279-5.1782-1.1279-1.7773-3.6401-1.7773-1.4014 0-2.8369 0.6152-1.4356 0.5981-2.666 1.5552v10.938q1.3672 0.6152 2.3413 0.8545 0.99121 0.2392 2.2388 0.2392 2.666 0 4.1699-1.7431 1.521-1.7603 1.521-5.503z"/>
   <path id="path4167" style="" d="m240.73 1021.1h-0.1709q-0.71777-0.1709-1.4014-0.2393-0.6665-0.085-1.5894-0.085-1.4868 0-2.8711 0.6665-1.3843 0.6494-2.666 1.6919v13.552h-3.2129v-19.089h3.2129v2.8198q1.9141-1.5381 3.3667-2.1704 1.4697-0.6494 2.9907-0.6494 0.8374 0 1.2134 0.051 0.37598 0.034 1.1279 0.1538v3.2984z"/>
   <path id="path4169" style="" d="m247.24 1014.4h-3.623v-3.3325h3.623v3.3325zm-0.20508 22.285h-3.2129v-19.089h3.2129v19.089z"/>
   <path id="path4171" style="" d="m268.78 1036.6h-3.2129v-1.9995q-1.3843 1.1963-2.8882 1.8628t-3.2642 0.6665q-3.418 0-5.4346-2.6318-1.9995-2.6319-1.9995-7.2974 0-2.4267 0.68359-4.3237 0.70069-1.897 1.8799-3.23 1.1621-1.2988 2.7002-1.9824 1.5552-0.6836 3.2129-0.6836 1.5039 0 2.666 0.3247 1.1621 0.3076 2.4438 0.9741v-8.2715h3.2129v26.592zm-3.2129-4.6997v-10.955q-1.2988-0.581-2.3242-0.8032t-2.2388-0.2222q-2.7002 0-4.2041 1.8799t-1.5039 5.3321q0 3.4008 1.1621 5.1782 1.1621 1.7602 3.7256 1.7602 1.3672 0 2.7686-0.5981 1.4014-0.6152 2.6147-1.5723z"/>
   <path id="path4173" style="" d="m290.58 1034.5q0 4.8535-2.2046 7.1265-2.2046 2.2729-6.7847 2.2729-1.521 0-2.9736-0.2221-1.4355-0.2051-2.8369-0.5982v-3.2812h0.1709q0.78613 0.3076 2.4951 0.7519 1.709 0.4614 3.418 0.4614 1.6406 0 2.7173-0.393 1.0767-0.3931 1.6748-1.0938 0.59815-0.6665 0.8545-1.6064 0.25634-0.94 0.25634-2.1021v-1.7431q-1.4526 1.1621-2.7856 1.7431-1.3159 0.564-3.3667 0.564-3.418 0-5.4346-2.4609-1.9995-2.4781-1.9995-6.9727 0-2.4609 0.68359-4.2383 0.70069-1.7944 1.897-3.0932 1.1108-1.2134 2.7002-1.8799 1.5894-0.6836 3.1616-0.6836 1.6577 0 2.7686 0.3418 1.1279 0.3247 2.3755 1.0083l0.20508-0.8203h3.0078v16.919zm-3.2129-3.0762v-10.408q-1.2817-0.581-2.3926-0.8203-1.0938-0.2563-2.1875-0.2563-2.6489 0-4.1699 1.7773-1.521 1.7774-1.521 5.1611 0 3.2129 1.1279 4.8707 1.1279 1.6577 3.7427 1.6577 1.4014 0 2.8027-0.5298 1.4184-0.5469 2.5976-1.4527z"/>
   <path id="path4175" style="" d="m312.89 1027.4h-14.065q0 1.7603 0.52978 3.0762 0.52979 1.2988 1.4526 2.1362 0.88867 0.8203 2.102 1.2305 1.2305 0.4101 2.7002 0.4101 1.9482 0 3.9136-0.769 1.9824-0.7861 2.8198-1.5381h0.17089v3.5034q-1.6235 0.6836-3.3154 1.145-1.6919 0.4615-3.5547 0.4615-4.751 0-7.417-2.5635-2.666-2.5806-2.666-7.3145 0-4.6826 2.5464-7.434 2.5635-2.7515 6.7334-2.7515 3.8623 0 5.9473 2.2558 2.102 2.2559 2.102 6.4087v1.7432zm-3.1274-2.4609q-0.0171-2.5293-1.2817-3.9136-1.2476-1.3843-3.811-1.3843-2.5806 0-4.1187 1.521-1.521 1.521-1.7261 3.7769h10.938z"/>
   <path id="path4177" style="" d="m336.9 1022.4h-4.0845v-4.8706h4.0845v4.8706zm0 14.219h-4.0845v-4.8706h4.0845v4.8706z"/>
   <path id="path4179" style="" d="m352.83 1022.4h-4.0845v-4.8706h4.0845v4.8706zm0 14.219h-4.0845v-4.8706h4.0845v4.8706z"/>
   <path id="path4181" style="" d="m389.06 1036.6h-3.1958v-2.0337q-0.42724 0.2906-1.1621 0.8203-0.71777 0.5127-1.4014 0.8204-0.80323 0.393-1.8457 0.6494-1.0425 0.2734-2.4438 0.2734-2.5806 0-4.375-1.709t-1.7944-4.3579q0-2.1704 0.92285-3.5034 0.93995-1.3501 2.666-2.1191 1.7432-0.7691 4.187-1.0425 2.4438-0.2735 5.2466-0.4102v-0.4956q0-1.0937-0.39306-1.8115-0.37598-0.7178-1.0938-1.1279-0.6836-0.3931-1.6406-0.5298-0.95703-0.1367-1.9995-0.1367-1.2646 0-2.8198 0.3418-1.5552 0.3247-3.2129 0.957h-0.1709v-3.2642q0.93994-0.2563 2.7173-0.5639 1.7774-0.3077 3.5034-0.3077 2.0166 0 3.5034 0.3418 1.5039 0.3247 2.5976 1.128 1.0767 0.7861 1.6406 2.0337 0.56396 1.2475 0.56396 3.0932v12.954zm-3.1958-4.6997v-5.3149q-1.4697 0.085-3.4692 0.2563-1.9824 0.1709-3.1445 0.4956-1.3843 0.3931-2.2388 1.2305-0.85449 0.8203-0.85449 2.2729 0 1.6407 0.99121 2.4781 0.99121 0.8203 3.0249 0.8203 1.6919 0 3.0933-0.6494 1.4014-0.6665 2.5976-1.5894z"/>
   <path id="path4183" style="" d="m412.08 1026.9q0 2.3243-0.6665 4.2554-0.6665 1.9141-1.8799 3.2471-1.1279 1.2646-2.666 1.9653-1.521 0.6836-3.23 0.6836-1.4868 0-2.7002-0.3247-1.1963-0.3247-2.4438-1.0083v7.998h-3.2129v-26.13h3.2129v1.9995q1.2817-1.0767 2.8711-1.7945 1.6064-0.7348 3.418-0.7348 3.4522 0 5.3662 2.6147 1.9312 2.5977 1.9312 7.229zm-3.3154 0.086q0-3.4522-1.1792-5.1611-1.1792-1.709-3.623-1.709-1.3843 0-2.7856 0.5981-1.4014 0.5982-2.6831 1.5723v10.818q1.3672 0.6153 2.3413 0.8375 0.99121 0.2221 2.2388 0.2221 2.6831 0 4.187-1.8115t1.5039-5.3662z"/>
   <path id="path4185" style="" d="m433.88 1026.9q0 2.3243-0.6665 4.2554-0.6665 1.9141-1.8799 3.2471-1.1279 1.2646-2.666 1.9653-1.521 0.6836-3.23 0.6836-1.4868 0-2.7002-0.3247-1.1963-0.3247-2.4438-1.0083v7.998h-3.2129v-26.13h3.2129v1.9995q1.2817-1.0767 2.8711-1.7945 1.6064-0.7348 3.418-0.7348 3.4522 0 5.3662 2.6147 1.9312 2.5977 1.9312 7.229zm-3.3154 0.086q0-3.4522-1.1792-5.1611-1.1792-1.709-3.623-1.709-1.3843 0-2.7856 0.5981-1.4014 0.5982-2.6831 1.5723v10.818q1.3672 0.6153 2.3413 0.8375 0.99121 0.2221 2.2388 0.2221 2.6831 0 4.187-1.8115t1.5039-5.3662z"/>
   <path id="path4187" style="" d="m442.14 1036.6h-3.2129v-26.592h3.2129v26.592z"/>
   <path id="path4189" style="" d="m451.84 1014.4h-3.623v-3.3325h3.623v3.3325zm-0.20508 22.285h-3.2129v-19.089h3.2129v19.089z"/>
   <path id="path4191" style="" d="m472.01 1035.5q-1.6064 0.7691-3.0591 1.1963-1.4355 0.4273-3.0591 0.4273-2.0679 0-3.7939-0.5982-1.7261-0.6152-2.9566-1.8457-1.2476-1.2304-1.9312-3.1103-0.68359-1.8799-0.68359-4.3921 0-4.6826 2.5635-7.3486 2.5806-2.6661 6.8018-2.6661 1.6406 0 3.2129 0.4615 1.5894 0.4614 2.9053 1.1279v3.5718h-0.1709q-1.4697-1.1451-3.042-1.7603-1.5552-0.6152-3.042-0.6152-2.7344 0-4.3237 1.8457-1.5723 1.8286-1.5723 5.3833 0 3.4521 1.5381 5.3149 1.5552 1.8457 4.3579 1.8457 0.97412 0 1.9824-0.2563 1.0083-0.2564 1.8115-0.6665 0.70068-0.3589 1.3159-0.752 0.61523-0.4101 0.97412-0.7007h0.1709v3.5376z"/>
   <path id="path4193" style="" d="m490.98 1036.6h-3.1958v-2.0337q-0.42724 0.2906-1.1621 0.8203-0.71777 0.5127-1.4014 0.8204-0.80323 0.393-1.8457 0.6494-1.0425 0.2734-2.4438 0.2734-2.5806 0-4.375-1.709t-1.7944-4.3579q0-2.1704 0.92285-3.5034 0.93994-1.3501 2.666-2.1191 1.7432-0.7691 4.187-1.0425 2.4438-0.2735 5.2466-0.4102v-0.4956q0-1.0937-0.39306-1.8115-0.37598-0.7178-1.0938-1.1279-0.6836-0.3931-1.6406-0.5298-0.95703-0.1367-1.9995-0.1367-1.2646 0-2.8198 0.3418-1.5552 0.3247-3.2129 0.957h-0.17089v-3.2642q0.93994-0.2563 2.7173-0.5639 1.7773-0.3077 3.5034-0.3077 2.0166 0 3.5034 0.3418 1.5039 0.3247 2.5976 1.128 1.0767 0.7861 1.6406 2.0337 0.56396 1.2475 0.56396 3.0932v12.954zm-3.1958-4.6997v-5.3149q-1.4697 0.085-3.4692 0.2563-1.9824 0.1709-3.1445 0.4956-1.3843 0.3931-2.2388 1.2305-0.85449 0.8203-0.85449 2.2729 0 1.6407 0.99121 2.4781 0.99121 0.8203 3.0249 0.8203 1.6919 0 3.0933-0.6494 1.4014-0.6665 2.5976-1.5894z"/>
   <path id="path4195" style="" d="m507.11 1036.5q-0.90577 0.2393-1.9824 0.3931-1.0596 0.1538-1.897 0.1538-2.9224 0-4.4434-1.5723-1.521-1.5722-1.521-5.0415v-10.151h-2.1704v-2.7002h2.1704v-5.4859h3.2129v5.4859h6.6309v2.7002h-6.6309v8.6987q0 1.5039 0.0684 2.3584 0.0684 0.8374 0.47851 1.5723 0.37598 0.6836 1.0254 1.0083 0.66651 0.3076 2.0166 0.3076 0.78614 0 1.6406-0.2222 0.85449-0.2392 1.2305-0.3931h0.1709v2.8882z"/>
   <path id="path4197" style="" d="m514.46 1014.4h-3.623v-3.3325h3.623v3.3325zm-0.20508 22.285h-3.2129v-19.089h3.2129v19.089z"/>
   <path id="path4199" style="" d="m536.78 1027.1q0 4.6655-2.3926 7.3657t-6.4087 2.7002q-4.0503 0-6.4429-2.7002-2.3755-2.7002-2.3755-7.3657t2.3755-7.3657q2.3926-2.7173 6.4429-2.7173 4.0161 0 6.4087 2.7173 2.3926 2.7002 2.3926 7.3657zm-3.3154 0q0-3.7085-1.4526-5.5029-1.4526-1.8116-4.0332-1.8116-2.6147 0-4.0674 1.8116-1.4356 1.7944-1.4356 5.5029 0 3.5889 1.4526 5.4517 1.4526 1.8457 4.0503 1.8457 2.5635 0 4.0161-1.8287 1.4697-1.8457 1.4697-5.4687z"/>
   <path id="path4201" style="" d="m557.73 1036.6h-3.2129v-10.869q0-1.3159-0.15381-2.461-0.15381-1.1621-0.56396-1.8115-0.42725-0.7177-1.2305-1.0595-0.80322-0.3589-2.085-0.3589-1.3159 0-2.7515 0.6494-1.4355 0.6494-2.7515 1.6577v14.253h-3.2129v-19.089h3.2129v2.1191q1.5039-1.2475 3.1104-1.9482 1.6064-0.7007 3.2983-0.7007 3.0933 0 4.7168 1.8628t1.6235 5.3662v12.39z"/>
   <path id="path4203" style="" d="m591.06 1036.6h-3.1958v-2.0337q-0.42725 0.2906-1.1621 0.8203-0.71778 0.5127-1.4014 0.8204-0.80322 0.393-1.8457 0.6494-1.0425 0.2734-2.4438 0.2734-2.5806 0-4.375-1.709t-1.7944-4.3579q0-2.1704 0.92285-3.5034 0.93994-1.3501 2.666-2.1191 1.7432-0.7691 4.187-1.0425 2.4438-0.2735 5.2466-0.4102v-0.4956q0-1.0937-0.39307-1.8115-0.37598-0.7178-1.0938-1.1279-0.68359-0.3931-1.6406-0.5298-0.95704-0.1367-1.9995-0.1367-1.2646 0-2.8198 0.3418-1.5552 0.3247-3.2129 0.957h-0.1709v-3.2642q0.93994-0.2563 2.7173-0.5639 1.7773-0.3077 3.5034-0.3077 2.0166 0 3.5034 0.3418 1.5039 0.3247 2.5977 1.128 1.0767 0.7861 1.6406 2.0337 0.56397 1.2475 0.56397 3.0932v12.954zm-3.1958-4.6997v-5.3149q-1.4697 0.085-3.4692 0.2563-1.9824 0.1709-3.1445 0.4956-1.3843 0.3931-2.2388 1.2305-0.85449 0.8203-0.85449 2.2729 0 1.6407 0.99121 2.4781 0.99121 0.8203 3.0249 0.8203 1.6919 0 3.0933-0.6494 1.4014-0.6665 2.5977-1.5894z"/>
   <path id="path4205" style="" d="m609.19 1021.1h-0.1709q-0.71777-0.1709-1.4014-0.2393-0.66651-0.085-1.5894-0.085-1.4868 0-2.8711 0.6665-1.3843 0.6494-2.666 1.6919v13.552h-3.2129v-19.089h3.2129v2.8198q1.9141-1.5381 3.3667-2.1704 1.4697-0.6494 2.9907-0.6494 0.83741 0 1.2134 0.051 0.37598 0.034 1.1279 0.1538v3.2984z"/>
   <path id="path4207" style="" d="m626.37 1035.5q-1.6064 0.7691-3.0591 1.1963-1.4355 0.4273-3.0591 0.4273-2.0679 0-3.7939-0.5982-1.7261-0.6152-2.9566-1.8457-1.2476-1.2304-1.9312-3.1103-0.68359-1.8799-0.68359-4.3921 0-4.6826 2.5635-7.3486 2.5806-2.6661 6.8018-2.6661 1.6406 0 3.2129 0.4615 1.5894 0.4614 2.9053 1.1279v3.5718h-0.17089q-1.4697-1.1451-3.042-1.7603-1.5552-0.6152-3.042-0.6152-2.7344 0-4.3237 1.8457-1.5723 1.8286-1.5723 5.3833 0 3.4521 1.5381 5.3149 1.5552 1.8457 4.3579 1.8457 0.97412 0 1.9824-0.2563 1.0083-0.2564 1.8115-0.6665 0.70068-0.3589 1.3159-0.752 0.61523-0.4101 0.97412-0.7007h0.17089v3.5376z"/>
   <path id="path4209" style="" d="m646.46 1036.6h-3.2129v-10.869q0-1.3159-0.15381-2.461-0.15381-1.1621-0.56396-1.8115-0.42725-0.7177-1.2305-1.0595-0.80322-0.3589-2.085-0.3589-1.3159 0-2.7515 0.6494-1.4355 0.6494-2.7515 1.6577v14.253h-3.2129v-26.592h3.2129v9.6216q1.5039-1.2475 3.1104-1.9482 1.6064-0.7007 3.2983-0.7007 3.0933 0 4.7168 1.8628t1.6235 5.3662v12.39z"/>
   <path id="path4211" style="" d="m656.1 1014.4h-3.623v-3.3325h3.623v3.3325zm-0.20508 22.285h-3.2129v-19.089h3.2129v19.089z"/>
   <path id="path4213" style="" d="m672.06 1036.5q-0.90576 0.2393-1.9824 0.3931-1.0596 0.1538-1.897 0.1538-2.9224 0-4.4434-1.5723-1.521-1.5722-1.521-5.0415v-10.151h-2.1704v-2.7002h2.1704v-5.4859h3.2129v5.4859h6.6309v2.7002h-6.6309v8.6987q0 1.5039 0.0684 2.3584 0.0684 0.8374 0.47851 1.5723 0.37598 0.6836 1.0254 1.0083 0.66651 0.3076 2.0166 0.3076 0.78614 0 1.6406-0.2222 0.85449-0.2392 1.2305-0.3931h0.1709v2.8882z"/>
   <path id="path4215" style="" d="m691.94 1027.4h-14.065q0 1.7603 0.52979 3.0762 0.52978 1.2988 1.4526 2.1362 0.88867 0.8203 2.102 1.2305 1.2305 0.4101 2.7002 0.4101 1.9482 0 3.9136-0.769 1.9824-0.7861 2.8198-1.5381h0.1709v3.5034q-1.6235 0.6836-3.3154 1.145-1.6919 0.4615-3.5547 0.4615-4.751 0-7.417-2.5635-2.666-2.5806-2.666-7.3145 0-4.6826 2.5464-7.434 2.5635-2.7515 6.7334-2.7515 3.8623 0 5.9473 2.2558 2.1021 2.2559 2.1021 6.4087v1.7432zm-3.1274-2.4609q-0.0171-2.5293-1.2817-3.9136-1.2476-1.3843-3.811-1.3843-2.5806 0-4.1186 1.521-1.521 1.521-1.7261 3.7769h10.938z"/>
   <path id="path4217" style="" d="m710.93 1035.5q-1.6064 0.7691-3.0591 1.1963-1.4356 0.4273-3.0591 0.4273-2.0679 0-3.794-0.5982-1.7261-0.6152-2.9565-1.8457-1.2476-1.2304-1.9312-3.1103t-0.6836-4.3921q0-4.6826 2.5635-7.3486 2.5806-2.6661 6.8018-2.6661 1.6406 0 3.2129 0.4615 1.5894 0.4614 2.9053 1.1279v3.5718h-0.1709q-1.4697-1.1451-3.042-1.7603-1.5552-0.6152-3.042-0.6152-2.7344 0-4.3237 1.8457-1.5723 1.8286-1.5723 5.3833 0 3.4521 1.5381 5.3149 1.5552 1.8457 4.3579 1.8457 0.97412 0 1.9824-0.2563 1.0083-0.2564 1.8115-0.6665 0.70069-0.3589 1.3159-0.752 0.61524-0.4101 0.97412-0.7007h0.1709v3.5376z"/>
   <path id="path4219" style="" d="m724.97 1036.5q-0.90576 0.2393-1.9824 0.3931-1.0596 0.1538-1.897 0.1538-2.9224 0-4.4434-1.5723-1.521-1.5722-1.521-5.0415v-10.151h-2.1704v-2.7002h2.1704v-5.4859h3.2129v5.4859h6.6309v2.7002h-6.6309v8.6987q0 1.5039 0.0684 2.3584 0.0684 0.8374 0.47852 1.5723 0.37598 0.6836 1.0254 1.0083 0.6665 0.3076 2.0166 0.3076 0.78613 0 1.6406-0.2222 0.85449-0.2392 1.2305-0.3931h0.1709v2.8882z"/>
  </g>
 </g>
</svg>
